<?xml version="1.0" encoding="UTF-8" standalone="no"?>
<svg
 xmlns:dc="http://purl.org/dc/elements/1.1/"
 xmlns:cc="http://creativecommons.org/ns#"
 xmlns:rdf="http://www.w3.org/1999/02/22-rdf-syntax-ns#"
 xmlns:svg="http://www.w3.org/2000/svg"
 xmlns="http://www.w3.org/2000/svg"
 id="svg8"
 version="1.1"
 viewBox="0 0 512 512"
 height="512"
 width="512">
<defs
 id="defs2" />
<metadata
 id="metadata5">
<rdf:RDF>
<cc:Work
 rdf:about="">
<dc:format>image/svg+xml</dc:format>
<dc:type
 rdf:resource="http://purl.org/dc/dcmitype/StillImage" />
<dc:title></dc:title>
</cc:Work>
</rdf:RDF>
</metadata>
<g
 transform="translate(0,-161.53331)"
 id="layer1">
<path
 id="path1543"
 d="M 201.11839,245.1656 C 202.51178,241.98882 204.76564,238.87914 207.7885,237.17745 211.81749,234.90937 216.88304,234.90689 221.50254,235.09957 227.47806,235.34881 233.38533,237.08097 238.95678,239.25534 245.06395,241.63879 250.92945,244.85578 256.11715,248.86403 259.35446,251.36532 262.3451,254.3138 264.62172,257.71286 267.02946,261.30771 269.4791,265.28189 269.85208,269.59246 270.27117,274.43588 267.6671,279.07042 266.35533,283.75161 265.31456,287.4657 264.59586,291.33291 262.88811,294.7914 261.74135,297.11378 260.74233,300.00481 258.4176,301.14678 255.82533,302.42017 252.43748,301.84793 249.76178,300.76073 244.99274,298.82295 240.96599,294.85122 238.22646,290.49303 236.2869,287.40747 236.92582,283.20076 235.21659,279.98188 232.08067,274.07619 227.21309,269.1775 222.3337,264.60554 218.83373,261.32609 214.93279,258.40673 210.72707,256.10098 207.43098,254.29392 202.13109,255.25098 200.21593,252.01651 199.04238,250.03452 200.19318,247.27498 201.11839,245.1656 Z"
 style="fill:#000000;stroke:none;stroke-width:1px;stroke-linecap:butt;stroke-linejoin:miter;stroke-opacity:1;fill-opacity:1" />
<path
 id="path1545"
 d="M 50.249602,319.14138 C 45.716433,320.90242 41.560481,323.8526 38.201452,327.36939 35.497759,330.20007 32.710587,333.50565 32.030448,337.36053 31.526431,340.21719 32.349735,343.36648 33.793592,345.8824 35.761409,349.31131 39.702711,351.13673 42.609312,353.81655 44.392326,355.46045 46.228392,357.05386 47.898743,358.81212 50.291607,361.33091 52.125783,364.36704 54.657461,366.74627 57.512605,369.42948 60.143277,373.86004 64.060896,373.79884 65.94227,373.76945 67.027443,371.48212 68.468756,370.27256 70.967438,368.17563 73.258463,365.83344 75.815189,363.80769 80.714956,359.9255 85.808493,356.27021 91.095769,352.93497 97.919435,348.63056 104.94922,344.60672 112.2535,341.18068 123.28753,336.00522 134.71909,331.62693 146.34095,327.9571 160.00159,323.64349 174.08875,320.79972 188.06868,317.6721 204.54698,313.98554 221.09159,310.55661 237.73057,307.68095 252.55472,305.11894 267.50328,303.33741 282.39688,301.21609 297.77051,299.0264 313.11622,296.61722 328.53248,294.75122 342.90138,293.01199 357.27007,290.98746 371.72951,290.34336 379.46071,289.99897 387.22554,290.07888 394.94424,290.63722 403.12401,291.22891 411.31619,292.14714 419.3344,293.86966 430.33266,296.23237 440.81922,300.55866 451.6587,303.56695 460.8155,306.10824 469.79525,310.05371 479.28129,310.61952 483.0289,310.84305 488.0636,312.05021 490.44786,309.15024 493.37758,305.58684 491.03077,299.71345 489.56629,295.33894 488.03974,290.77902 485.30869,286.39018 481.63215,283.29079 477.70839,279.98299 472.37609,278.80017 467.527,277.11979 458.34559,273.93811 448.9349,271.15584 439.31669,269.77335 433.01157,268.86707 426.56615,268.68465 420.21596,269.18564 409.77848,270.0091 399.7307,273.61796 389.36095,275.06278 376.21225,276.89479 362.89247,277.19439 349.69021,278.58907 330.45517,280.62105 311.29704,283.32521 292.09417,285.64165 272.31203,288.02797 252.44578,289.77652 232.735,292.69422 210.00205,296.05928 187.28166,299.73154 164.85395,304.74238 142.8703,309.65401 121.58859,317.40572 99.617632,322.37382 90.585152,324.41626 81.534213,327.89992 72.288901,327.36939 69.937832,327.23448 67.622118,326.39383 65.530182,325.31239 62.11887,323.54887 60.133243,319.24131 56.420605,318.25981 54.411735,317.72873 52.186468,318.38894 50.249602,319.14138 Z"
 style="fill:#000000;stroke:none;stroke-width:1px;stroke-linecap:butt;stroke-linejoin:miter;stroke-opacity:1;fill-opacity:1" />
<path
 id="path1547"
 d="M 146.6348,364.10155 C 150.66393,361.48595 155.97903,366.44906 160.4461,368.21555 165.53812,370.22918 170.60104,372.49758 175.13896,375.56199 177.95686,377.46489 180.93716,379.46269 182.77925,382.32071 184.94458,385.68024 185.66669,389.83564 186.30554,393.78114 188.38838,406.6446 186.77975,419.83955 187.18711,432.86417 187.49356,442.66245 188.43128,452.44706 188.36254,462.2499 188.31165,469.50878 191.23308,477.96839 187.18711,483.99534 186.0393,485.70513 183.62871,487.01509 181.60382,486.64005 178.67453,486.09751 176.80011,482.822 175.43282,480.17519 170.94507,471.48778 171.8096,460.95679 169.84953,451.37717 167.23843,438.61573 164.63755,425.84758 161.62152,413.17573 159.46511,404.11561 158.10309,394.75745 154.56895,386.14085 152.33747,380.70029 146.90297,376.62719 145.75323,370.86027 145.30901,368.63213 144.72915,365.33865 146.6348,364.10155 Z"
 style="fill:#000000;stroke:none;stroke-width:1px;stroke-linecap:butt;stroke-linejoin:miter;stroke-opacity:1;fill-opacity:1" />
<path
 id="path1551"
 d="M 188.36255,347.35168 C 191.08681,345.21577 194.52257,350.54955 197.76598,351.75955 202.82105,353.64541 207.96742,355.67621 213.34041,356.1674 219.61071,356.74062 225.95678,355.55444 232.14728,354.40426 244.2514,352.15535 255.84958,347.73568 267.70402,344.41311 276.81192,341.86034 286.09042,339.85586 295.03275,336.77282 301.34405,334.59688 306.87239,329.31519 313.54576,329.13253 317.69535,329.01895 321.51288,331.54671 325.30005,333.24653 328.98028,334.89835 332.65844,336.69446 335.87892,339.12368 339.41786,341.7931 343.77331,344.35906 345.28235,348.52711 346.38729,351.57901 345.28888,355.10251 344.40078,358.22441 343.02238,363.06981 339.69828,367.14294 337.64206,371.74184 333.0835,381.93745 329.041,392.36759 325.30005,402.89072 320.07013,417.60227 315.93471,432.68034 311.1949,447.55703 309.4458,453.04686 307.64378,458.51979 305.90547,464.01304 304.01736,469.97966 302.65975,476.13306 300.32218,481.93833 299.09501,484.98597 300.32218,484.58305 295.91432,490.75406 294.41988,492.84628 292.2201,487.09439 290.91875,484.87691 287.79694,479.5574 286.0084,473.50811 284.45389,467.53933 282.83034,461.30546 282.2273,454.84095 281.51531,448.4386 280.88589,442.77875 280.36864,437.08954 280.33988,431.39487 280.33146,429.72683 279.12705,425.68353 280.63374,426.3993 280.63374,426.3993 288.34306,434.70034 292.68189,433.15802 296.94947,431.64104 296.29834,424.83626 297.67746,420.52216 300.41191,411.96844 301.79734,403.03744 304.14233,394.36886 306.40857,385.99137 309.82535,377.90869 311.48875,369.39098 312.43215,364.56019 316.62406,357.98247 312.95804,354.69812 306.99121,349.35249 297.08444,357.26762 289.44946,359.69369 277.8658,363.37449 267.02079,369.07665 255.94973,374.0927 247.44927,377.94407 238.0979,380.48082 230.678,386.14085 228.41411,387.86779 227.92422,392.2874 225.0947,392.60571 218.68957,393.32628 214.23914,385.53586 209.52027,381.14528 202.44978,374.56667 194.93075,367.79413 190.7134,359.10598 188.96854,355.5114 185.21809,349.81703 188.36255,347.35168 Z"
 style="fill:#000000;stroke:none;stroke-width:1px;stroke-linecap:butt;stroke-linejoin:miter;stroke-opacity:1;fill-opacity:1" />
<path
 id="path1553"
 d="M 200.99841,414.93886 C 203.92631,414.2636 206.61221,417.12129 209.52027,417.87744 212.21666,418.57855 214.99597,419.77908 217.74827,419.34673 221.25462,418.79594 223.9428,415.86797 227.15171,414.35115 230.60544,412.7186 234.12821,411.21471 237.73057,409.94329 242.34898,408.31326 247.02784,406.76257 251.83572,405.82929 253.76846,405.45411 255.7964,404.79057 257.71287,405.24158 260.75505,405.9575 263.54832,407.92137 265.64702,410.23715 266.6766,411.37323 267.59533,412.82181 267.70402,414.35115 267.90164,417.13191 266.58092,419.94941 265.0593,422.2853 263.46969,424.72556 260.98801,426.50337 258.59444,428.16245 255.246,430.48339 251.28256,431.76604 247.72172,433.74574 242.72978,436.52107 237.96264,439.68401 233.02886,442.56145 230.11122,444.26306 227.56699,447.1573 224.21314,447.55703 219.96458,448.06339 215.78771,445.75327 211.87113,444.03074 207.24236,441.99499 202.91154,439.22835 198.94141,436.0966 197.20124,434.7239 195.00204,433.47606 194.23969,431.39488 193.02259,428.07227 193.63244,424.02607 195.12126,420.81601 196.28695,418.30266 198.29877,415.56149 200.99841,414.93886 Z"
 style="fill:#000000;stroke:none;stroke-width:1px;stroke-linecap:butt;stroke-linejoin:miter;stroke-opacity:1;fill-opacity:1" />
<path
 id="path1555"
 d="M 148.69181,484.58306 C 145.11562,485.89746 153.95464,490.12115 156.3321,493.10491 158.87244,496.29311 160.26751,500.46903 163.38467,503.09606 165.12682,504.56427 167.28064,506.15674 169.55568,506.03464 172.54174,505.87438 174.50506,502.63724 177.19597,501.33293 183.86059,498.1025 190.98001,495.86721 198.05984,493.69263 204.62298,491.67675 211.33351,490.15756 218.04213,488.69705 229.0426,486.30218 240.17016,484.53283 251.24801,482.52606 261.23106,480.71761 271.21015,478.88147 281.22146,477.23662 290.21623,475.75879 299.1509,473.54809 308.25633,473.12262 313.35276,472.88447 318.44018,473.77225 323.53691,474.00419 326.47407,474.13785 329.77642,475.71507 332.35263,474.29804 334.04538,473.36696 335.27069,471.23429 335.2912,469.30247 335.321,466.49599 333.18206,463.92016 331.1772,461.95604 326.41922,457.29477 320.05171,453.98034 313.54576,452.55261 306.93305,451.10145 299.9791,452.82445 293.26961,453.72803 282.55028,455.17163 272.1145,458.24618 261.53301,460.48675 248.50854,463.24461 235.46371,465.90661 222.44999,468.71476 213.13428,470.72494 203.83542,472.81251 194.53355,474.88576 185.81237,476.82958 177.12586,478.93221 168.38024,480.76291 161.83686,482.13262 148.69181,484.58306 148.69181,484.58306 Z"
 style="fill:#000000;stroke:none;stroke-width:1px;stroke-linecap:butt;stroke-linejoin:miter;stroke-opacity:1;fill-opacity:1" />
<path
 id="path1557"
 d="M 133.99894,521.60908 C 130.36354,526.17158 125.72241,533.92765 123.42008,540.7098 120.09408,550.5074 119.08672,557.6813 119.01221,563.92453 118.95778,568.4861 120.6333,573.0031 122.5385,577.14811 124.27457,580.92516 126.493,584.66149 129.59108,587.43312 132.07315,589.65365 135.08053,591.96946 138.4068,592.13483 140.20541,592.22425 141.87824,591.03702 143.40237,590.07783 145.63302,588.674 148.03588,587.11217 149.27952,584.7884 151.52153,580.59917 151.57439,575.42874 151.33652,570.68325 151.01302,564.22946 148.75514,557.98049 146.6348,551.87638 144.83662,546.69971 141.96572,541.9557 139.87608,536.88966 138.59958,533.79497 137.55922,530.60774 136.3498,527.48622 135.58752,525.51877 135.3138,519.95891 133.99894,521.60908 Z"
 style="fill:#000000;stroke:none;stroke-width:1px;stroke-linecap:butt;stroke-linejoin:miter;stroke-opacity:1;fill-opacity:1" />
<path
 id="path1559"
 d="M 316.19048,500.45135 C 311.6512,501.31341 322.05531,510.54027 324.71234,515.73193 328.50555,523.14361 331.77169,530.81344 335.2912,538.35894 339.90384,548.248 344.42407,558.18042 349.10249,568.03854 350.54878,571.08608 351.55576,574.39878 353.51036,577.14811 354.79462,578.95453 356.2967,580.73456 358.21207,581.84983 360.75856,583.33258 363.79078,584.05571 366.73394,584.20068 369.61298,584.34249 373.00245,584.52902 375.2558,582.7314 376.25123,581.93729 376.36739,580.42722 376.72509,579.20511 378.15002,574.33659 379.35849,569.29114 379.3698,564.21839 379.38398,557.85753 378.81099,551.18322 376.13737,545.41152 372.16265,536.83107 364.79367,530.15842 357.91822,523.66607 353.74478,519.72519 348.8717,516.58185 344.10692,513.38107 338.59882,509.68096 333.19847,505.62359 327.0632,503.09606 323.61447,501.6753 316.19048,500.45135 316.19048,500.45135 Z"
 style="fill:#000000;stroke:none;stroke-width:1px;stroke-linecap:butt;stroke-linejoin:miter;stroke-opacity:1;fill-opacity:1" />
<path
 id="path1561"
 d="M 221.86228,475.17962 C 219.98992,480.14786 227.83131,484.05862 229.79642,488.99091 231.95957,494.42026 233.16193,500.23836 233.91043,506.03464 235.16516,515.75116 234.34452,525.62437 234.49814,535.42037 234.6333,544.03968 235.33059,552.67628 234.792,561.27981 234.47696,566.31237 237.06825,573.688 232.735,576.26654 227.96657,579.10404 222.41186,572.18193 217.16056,570.38939 212.41017,568.76783 207.76351,566.40108 202.76155,565.98153 200.49751,565.79163 196.90389,564.77743 196.00283,566.8631 195.14028,568.85964 198.4866,570.43664 199.82298,572.15253 202.25815,575.27926 205.2888,577.94877 207.46327,581.26211 209.98694,585.10754 211.73667,589.41421 213.63427,593.60412 217.1688,601.40837 219.93688,609.54046 223.33156,617.40656 225.76313,623.04097 226.43201,630.02739 230.97185,634.15643 232.96559,635.96976 235.99227,637.43316 238.61214,636.80115 241.77743,636.03757 243.71077,632.54968 245.37087,629.74857 249.35108,623.03267 251.17145,615.12112 252.42344,607.41541 254.3559,595.52163 253.22188,583.31886 253.01115,571.27096 252.81046,559.79722 251.48785,548.36264 251.24801,536.88966 251.031,526.5085 251.31992,516.12183 251.54187,505.74078 251.60472,502.80125 252.24343,499.83686 251.83572,496.92506 250.99382,490.91224 249.74711,484.55236 246.25244,479.58748 243.47832,475.64629 239.54729,471.5566 234.792,470.77176 230.29931,470.03026 223.46807,470.91869 221.86228,475.17962 Z"
 style="fill:#000000;stroke:none;stroke-width:1px;stroke-linecap:butt;stroke-linejoin:miter;stroke-opacity:1;fill-opacity:1" />
</g>
</svg>
