<?xml version="1.0" encoding="UTF-8" standalone="no"?>
<svg
 xmlns:dc="http://purl.org/dc/elements/1.1/"
 xmlns:cc="http://creativecommons.org/ns#"
 xmlns:rdf="http://www.w3.org/1999/02/22-rdf-syntax-ns#"
 xmlns:svg="http://www.w3.org/2000/svg"
 xmlns="http://www.w3.org/2000/svg"
 id="svg8"
 version="1.1"
 viewBox="0 0 512 512"
 height="512"
 width="512">
<defs
 id="defs2" />
<metadata
 id="metadata5">
<rdf:RDF>
<cc:Work
 rdf:about="">
<dc:format>image/svg+xml</dc:format>
<dc:type
 rdf:resource="http://purl.org/dc/dcmitype/StillImage" />
<dc:title></dc:title>
</cc:Work>
</rdf:RDF>
</metadata>
<g
 transform="translate(0,-161.53331)"
 id="layer1">
<path
 id="path1526"
 d="M 145.90139,316.52745 C 157.38649,309.29506 160.5554,309.28546 163.73734,308.6567 168.84392,307.64762 173.09878,314.49484 178.16082,316.62829 184.87433,319.45777 191.81511,322.48734 199.0866,322.93757 217.45254,324.07472 235.40123,316.95484 253.50197,313.64362 264.88637,311.56104 276.10938,308.53806 287.57929,306.99439 298.59317,305.5121 309.77978,303.27789 320.82545,304.50093 324.49899,304.90769 328.18829,305.95944 331.43311,307.72903 333.15616,308.66872 335.37359,309.65249 335.9245,311.53621 337.0259,315.30212 334.91216,319.72201 332.46161,322.78632 327.89808,328.49283 320.42919,331.54731 313.44158,333.6835 284.47679,342.53837 271.18242,346.74388 254.38354,350.85253 244.63975,353.23565 235.31101,357.55588 225.24274,361.0194 214.18318,364.82393 202.77248,370.50051 192.32788,371.72789 188.66387,372.15846 186.67809,369.98729 182.85388,366.00632 175.37095,358.21666 168.92077,346.93729 160.41272,337.74709 156.84178,333.88984 155.67364,329.12794 151.08133,324.69207 148.76314,322.45286 142.89908,318.41806 145.90139,316.52745 Z"
 style="fill:#000000;stroke:none;stroke-width:1px;stroke-linecap:butt;stroke-linejoin:miter;stroke-opacity:1;fill-opacity:1" />
<path
 id="path1530"
 d="M 93.446628,483.11377 C 119.47963,484.68642 130.72804,477.02527 146.34095,470.77176 165.66005,463.03378 186.54936,459.95771 206.87555,455.49118 231.79383,450.01557 256.73639,444.11306 282.10303,441.38603 302.36884,439.20737 322.89912,438.10824 343.22535,439.62288 350.96627,440.19971 359.04066,440.61188 366.14622,443.73688 375.61502,447.90122 384.04025,454.74017 390.83024,462.54375 395.5516,467.96991 399.77001,474.3472 401.4091,481.35062 402.2585,484.9799 402.95434,489.46048 400.82138,492.5172 397.40628,497.41133 390.33321,499.55077 384.36537,499.56977 372.24939,499.60836 362.58879,488.5251 350.86564,485.46463 337.32229,481.92897 323.13384,480.57041 309.1379,480.76291 296.47782,480.93703 284.10924,484.6653 271.52417,486.05234 256.87307,487.66707 241.88924,486.63886 227.44557,489.57863 214.09026,492.29687 201.29763,497.41401 188.6564,502.50835 180.2037,505.91474 172.13655,510.2132 163.97238,514.26264 157.84988,517.2994 152.58142,523.37869 145.75322,523.66608 139.61025,523.92462 134.10836,519.5555 128.70951,516.6135 123.2697,513.64919 118.42266,509.70089 113.42893,506.03464 108.02739,502.06898 101.56416,499.06617 97.56063,493.69263 95.300133,490.65859 89.669961,482.88562 93.446628,483.11377 Z"
 style="fill:#000000;stroke:none;stroke-width:1px;stroke-linecap:butt;stroke-linejoin:miter;stroke-opacity:1;fill-opacity:1" />
</g>
</svg>
