<?xml version="1.0" encoding="UTF-8" standalone="no"?>
<svg
 xmlns:dc="http://purl.org/dc/elements/1.1/"
 xmlns:cc="http://creativecommons.org/ns#"
 xmlns:rdf="http://www.w3.org/1999/02/22-rdf-syntax-ns#"
 xmlns:svg="http://www.w3.org/2000/svg"
 xmlns="http://www.w3.org/2000/svg"
 id="svg8"
 version="1.1"
 viewBox="0 0 512 512"
 height="512"
 width="512">
<defs
 id="defs2" />
<metadata
 id="metadata5">
<rdf:RDF>
<cc:Work
 rdf:about="">
<dc:format>image/svg+xml</dc:format>
<dc:type
 rdf:resource="http://purl.org/dc/dcmitype/StillImage" />
<dc:title></dc:title>
</cc:Work>
</rdf:RDF>
</metadata>
<g
 transform="translate(0,-161.53331)"
 id="layer1">
<path
 id="path1445"
 d="M 66.076744,226.37245 C 69.668226,223.29725 75.607331,226.52168 80.206362,227.61918 86.73684,229.1776 92.270749,234.08387 98.907328,235.09957 100.69269,235.37281 102.51927,234.92081 104.30983,234.68399 113.95229,233.40867 123.49588,231.41856 132.98464,229.28149 146.81726,226.1661 160.33617,221.77288 174.12677,218.47649 188.18526,215.11606 202.38743,212.38797 216.51562,209.33379 224.828,207.53685 233.07967,205.43402 241.45024,203.93129 259.76835,200.64273 278.43565,199.49625 296.72198,196.03533 302.4634,194.94869 308.42248,194.33049 313.78153,192.00128 317.28521,190.47848 319.59316,186.49059 323.31891,185.6459 329.0506,184.34643 335.18214,186.32789 340.77315,188.13937 349.20857,190.87243 357.17151,195.27504 364.30978,200.53537 367.77937,203.09217 371.73308,205.72598 373.45247,209.67807 374.44783,211.96594 375.03739,215.04158 373.7168,217.15845 371.76044,220.29445 367.23616,221.06317 363.59169,221.67939 357.9811,222.62804 352.1524,221.39533 346.58258,220.23098 341.02564,219.06933 336.02867,215.83577 330.45502,214.75718 325.39191,213.77738 320.16441,213.89919 315.00737,213.90514 302.93576,213.91907 290.86836,214.82755 278.85217,215.98302 263.4073,217.46819 247.98551,219.42221 232.72312,222.21668 223.07168,223.98381 213.53996,226.37963 204.04831,228.86591 189.24884,232.74254 174.54157,237.00406 159.99715,241.7488 150.5012,244.84661 140.71412,247.39106 131.80921,251.91567 127.64383,254.03211 124.57102,258.12696 120.19394,259.76121 116.19561,261.25405 111.72042,261.81272 107.48319,261.3018 101.75084,260.6106 96.502798,257.64242 91.275688,255.18987 87.542821,253.43842 83.945089,251.37537 80.521103,249.07793 77.047796,246.74741 73.382087,244.49874 70.648091,241.33322 68.458081,238.79755 66.412892,235.87118 65.661167,232.60611 65.193932,230.5767 64.494894,227.72691 66.076744,226.37245 Z"
 style="fill:#000000;stroke:none;stroke-width:1px;stroke-linecap:butt;stroke-linejoin:miter;stroke-opacity:1;fill-opacity:1" />
<path
 id="path1447"
 d="M 201.29226,233.62891 C 193.57443,237.28985 193.36863,248.77427 189.83182,256.54977 185.13969,266.86523 175.00438,276.82007 176.90211,287.99251 177.29715,290.3182 179.67342,291.92604 181.60382,293.28194 186.35198,296.61702 192.08209,300.91346 197.76598,299.7468 204.55081,298.35416 207.86036,290.23344 212.45884,285.05393 217.50671,279.36825 222.12327,273.30018 226.56399,267.12864 228.75374,264.08541 232.18683,261.43407 232.735,257.7252 233.39208,253.27941 231.74985,248.28254 228.91485,244.79548 225.1274,240.1369 218.67178,238.37221 213.04656,236.27362 209.28383,234.86987 204.92079,231.90772 201.29226,233.62891 Z"
 style="fill:#000000;stroke:none;stroke-width:1px;stroke-linecap:butt;stroke-linejoin:miter;stroke-opacity:1;fill-opacity:1" />
<path
 id="path1449"
 d="M 144.5778,265.65935 C 151.55988,264.96202 154.15728,276.07513 157.64148,282.16579 160.87562,287.81932 162.56558,294.23231 164.7027,300.38494 167.05111,307.14585 169.20493,313.98265 171.02496,320.90453 172.65682,327.11077 174.39433,333.33755 175.13896,339.7114 176.45762,350.9988 175.84508,362.43529 175.72668,373.79884 175.61945,384.09075 175.0295,394.37251 174.55125,404.65386 174.13644,413.57134 174.1517,422.53209 173.08196,431.39488 172.31766,437.72712 172.29432,444.44143 169.55567,450.20175 168.83944,451.70823 167.95503,453.6759 166.32324,454.0219 163.02328,454.7216 159.83054,451.7427 157.21366,449.61403 153.47481,446.5727 150.39976,442.53783 148.39794,438.1536 146.15587,433.24318 145.74427,427.65225 145.16552,422.2853 144.40931,415.2727 144.80181,408.18048 144.87166,401.12757 144.95805,392.40529 145.47808,383.69265 145.75323,374.97428 145.96343,368.31394 146.46476,361.65447 146.34094,354.99197 146.20414,347.6305 145.61439,340.27785 144.87166,332.95267 144.21348,326.46126 143.80486,319.88911 142.22694,313.55809 140.78797,307.78456 137.16292,302.65451 136.05594,296.80823 135.19925,292.28381 134.73667,287.48612 135.76209,282.99693 137.20582,276.67633 138.12651,266.30367 144.5778,265.65935 Z"
 style="fill:#000000;fill-opacity:1;stroke:none;stroke-width:1px;stroke-linecap:butt;stroke-linejoin:miter;stroke-opacity:1" />
<path
 id="path1451"
 d="M 224.80085,267.12864 C 228.5767,270.75561 234.64264,270.85992 239.78757,271.83035 245.38363,272.88587 251.27895,274.27125 256.8313,273.00578 262.43434,271.72876 266.1781,265.58674 271.81802,264.48392 275.50252,263.76346 279.53077,264.48161 282.9846,265.95321 285.29263,266.93661 287.71882,268.42158 288.86175,270.65492 292.43611,277.63943 290.03717,286.31752 290.03717,294.16351 290.03717,307.89398 288.75424,321.5949 287.98017,335.30353 287.18893,349.31612 285.83908,363.29925 285.33546,377.32513 284.94178,388.28917 286.13452,399.32061 285.0416,410.23715 284.47514,415.89517 281.62353,421.30374 281.80917,426.98702 281.98601,432.40104 283.28459,437.97755 285.92317,442.70838 287.34057,445.2497 289.0475,449.26877 291.94725,449.02632 293.95067,448.85881 294.48969,445.85867 295.32661,444.03074 298.45235,437.20373 300.21563,429.72855 301.20375,422.2853 302.45412,412.86655 300.89441,403.27749 301.20375,393.78114 301.64477,380.24217 303.40745,366.7678 303.84847,353.22883 304.10997,345.20099 303.22019,337.14002 303.84847,329.13253 304.29061,323.49739 305.43219,317.93465 306.49318,312.38266 308.17035,303.6063 310.62836,294.99308 312.37033,286.22936 313.37811,281.15929 316.09761,276.00341 315.01504,270.94878 313.9511,265.98112 309.90527,262.07687 306.49318,258.31292 304.01673,255.5811 301.10361,253.2057 297.97132,251.26034 293.68781,248.59999 289.03704,246.37022 284.16003,245.08934 281.11507,244.28962 277.8886,243.88867 274.75659,244.20777 267.42011,244.95525 260.59652,248.34552 253.59887,250.67263 248.65952,252.31524 244.10723,255.75571 238.906,255.96206 235.55814,256.09488 232.45375,254.1513 229.2087,253.31735 226.37847,252.58999 223.60848,251.31798 220.68685,251.26034 220.18748,251.25049 219.46338,251.11942 219.21756,251.5542 216.5032,256.35497 220.82354,263.30815 224.80085,267.12864 Z"
 style="fill:#000000;stroke:none;stroke-width:1px;stroke-linecap:butt;stroke-linejoin:miter;stroke-opacity:1;fill-opacity:1" />
<path
 id="path1453"
 d="M 166.6171,328.25096 C 172.76886,323.90368 181.37723,325.1936 188.6564,323.25539 196.0818,321.27823 203.30806,318.61053 210.6957,316.49667 218.39374,314.29399 226.03017,311.74452 233.91043,310.32566 236.91286,309.78506 243.02,309.44409 243.02,309.44409 243.02,309.44409 248.09873,311.80179 249.19101,314.14581 250.06083,316.01243 250.10126,318.6462 248.89715,320.31681 246.99328,322.95829 242.89927,322.88423 239.78757,323.8431 231.52238,326.39 222.93806,327.75394 214.51585,329.72025 208.24563,331.18414 201.90919,332.39147 195.70897,334.12811 190.54875,335.57345 185.68316,338.07283 180.42839,339.12368 176.76711,339.85586 172.76497,341.29714 169.26182,340.00525 166.53246,338.99872 163.41317,336.72537 163.09081,333.83425 162.84689,331.6466 164.81945,329.52131 166.6171,328.25096 Z"
 style="fill:#000000;stroke:none;stroke-width:1px;stroke-linecap:butt;stroke-linejoin:miter;stroke-opacity:1;fill-opacity:1" />
<path
 id="path1455"
 d="M 169.84953,388.78557 C 174.79445,392.14104 181.83393,389.72531 187.77483,389.07942 193.6797,388.43745 199.32901,386.31889 205.11241,384.96542 211.47475,383.47647 217.83878,381.99421 224.21314,380.55757 229.10517,379.45501 234.03667,378.52397 238.906,377.32513 242.15934,376.52415 245.37815,375.58831 248.60329,374.68042 251.6469,373.82363 255.20816,373.96548 257.71287,372.0357 259.0702,370.98994 259.74705,369.22885 260.35758,367.62784 261.1037,365.67129 262.34321,363.38773 261.53301,361.45684 260.57647,359.17718 257.68687,358.18357 255.36201,357.34284 251.0082,355.76839 246.16803,355.53456 241.55072,355.87355 238.42313,356.10317 235.4425,357.31536 232.44114,358.22441 223.90246,360.8106 215.69865,364.42296 207.16941,367.04013 199.51469,369.38896 191.89419,372.17389 183.95468,373.21113 180.84661,373.61718 177.67827,372.99501 174.55125,373.21113 170.99958,373.4566 165.73825,371.58909 163.97238,374.68042 161.44593,379.10321 165.63476,385.92555 169.84953,388.78557 Z"
 style="fill:#000000;stroke:none;stroke-width:1px;stroke-linecap:butt;stroke-linejoin:miter;stroke-opacity:1;fill-opacity:1" />
<path
 id="path1457"
 d="M 76.69676,439.32903 C 73.040166,441.7748 74.050815,447.8596 74.052045,452.25875 74.053135,456.15844 75.392697,459.95262 76.402903,463.71919 77.766995,468.80524 78.56982,474.26436 81.398477,478.70591 82.775612,480.86828 84.908542,482.48733 86.981767,483.99534 88.966861,485.43925 91.16457,486.61738 93.446628,487.52163 97.77576,489.23702 102.33065,490.58376 106.96406,491.04791 110.4782,491.39994 114.12952,491.36668 117.54293,490.4602 123.47027,488.88611 128.9859,485.76498 133.99894,482.23219 139.3221,478.48086 142.87629,472.59787 148.10409,468.71476 151.62508,466.09943 155.61216,464.15153 159.56452,462.2499 165.46523,459.41084 171.58432,457.01218 177.78367,454.90347 184.33115,452.67634 191.175,451.41505 197.76598,449.32017 203.317,447.55583 208.79434,445.55666 214.22199,443.44303 225.71586,438.96711 238.53377,436.56592 248.30944,429.04402 251.35294,426.70219 254.3935,423.65049 255.36201,419.93444 255.86162,418.01751 256.05068,415.265 254.48044,414.0573 251.66807,411.89425 247.37246,414.49709 243.90157,415.23272 235.65849,416.97978 227.81478,420.25605 219.80528,422.87302 209.2939,426.30744 198.76593,429.70305 188.36254,433.45188 180.66137,436.22697 173.22046,439.71814 165.44167,442.2676 158.01269,444.70241 150.12853,445.67718 142.81466,448.4386 137.60979,450.40375 133.03117,453.81558 127.82793,455.78504 122.983,457.61888 118.01927,460.05398 112.84121,459.89904 107.67056,459.74432 102.60434,457.53096 98.148345,454.90347 94.385316,452.68458 91.419232,449.29301 88.451054,446.08774 86.933395,444.44886 86.241451,441.96557 84.337051,440.79832 82.125914,439.44305 78.852434,437.88718 76.69676,439.32903 Z"
 style="fill:#000000;stroke:none;stroke-width:1px;stroke-linecap:butt;stroke-linejoin:miter;stroke-opacity:1;fill-opacity:1" />
<path
 id="path1459"
 d="M 315.3089,356.46126 C 317.34492,357.67267 316.80926,361.22692 316.19048,363.51384 315.09547,367.56086 311.33001,370.36651 308.55019,373.50499 300.55891,382.52735 291.3526,390.39605 282.69074,398.77672 273.42998,407.73684 263.84935,416.36956 254.7743,425.51773 243.20856,437.17666 232.37638,449.54313 220.9807,461.36833 208.0997,474.73483 194.77598,487.66996 181.89768,501.03906 165.84112,517.70755 150.32793,534.89341 134.2928,551.58252 119.94371,566.51684 105.8617,581.73763 90.801912,595.95498 84.088096,602.29323 76.901837,608.1116 69.938042,614.17413 64.75338,618.68779 59.830144,623.52375 54.363605,627.69157 49.308229,631.54591 44.799624,639.088 38.49531,638.27043 33.953607,637.68145 32.234385,631.5714 29.385731,627.98543 26.545559,624.41015 23.834197,620.71403 21.451585,616.81885 18.685389,612.29657 12.117011,607.62798 14.105152,602.7137 16.31235,597.25796 25.474921,599.51606 30.855019,597.1304 47.093125,589.93006 62.062927,580.13273 77.284475,570.9771 88.949777,563.96052 101.03228,557.43723 111.66578,548.9378 127.57257,536.2234 140.65903,520.33501 155.15666,506.03464 169.45706,491.92882 183.89852,477.96463 198.05983,463.71918 213.29634,448.39215 227.90062,432.43903 243.31386,417.28973 258.09035,402.76627 273.53564,388.939 288.56789,374.68042 292.99124,370.48473 296.71329,365.41826 301.79147,362.04455 303.83769,360.68513 306.27948,360.0435 308.55019,359.10598 310.78634,358.18273 313.22983,355.22424 315.3089,356.46126 Z"
 style="fill:#000000;stroke:none;stroke-width:1px;stroke-linecap:butt;stroke-linejoin:miter;stroke-opacity:1;fill-opacity:1" />
<path
 id="path1461"
 d="M 182.77925,480.76291 C 179.64434,482.46152 175.70801,485.77119 176.31439,489.28477 176.89194,492.6313 181.50906,494.1879 184.83625,494.86806 187.56585,495.42606 190.32559,493.91045 193.06426,493.39877 201.10863,491.8958 209.13796,490.31222 217.16056,488.69706 227.5562,486.60413 237.77253,483.42514 248.30944,482.23219 252.98232,481.70315 257.71508,481.76409 262.41459,481.93834 264.47948,482.0149 267.04215,481.15221 268.58559,482.52605 270.68075,484.39098 270.37786,487.94928 270.34873,490.75406 270.27347,498.00016 267.87814,505.11942 265.35316,511.91178 262.54427,519.4679 258.34218,526.45571 254.18658,533.36337 248.66812,542.53645 242.50132,551.33072 235.96743,559.81053 230.37116,567.07347 224.81339,574.49227 218.04213,580.6744 205.69751,591.945 191.92091,601.85475 177.19597,609.76627 171.1868,612.99492 164.78226,615.76437 158.09524,617.1127 151.85099,618.37176 145.34896,618.14421 138.99452,617.70042 132.64909,617.25726 126.25982,616.36258 120.18765,614.46799 114.41442,612.66667 109.54016,608.51172 103.73163,606.8277 99.36737,605.5624 92.782079,601.31573 90.214197,605.06456 88.133422,608.10226 93.247263,611.85219 95.503629,614.76185 97.966885,617.93829 101.07394,620.6182 104.31935,622.98985 108.03723,625.70676 112.17639,627.84099 116.3675,629.74857 121.66888,632.16149 127.20726,634.08151 132.82351,635.62572 137.73205,636.97534 142.74337,638.07222 147.81023,638.56429 154.63479,639.22705 161.58891,639.50862 168.38024,638.56429 175.13683,637.62479 181.72367,635.48599 188.06869,632.981 194.83289,630.31053 201.41723,627.03105 207.46327,622.98985 217.92169,615.99939 227.34971,607.47825 236.26129,598.59969 243.10293,591.7834 249.34705,584.34106 255.06815,576.56039 261.16974,568.26226 266.79547,559.55738 271.52416,550.40709 274.3469,544.94493 276.16639,539.01963 278.57674,533.36337 280.96682,527.75469 282.90442,521.91039 285.92317,516.61351 288.2517,512.52772 291.63823,508.38229 294.15117,505.15307 296.77015,499.98099 299.33377,500.23386 301.49761,495.45578 302.45487,493.25349 308.54511,486.38942 307.0809,481.64448 305.4147,476.24496 297.95647,474.91004 292.97575,472.24105 286.7063,468.88147 280.30673,465.1622 273.28731,464.01304 265.14671,462.68034 256.72432,464.329 248.60329,465.77618 235.75449,468.06585 223.66306,473.53172 210.98956,476.64891 205.74773,477.93819 200.46938,479.14876 195.12126,479.88134 191.03493,480.44108 186.40562,478.79801 182.77925,480.76291 Z"
 style="fill:#000000;fill-opacity:1;stroke:none;stroke-width:1px;stroke-linecap:butt;stroke-linejoin:miter;stroke-opacity:1" />
<path
 id="path1463"
 d="M 152.21809,498.98206 C 149.75013,499.75451 146.47404,501.13325 146.04709,503.68378 145.63893,506.12206 148.14977,508.41729 150.16109,509.85478 154.52962,512.97696 160.65488,512.23125 165.73553,513.96879 171.67443,515.99985 177.52473,518.38073 183.07311,521.31522 189.1497,524.52908 194.62309,528.7727 200.41069,532.4818 207.15964,536.807 214.17582,540.73583 220.68685,545.41152 228.55229,551.05985 235.8616,557.44742 243.31386,563.63067 249.46256,568.73233 255.18183,574.35786 261.53302,579.20511 269.1567,585.02354 277.39391,589.9908 285.33546,595.36726 293.16437,600.66747 300.71994,606.39996 308.84404,611.23556 320.32647,618.07009 332.51142,623.64939 344.40078,629.74857 353.48234,634.40736 362.51107,639.17816 371.72951,643.55986 378.89755,646.96696 385.93897,650.76756 393.47496,653.25716 400.33492,655.52342 407.44708,658.70873 414.63268,657.95887 418.16419,657.59034 421.07391,654.96716 424.32997,653.55101 431.81996,650.29342 439.29275,646.97094 446.95698,644.14758 455.93874,640.83887 465.55316,639.25132 474.28571,635.33186 477.81078,633.7497 484.44221,633.31502 484.27686,629.45472 484.16998,626.9597 479.86294,627.08162 477.51815,626.22228 450.32515,616.25646 421.27505,612.30277 393.47495,604.18298 375.39642,598.90265 357.08116,594.09646 339.69906,586.8454 323.40438,580.04797 308.11873,571.02412 292.68189,562.45524 276.55467,553.50313 261.1164,543.35346 245.077,534.24494 235.09101,528.57406 224.98117,523.11997 214.8097,517.78893 204.79935,512.54233 195.30532,505.95704 184.5424,502.50835 178.40781,500.54269 171.85224,500.20348 165.44167,499.56978 161.05086,499.13574 156.42887,497.66413 152.21809,498.98206 Z"
 style="fill:#000000;stroke:none;stroke-width:1px;stroke-linecap:butt;stroke-linejoin:miter;stroke-opacity:1;fill-opacity:1" />
</g>
</svg>
