<?xml version="1.0" encoding="UTF-8" standalone="no"?>
<svg
 xmlns:dc="http://purl.org/dc/elements/1.1/"
 xmlns:cc="http://creativecommons.org/ns#"
 xmlns:rdf="http://www.w3.org/1999/02/22-rdf-syntax-ns#"
 xmlns:svg="http://www.w3.org/2000/svg"
 xmlns="http://www.w3.org/2000/svg"
 id="svg8"
 version="1.1"
 viewBox="0 0 512 512"
 height="512"
 width="512">
<defs
 id="defs2" />
<metadata
 id="metadata5">
<rdf:RDF>
<cc:Work
 rdf:about="">
<dc:format>image/svg+xml</dc:format>
<dc:type
 rdf:resource="http://purl.org/dc/dcmitype/StillImage" />
<dc:title></dc:title>
</cc:Work>
</rdf:RDF>
</metadata>
<g
 transform="translate(0,-161.53331)"
 id="layer1">
<path
 id="path2207"
 d="M 186.67619,217.80299 C 190.00608,213.71769 195.79612,212.33042 200.81833,210.73192 206.72663,208.85138 213.03129,207.30919 219.2031,207.9035 224.06398,208.37158 228.78868,210.36688 232.99168,212.85324 238.81231,216.29655 243.48229,221.43736 248.19448,226.28827 253.32524,231.57008 256.07972,239.37637 262.33661,243.25883 265.19454,245.0322 272.68081,242.2837 272.15032,245.60503 270.88649,253.51774 265.6156,259.40958 261.9757,266.11849 258.88505,271.81504 256.40132,278.02361 252.08357,282.85681 246.47758,289.13204 239.39997,294.184 231.93102,298.05961 228.85445,299.65603 224.92017,303.15722 222.03153,301.24159 217.59435,298.29903 222.59014,290.27691 220.61731,285.33169 217.38467,277.22853 209.12233,272.13126 204.35386,264.82559 200.4927,258.91 197.45253,252.48365 194.45436,246.08726 191.69564,240.20173 189.36093,234.12362 187.02974,228.05604 186.4014,226.42061 185.33416,224.85679 185.26198,223.10629 185.18661,221.2783 185.52028,219.22112 186.67619,217.80299 Z"
 style="fill:#000000;stroke:none;stroke-width:1px;stroke-linecap:butt;stroke-linejoin:miter;stroke-opacity:1;fill-opacity:1" />
<path
 id="path2211"
 d="M 135.05739,268.00757 C 132.31011,271.70608 129.66021,283.2334 127.63277,290.98854 124.64808,302.40527 123.70602,314.27047 122.32947,325.99033 121.16688,335.88854 120.95549,344.32075 119.83683,355.78501 119.40286,360.23242 115.47342,369.19579 112.248,378.35176 109.98076,384.78776 110.05478,393.92039 115.61196,396.73654 118.76676,398.33526 122.73676,394.68294 125.1579,392.10481 130.47644,386.44141 131.96258,378.03628 133.99673,370.53806 136.83178,360.08755 136.45578,348.99743 138.55739,338.3751 140.13968,330.37761 143.23802,322.714 144.60334,314.67662 145.97032,306.62949 147.99597,298.34424 146.72466,290.28144 145.82805,284.59505 142.9187,279.33759 140.00714,274.37153 138.64791,272.05319 136.65989,265.85021 135.05739,268.00757 Z"
 style="fill:#000000;stroke:none;stroke-width:1px;stroke-linecap:butt;stroke-linejoin:miter;stroke-opacity:1;fill-opacity:1" />
<path
 id="path2213"
 d="M 83.085047,273.31087 C 79.068185,276.82514 84.029963,284.11316 86.085047,289.0388 88.420826,294.63721 93.263551,298.83997 96.391396,304.03753 101.95101,313.27598 106.23799,323.22481 111.36932,332.70784 113.23354,336.15305 115.74434,339.29014 117.11196,342.96089 118.39796,346.41258 117.77393,350.44955 119.33683,353.78501 120.897,357.11464 122.54153,362.41144 126.21856,362.40633 129.8434,362.40129 131.52118,357.20735 132.97897,353.88856 136.49351,345.88737 133.56821,335.9979 137.07516,327.99338 139.34594,322.81039 143.00519,317.97463 147.60334,314.67662 162.86465,303.73049 182.56543,300.73711 200.67188,295.74895 210.93962,292.92028 221.57972,291.67667 232.01681,289.55656 248.28392,286.25218 264.53349,282.86032 280.76428,279.38194 295.85244,276.14844 310.99097,273.12057 325.97623,269.43955 337.06089,266.71668 347.93793,263.19138 359.0209,260.46163 367.56211,258.35792 376.00767,254.21964 384.78741,254.76188 391.98394,255.20634 400.08993,256.88264 405.17218,261.99716 407.19505,264.03287 407.97119,267.25918 408.00061,270.12889 408.05143,275.08539 407.09135,280.95803 403.40442,284.27103 401.70237,285.80046 398.01548,283.82218 396.6869,285.68524 395.58358,287.23243 396.13389,289.9197 397.39401,291.3421 399.89133,294.16104 404.64813,293.41519 408.35416,294.08474 414.49137,295.19352 420.71401,296.41846 426.94605,296.18093 434.73631,295.88401 442.41409,293.90695 449.91966,291.7992 454.58985,290.4877 460.29003,290.28276 463.54403,286.68524 465.98343,283.98831 466.96408,279.72131 466.33692,276.1393 466.01556,274.30383 464.44222,272.89038 463.15494,271.54311 461.00553,269.29353 458.48722,267.3285 455.73032,265.88625 451.99868,263.93407 447.38343,264.05589 443.7095,261.99716 439.91806,259.87258 436.97015,256.49556 433.81001,253.51188 431.66019,251.4821 429.61119,249.34159 427.66051,247.11975 424.75324,243.80835 422.51937,239.91121 419.40011,236.79868 417.86258,235.26447 416.42726,233.19538 414.30391,232.73802 406.2458,231.00233 398.30836,236.73022 390.33461,238.8195 365.08693,245.43489 340.1113,253.09603 314.7483,259.25452 301.8671,262.38225 288.85279,264.93622 275.8752,267.63625 260.47379,270.84056 245.09179,274.16561 229.6026,276.91443 210.26325,280.34653 190.84244,283.3469 171.36984,285.91747 159.56751,287.47549 147.75937,289.24175 135.86805,289.80656 130.41798,290.06542 124.77944,290.95594 119.50105,289.57433 113.53209,288.01196 108.84363,283.31265 103.23759,280.73549 98.425017,278.52309 93.376801,276.85934 88.388347,275.07864 86.633415,274.45219 84.487474,272.08391 83.085047,273.31087 Z"
 style="fill:#000000;stroke:none;stroke-width:1px;stroke-linecap:butt;stroke-linejoin:miter;stroke-opacity:1;fill-opacity:1" />
<path
 id="path2215"
 d="M 153.44217,374.7807 C 152.70633,381.80646 159.87322,387.36495 163.34167,393.51903 167.05308,400.10419 171.50287,406.26771 175.00893,412.96446 178.72757,420.06724 181.57036,427.59539 184.90842,434.88477 186.42318,438.19258 188.27807,441.35911 189.50462,444.78427 191.88489,451.43119 193.80763,458.30133 194.80792,465.29036 195.87705,472.76039 196.07523,480.39245 195.51502,487.91778 195.31938,490.54574 192.96108,493.31994 194.10081,495.69596 195.49203,498.59626 199.54104,499.25538 202.58609,500.29215 206.08921,501.48489 211.01212,504.7567 213.54625,502.05992 216.11104,499.33051 211.63461,494.80254 211.07137,491.09976 209.73791,482.33353 209.62723,473.42444 208.95005,464.58326 208.18033,454.53394 207.08829,444.5005 206.74295,434.42767 206.52607,428.10188 206.56187,421.76322 206.82873,415.43934 206.95335,412.48628 208.29601,409.45677 207.53584,406.6005 206.14027,401.35676 202.34484,396.83062 198.34345,393.16547 193.55738,388.78158 187.16772,386.5427 181.37289,383.61953 175.72121,380.76857 169.91834,378.21151 164.04877,375.84136 161.14518,374.66888 158.23181,371.83848 155.20994,372.65938 154.32168,372.90068 153.53805,373.86526 153.44217,374.7807 Z"
 style="fill:#000000;stroke:none;stroke-width:1px;stroke-linecap:butt;stroke-linejoin:miter;stroke-opacity:1;fill-opacity:1" />
<path
 id="path2217"
 d="M 204.70741,368.77029 C 201.67302,374.29147 212.29989,378.89605 215.21046,384.48349 218.10587,390.04182 218.33253,396.94508 222.03153,402.00431 224.35624,405.18387 227.29068,409.63756 231.22392,409.42893 234.55257,409.25237 235.71585,404.46954 238.29498,402.35786 243.77,397.87516 250.08457,394.52922 255.97265,390.60481 263.16705,385.80973 269.66797,379.7716 277.53941,376.19491 281.65173,374.32632 287.13557,369.78617 290.62089,372.65938 293.95189,375.40538 290.59099,381.355 289.68891,385.57664 288.36642,391.76576 285.15774,397.40132 283.19626,403.41852 281.4854,408.66687 279.03262,413.82523 278.60007,419.32842 278.30226,423.11732 276.95424,428.38812 280.01428,430.64213 282.71317,432.63012 287.07003,430.64897 289.91378,428.87436 300.07253,422.53491 304.4724,409.83816 311.12698,399.88299 316.41737,391.96864 320.06659,382.95112 325.97623,375.4878 329.63152,370.87152 335.85849,368.32142 338.5577,363.08831 340.13245,360.03525 340.80799,356.29415 340.19679,352.91369 339.48348,348.96849 336.6491,345.6708 334.24704,342.46089 331.94996,339.39126 329.30317,336.51703 326.26176,334.18272 322.75554,331.49167 318.85536,329.15647 314.66252,327.7581 310.59918,326.40292 305.63864,323.83922 301.93459,325.99033 297.54409,328.54009 299.56418,336.26244 296.27774,340.13246 292.62409,344.43489 286.75988,346.22445 281.78205,348.88551 270.62103,354.852 259.14093,360.26353 247.40895,365.00988 242.81496,366.86844 238.25032,369.12447 233.34524,369.83095 227.15345,370.72275 220.8486,369.21404 214.5965,369.00252 211.30111,368.89103 206.29552,365.88067 204.70741,368.77029 Z"
 style="fill:#000000;stroke:none;stroke-width:1px;stroke-linecap:butt;stroke-linejoin:miter;stroke-opacity:1;fill-opacity:1" />
<path
 id="path2219"
 d="M 200.11122,446.55203 C 198.04837,448.81162 196.9352,452.41269 197.63634,455.39087 198.40116,458.63955 201.17718,461.79196 204.35386,462.81549 213.41833,465.73608 223.03442,459.06981 232.28458,456.80508 240.74326,454.73413 248.95126,451.66146 257.4757,449.88046 266.76989,447.93864 276.26305,447.11408 285.66683,445.80203 293.51006,444.70771 302.40466,446.68298 309.21277,442.63782 311.91466,441.03244 314.39882,438.15039 314.78384,435.03122 315.17998,431.82194 313.29224,428.44762 311.12698,426.04594 308.44392,423.06991 304.29616,421.73036 300.52038,420.38908 295.88137,418.74115 290.94737,417.61875 286.02469,417.56066 276.22174,417.44498 266.42607,419.702 257.03331,422.5104 242.36995,426.89468 229.12774,435.10517 214.96046,440.89518 210.05738,442.89901 203.68241,442.64024 200.11122,446.55203 Z"
 style="fill:#000000;stroke:none;stroke-width:1px;stroke-linecap:butt;stroke-linejoin:miter;stroke-opacity:1;fill-opacity:1" />
<path
 id="path2221"
 d="M 150.9673,509.13098 C 147.97181,516.22846 158.88724,522.36763 162.28101,529.28353 167.54154,540.00355 171.8579,551.16697 176.25893,562.26755 179.94998,571.57738 181.49185,581.87974 186.67619,590.44826 190.04544,596.01686 194.09981,601.72686 199.75767,604.94395 202.36958,606.4291 205.59188,606.70444 208.5965,606.71172 210.9542,606.71743 213.94936,607.09948 215.53889,605.35817 218.39062,602.23414 217.00697,596.95974 216.82442,592.7338 216.35063,581.76585 212.80079,571.14885 210.67493,560.37846 208.1716,547.69568 208.11084,534.21335 202.89675,522.38403 201.04676,518.18691 198.66503,513.73443 194.80792,511.2523 186.41294,505.84996 175.44164,504.97107 165.46299,505.26702 160.46457,505.41526 152.91172,504.52388 150.9673,509.13098 Z"
 style="fill:#000000;stroke:none;stroke-width:1px;stroke-linecap:butt;stroke-linejoin:miter;stroke-opacity:1;fill-opacity:1" />
<path
 id="path2223"
 d="M 215.29625,507.08809 C 214.22921,514.25696 223.8415,518.97574 229.37036,523.66221 233.24195,526.94392 237.36518,531.73867 242.43407,531.48327 249.37468,531.13356 253.10567,522.45166 259.15463,519.03048 263.47887,516.58477 268.17351,514.76304 272.94322,513.37362 277.42652,512.06763 282.0881,511.39029 286.7318,510.89875 290.24964,510.52638 294.90974,507.97314 297.3384,510.5452 303.59418,517.17038 296.06431,528.73632 294.86353,537.76881 293.96477,544.52944 289.95891,551.24007 291.32799,557.92135 291.97761,561.09156 294.49738,563.62025 296.63129,566.05308 298.78071,568.50359 300.80324,572.62955 304.05591,572.41704 311.80059,571.91104 315.03579,561.36126 319.61226,555.09292 326.21511,546.04907 330.66818,535.60974 336.58283,526.10155 340.31207,520.10655 343.71312,513.83342 348.25009,508.42388 350.23218,506.06058 354.51319,505.11072 354.9676,502.05992 355.84624,496.16099 349.64753,491.31894 346.12877,486.50357 342.43833,481.45326 338.32645,476.5703 333.40085,472.71498 331.28257,471.05698 329.00417,469.11527 326.32978,468.8259 320.95411,468.24425 315.93883,471.82373 310.77343,473.42209 302.727,475.91195 294.80076,478.78441 286.7318,481.20027 271.85904,485.65321 256.55932,488.66646 241.83052,493.57463 237.01329,495.1799 232.17337,496.83324 227.65285,499.1457 223.29375,501.37558 216.0171,502.2451 215.29625,507.08809 Z"
 style="fill:#000000;stroke:none;stroke-width:1px;stroke-linecap:butt;stroke-linejoin:miter;stroke-opacity:1;fill-opacity:1" />
<path
 id="path2225"
 d="M 198.697,586.55918 C 198.64591,582.47531 204.00537,580.12726 207.53584,578.07389 214.33699,574.11825 222.54927,573.33878 230.16326,571.35638 241.61822,568.37393 253.20195,565.88683 264.81149,563.57821 276.30828,561.29202 287.79568,558.73093 299.45972,557.5678 303.80028,557.13496 308.25674,556.39498 312.5412,557.21424 316.94898,558.05708 321.89474,559.19889 324.91556,562.51755 327.24875,565.08078 329.28034,569.15899 328.09755,572.41704 327.19381,574.90645 323.87049,575.75885 321.38003,576.65968 308.6372,581.26893 294.51483,580.23257 281.07494,581.96298 265.17067,584.01068 249.13842,585.19594 233.34524,587.97339 224.41917,589.54316 215.59057,596.30092 206.82873,593.9838 203.28026,593.04539 198.74291,590.22935 198.697,586.55918 Z"
 style="fill:#000000;stroke:none;stroke-width:1px;stroke-linecap:butt;stroke-linejoin:miter;stroke-opacity:1;fill-opacity:1" />
</g>
</svg>
