<?xml version="1.0" encoding="UTF-8" standalone="no"?>
<svg
 xmlns:dc="http://purl.org/dc/elements/1.1/"
 xmlns:cc="http://creativecommons.org/ns#"
 xmlns:rdf="http://www.w3.org/1999/02/22-rdf-syntax-ns#"
 xmlns:svg="http://www.w3.org/2000/svg"
 xmlns="http://www.w3.org/2000/svg"
 id="svg8"
 version="1.1"
 viewBox="0 0 512 512"
 height="512"
 width="512">
<defs
 id="defs2" />
<metadata
 id="metadata5">
<rdf:RDF>
<cc:Work
 rdf:about="">
<dc:format>image/svg+xml</dc:format>
<dc:type
 rdf:resource="http://purl.org/dc/dcmitype/StillImage" />
<dc:title></dc:title>
</cc:Work>
</rdf:RDF>
</metadata>
<g
 transform="translate(0,-161.53331)"
 id="layer1">
<path
 id="path2238"
 d="M 40.305086,339.0718 C 32.89527,350.72585 46.80652,370.1666 59.396969,375.84136 66.484887,379.03602 74.771405,372.98427 82.024386,370.1845 89.009085,367.48829 94.673484,361.79929 101.82338,359.5779 105.89991,358.31137 112.25064,361.75941 114.5513,358.16369 116.15815,355.65233 113.91041,351.70414 111.72287,349.67841 102.45322,341.09443 87.458299,342.28507 74.953319,340.48602 63.512088,338.84001 46.507032,329.31747 40.305086,339.0718 Z"
 style="fill:#000000;stroke:none;stroke-width:1px;stroke-linecap:butt;stroke-linejoin:miter;stroke-opacity:1;fill-opacity:1" />
<path
 id="path2240"
 d="M 79.738852,213.82812 C 72.488063,216.40654 87.354461,228.05579 89.095454,235.83421 92.959441,253.09776 91.834086,271.19051 91.130988,288.86722 89.988443,317.59213 83.520374,345.87572 80.988852,374.51167 77.602318,412.8193 73.784298,451.2313 74.246212,489.68555 74.458899,507.39174 74.459941,517.84633 74.203319,538.29698 73.988707,555.39978 33.794235,533.23134 18.29899,526.11195 11.036669,522.77523 22.799756,545.568 26.79899,554.65358 33.283378,569.38501 42.027693,583.14696 51.618795,596.07263 58.860274,605.83178 67.352645,614.65372 76.117532,623.07137 79.782007,626.59067 82.729381,632.89382 87.80992,632.84954 92.027639,632.81278 95.633454,628.40618 97.373629,624.56401 101.09745,616.34209 98.085402,606.46942 97.202056,597.48685 96.345782,588.77957 93.281809,580.39843 92.252308,571.70993 90.84419,559.82608 90.755359,547.81315 90.595454,535.84724 90.091473,498.13357 90.514809,460.36555 92.795202,422.71751 94.589958,393.08706 96.81694,363.38159 101.82338,334.12206 104.35911,319.30229 108.27624,304.73142 112.42998,290.28144 115.71783,278.84372 123.84797,268.31918 123.74369,256.41874 123.69007,250.29997 120.70573,244.39776 117.62237,239.11239 113.48552,232.02117 107.85995,225.66726 101.45206,220.53522 97.676272,217.51122 93.39102,214.76345 88.6886,213.62837 85.787916,212.9282 79.738852,213.82812 79.738852,213.82812 Z"
 style="fill:#000000;stroke:none;stroke-width:1px;stroke-linecap:butt;stroke-linejoin:miter;stroke-opacity:1;fill-opacity:1" />
<path
 id="path2242"
 d="M 121.26881,360.63856 C 111.42968,355.12748 101.52207,371.97137 93.338095,379.73044 81.313111,391.1311 72.547502,405.57688 63.13961,419.21751 50.35411,437.75538 37.771271,456.57611 27.559397,476.64697 19.488175,492.5105 8.5850971,508.34066 7.4246212,526.10155 7.0910139,531.20736 8.4499243,536.71059 11.313708,540.95079 14.189621,545.20895 19.067103,552.39026 23.688077,550.14318 31.639742,546.27645 22.280504,532.21205 24.395184,523.62667 27.849054,509.60432 36.703694,497.48497 43.487067,484.7358 52.486173,467.82222 62.201518,451.29095 72.124891,434.90254 77.12286,426.64842 82.269103,418.47827 87.681241,410.48959 92.322409,403.63891 97.119161,396.88619 102.17693,390.33705 108.16266,382.58632 117.36659,376.83705 120.91526,367.70963 121.77044,365.51006 123.32779,361.79183 121.26881,360.63856 Z"
 style="fill:#000000;stroke:none;stroke-width:1px;stroke-linecap:butt;stroke-linejoin:miter;stroke-opacity:1;fill-opacity:1" />
<path
 id="path2244"
 d="M 222.73864,246.44082 C 220.06468,251.01704 226.07196,256.62308 228.93102,261.086 232.93881,267.34204 236.64733,276.19538 243.95184,277.55351 253.01974,279.23951 260.56772,269.52955 268.70058,265.17915 279.58956,259.35446 289.56217,251.76602 300.87393,246.81214 310.41939,242.63179 324.63192,241.61461 330.67597,237.36975 332.77799,235.89346 329.43242,232.08798 327.57242,230.31645 321.03708,224.09196 311.31288,220.7269 302.28815,220.63142 297.40506,220.57976 293.0801,223.88825 288.49957,225.58117 271.70579,231.788 255.69321,240.44726 238.29498,244.67305 233.22361,245.90482 225.37156,241.93484 222.73864,246.44082 Z"
 style="fill:#000000;stroke:none;stroke-width:1px;stroke-linecap:butt;stroke-linejoin:miter;stroke-opacity:1;fill-opacity:1" />
<path
 id="path2246"
 d="M 150.26019,282.50326 C 145.06158,286.28949 145.14976,294.83092 145.664,301.24159 146.53386,312.08551 155.58385,320.78354 158.39192,331.29363 162.40658,346.31978 162.49249,362.13395 164.04877,377.60912 165.68343,393.86369 166.87276,409.61969 167.91273,426.46625 168.51129,436.16242 172.82215,461.35336 175.52669,454.59798 181.82141,438.87506 180.30926,438.81165 181.49421,430.68071 184.01392,413.3909 182.77104,395.75547 183.84776,378.31623 184.86763,361.79768 189.50681,345.27385 187.73685,328.81876 186.7759,319.88496 185.537,310.0534 179.95868,303.00936 176.15621,298.20778 168.7015,297.80019 164.04877,293.81697 160.48346,290.7647 159.36921,285.03127 155.20994,282.85681 153.74406,282.09045 151.59727,281.52944 150.26019,282.50326 Z"
 style="fill:#000000;stroke:none;stroke-width:1px;stroke-linecap:butt;stroke-linejoin:miter;stroke-opacity:1;fill-opacity:1" />
<path
 id="path2248"
 d="M 194.44396,320.68703 C 202.18858,328.82296 210.57379,331.54034 219.32442,330.10429 239.58474,326.77941 256.43033,311.53555 275.40032,303.1558 287.89482,297.63651 300.28932,291.6566 313.39475,287.80656 323.70524,284.7776 334.32194,281.77189 345.06811,281.79615 349.3902,281.80591 355.08335,280.90623 357.79603,284.27103 361.19931,288.49245 357.70326,295.11832 357.44248,300.53448 357.06168,308.4433 349.09894,319.81192 355.67471,324.22256 362.24027,328.62636 370.18839,317.81316 376.88791,313.61596 383.43991,309.51119 388.9466,303.91887 395.27269,299.47382 398.1348,297.46275 403.17708,297.18786 404.11152,293.81697 405.62454,288.3589 399.54289,283.41009 396.55822,278.59641 392.34754,271.80543 388.4475,264.30863 382.06253,259.50452 376.84956,255.58224 370.32992,252.51115 363.80644,252.45122 357.28219,252.39129 351.51861,256.84566 345.42166,259.16874 330.49294,264.85693 315.87595,271.35444 300.87393,276.84641 285.9304,282.31697 270.67186,286.8868 255.6191,292.0492 243.80827,296.09977 231.51015,298.99942 220.26376,304.42357 211.10203,308.84229 187.38489,313.27128 194.44396,320.68703 Z"
 style="fill:#000000;stroke:none;stroke-width:1px;stroke-linecap:butt;stroke-linejoin:miter;stroke-opacity:1;fill-opacity:1" />
<path
 id="path2250"
 d="M 195.1866,365.27765 C 200.43512,380.6961 201.85069,383.06033 210.71782,384.68019 223.78481,387.06729 234.32019,372.48509 246.07316,366.29541 256.70914,360.69399 267.17375,354.76529 277.89296,349.32485 286.10114,345.15886 294.56534,341.50981 302.76607,337.32916 306.35018,335.50201 313.24756,335.63193 313.39475,331.61165 313.57063,326.80757 306.02087,324.23452 301.22749,323.86901 288.38929,322.89005 277.64584,334.21403 265.87215,339.42536 249.71079,346.57878 233.63103,353.91677 217.43533,360.99211 205.46675,366.22077 192.69671,357.96317 195.1866,365.27765 Z"
 style="fill:#000000;stroke:none;stroke-width:1px;stroke-linecap:butt;stroke-linejoin:miter;stroke-opacity:1;fill-opacity:1" />
<path
 id="path2252"
 d="M 201.87899,414.73223 C 200.92572,420.15155 208.77806,423.46842 213.19269,426.75304 215.72977,428.6407 218.51984,431.15739 221.67798,430.99568 233.53036,430.38878 241.59179,418.07337 251.73001,411.9038 262.332,405.45201 273.04527,399.17626 283.90337,393.16547 290.77527,389.36135 303.46547,389.95198 304.76302,382.20532 305.21752,379.49186 301.45138,377.63346 299.10617,376.19491 294.8146,373.56248 289.61983,371.44868 284.61048,371.95227 267.511,373.67128 254.27508,388.11463 239.00209,395.9939 226.68338,402.34907 204.28038,401.08041 201.87899,414.73223 Z"
 style="fill:#000000;stroke:none;stroke-width:1px;stroke-linecap:butt;stroke-linejoin:miter;stroke-opacity:1;fill-opacity:1" />
<path
 id="path2254"
 d="M 239.7092,266.94691 C 238.99663,274.13529 248.13023,279.05136 249.96225,286.0388 252.95174,297.44088 250.43246,309.60904 250.66935,321.39413 250.90387,333.06142 250.86512,344.73748 251.37646,356.39592 251.75947,365.12839 253.00267,373.81915 253.14423,382.55887 253.25309,389.27964 246.66181,399.27246 252.43712,402.71141 258.42853,406.27904 267.1567,398.24142 270.46834,392.10481 275.00735,383.69383 268.67399,373.017 269.05413,363.46699 269.30936,357.05486 270.94292,350.76549 271.529,344.3751 272.32664,335.67789 272.09693,326.90477 272.94322,318.21215 273.84277,308.97249 277.98149,299.84693 276.8323,290.63499 276.13876,285.0755 273.47689,279.8049 270.46834,275.07864 267.10945,269.80201 263.16748,264.40004 257.74042,261.29006 254.39099,259.37067 250.07569,257.55513 246.42671,258.81518 243.10343,259.96276 240.05602,263.44822 239.7092,266.94691 Z"
 style="fill:#000000;stroke:none;stroke-width:1px;stroke-linecap:butt;stroke-linejoin:miter;stroke-opacity:1;fill-opacity:1" />
<path
 id="path2256"
 d="M 318.19805,352.50683 C 312.91236,352.52488 311.76013,360.89541 308.37698,364.95658 302.81525,371.63294 296.98973,378.08665 291.16378,384.53374 282.2769,394.36811 273.25642,404.08346 264.10438,413.67157 249.70216,428.76001 236.02575,444.65835 220.28153,458.34062 209.32976,467.85808 197.36832,476.19542 185.26198,484.19291 177.65445,489.21847 169.48326,493.33605 161.68481,498.05992 157.33615,500.6941 151.25908,501.71327 148.74242,506.13098 146.90526,509.35591 147.80127,513.61612 148.49242,517.26271 149.23015,521.15504 151.12706,524.78096 153.08862,528.22287 155.63283,532.68715 157.61013,538.45582 162.28101,540.59724 165.04217,541.86313 168.62771,541.24698 171.36984,539.94038 175.57883,537.93483 178.00098,533.35928 180.94091,529.74063 185.50371,524.12446 189.02632,517.72885 193.3937,511.95941 199.91481,503.34482 206.8721,495.06368 213.8998,486.85712 221.98137,477.41991 230.34982,468.22903 238.79498,459.11574 248.9433,448.16454 259.55265,437.64807 269.76124,426.75304 280.36909,415.43191 291.35227,404.42392 301.22749,392.45837 308.78913,383.29613 319.74574,375.39043 322.44069,363.82054 323.03851,361.25401 322.11855,358.44066 321.02648,356.04237 320.40104,354.66883 319.70727,352.50167 318.19805,352.50683 Z"
 style="fill:#000000;stroke:none;stroke-width:1px;stroke-linecap:butt;stroke-linejoin:miter;stroke-opacity:1;fill-opacity:1" />
<path
 id="path2258"
 d="M 269.05413,432.4099 C 256.40135,445.17449 254.47038,465.35029 245.36605,480.84671 237.73167,493.84114 229.70681,506.82921 219.55665,517.96982 208.96727,529.59252 186.85225,533.01488 183.49421,548.37541 183.02132,550.53855 184.4531,553.1994 186.32264,554.38582 189.2083,556.21708 193.3748,555.5837 196.57568,554.38582 204.47734,551.42873 209.76618,543.79825 215.66757,537.76881 223.39355,529.87519 230.13056,521.05565 236.88077,512.31296 244.31555,502.68363 251.51422,492.84711 258.09397,482.61448 264.86153,472.08977 272.08763,461.66589 276.8323,450.08757 278.95672,444.90339 282.24164,439.30386 281.07494,433.82411 280.60351,431.60989 279.04344,429.00646 276.8323,428.52081 274.00103,427.89896 271.09482,430.35117 269.05413,432.4099 Z"
 style="fill:#000000;stroke:none;stroke-width:1px;stroke-linecap:butt;stroke-linejoin:miter;stroke-opacity:1;fill-opacity:1" />
<path
 id="path2260"
 d="M 287.90337,436.12005 C 281.51757,440.06435 302.91794,435.70697 310.41988,435.94543 317.03302,436.15564 323.76552,435.89949 330.21887,437.35965 336.51574,438.78441 345.47096,438.60345 348.25009,444.43071 350.43212,449.00599 345.53588,454.21975 343.65389,458.9264 335.76759,478.64915 326.01131,497.61886 315.72318,516.20205 306.37853,533.08105 297.26838,550.34472 285.10007,565.31654 274.19794,578.73046 264.63569,598.05018 247.63382,601.16883 237.13349,603.0949 224.78943,597.03419 218.14244,588.6805 215.61681,585.50638 216.03584,576.69522 216.03584,576.69522 208.36419,583.50558 213.45261,597.1917 214.25335,607.41883 214.74943,613.75487 216.71088,619.89746 218.30665,626.04929 220.20326,633.36086 217.89283,644.82358 224.85996,647.74168 231.1657,650.38277 237.60233,642.3752 243.0125,638.19574 258.0243,626.59884 269.42398,610.89121 281.36048,596.14801 291.31569,583.85197 300.14847,570.67692 309.00566,557.5678 318.4276,543.62281 327.29595,529.30804 336.10795,514.96982 345.18469,500.20084 354.53375,485.56478 362.64527,470.24442 366.15193,463.62133 372.65673,457.36729 372.18817,449.88782 371.79216,443.5664 366.77879,438.02512 362.03867,433.82411 357.64765,429.93249 351.86936,427.52552 346.13613,426.27817 335.14154,423.88612 323.43429,424.64913 312.38434,426.77081 303.80589,428.41795 296.2414,430.96992 287.90337,436.12005 Z"
 style="fill:#000000;stroke:none;stroke-width:1px;stroke-linecap:butt;stroke-linejoin:miter;stroke-opacity:1;fill-opacity:1" />
<path
 id="path2262"
 d="M 293.09881,482.00483 C 284.95968,491.72673 278.03411,502.41118 270.11479,512.31296 258.4657,526.87819 247.88519,542.58295 234.05234,555.09292 215.94179,571.4715 195.25125,585.17842 173.59471,596.45867 165.88766,600.47305 157.88478,605.36765 149.19953,605.65106 141.84894,605.89092 125.99705,590.54175 128.08988,599.2338 128.59606,601.33609 131.44257,604.52397 133.41831,606.94395 136.08376,610.20872 138.97403,613.32233 142.17136,616.06832 145.98392,619.34269 149.68418,623.31543 154.50283,624.74294 157.55584,625.64739 160.97371,625.21575 164.04877,624.38939 174.48614,621.58457 183.759,615.27786 192.6866,609.18659 205.38921,600.51965 216.87271,590.06587 227.68838,579.13456 243.27879,563.37746 256.79472,545.66934 270.46834,528.22287 281.81018,513.75158 294.23841,499.84218 302.99525,483.67514 306.56567,477.08337 308.84585,473.13123 310.96277,462.64392 312.50067,455.02511 298.73565,475.27183 293.09881,482.00483 Z"
 style="fill:#000000;stroke:none;stroke-width:1px;stroke-linecap:butt;stroke-linejoin:miter;stroke-opacity:1;fill-opacity:1" />
<path
 id="path2264"
 d="M 355.63918,388.98349 C 354.37122,394.4217 364.00652,396.38433 368.04908,400.23654 372.80774,404.77113 376.82038,410.12201 381.98411,414.18934 385.90044,417.27413 389.87174,420.94606 394.74756,421.98528 400.61485,423.23582 407.83339,423.32873 412.59681,419.68198 415.53369,417.43358 416.92135,413.12675 416.83945,409.42893 416.75306,405.52832 414.43669,401.77784 411.8897,398.82233 407.51479,393.74571 401.16528,390.62857 395.12624,387.72308 389.03518,384.79257 382.57912,381.18027 375.82725,381.49821 371.517,381.70118 367.99986,385.16393 363.93512,386.61217 361.22588,387.57745 356.29224,386.18255 355.63918,388.98349 Z"
 style="fill:#000000;stroke:none;stroke-width:1px;stroke-linecap:butt;stroke-linejoin:miter;stroke-opacity:1;fill-opacity:1" />
<path
 id="path2266"
 d="M 146.2645,455.76219 C 153.12533,456.15048 160.15164,454.68778 166.8772,456.09798 174.63181,457.72395 181.86732,461.44975 188.79751,465.29036 202.554,472.91401 214.8877,482.89992 227.33483,492.51397 235.8734,499.10908 243.48015,506.86332 252.08357,513.37362 263.00679,521.63933 274.66408,528.89073 286.11048,536.41526 298.34726,544.45936 310.64088,552.42536 323.1478,560.04267 338.97843,569.68427 354.17947,580.70614 371.23106,587.97339 384.19894,593.5002 397.80432,600.41956 411.87929,599.64065 417.78717,599.31371 422.64064,594.62862 428.29655,592.89065 433.19874,591.38429 438.28734,590.52204 443.35595,589.74116 453.41794,588.191 463.70358,588.37295 473.74682,586.70562 481.2274,585.46373 490.71406,583.615 495.89937,581.531 509.6387,576.0091 470.35378,576.0003 457.74199,572.59597 422.19835,563.00158 386.3916,553.74088 352.13918,540.24368 332.69508,532.58172 314.62907,521.79995 295.77774,512.77743 284.65962,507.45614 272.87456,503.40168 262.31149,497.04951 252.21189,490.97605 243.8762,482.30828 234.02722,475.83631 221.55676,467.64172 209.24516,458.55397 195.16147,453.6231 182.8232,449.30332 169.4551,446.75194 156.40969,447.59493 148.24375,448.12261 140.23928,448.97355 132.83988,454.45889 130.39664,456.27012 141.77577,455.50815 146.2645,455.76219 Z"
 style="fill:#000000;stroke:none;stroke-width:1px;stroke-linecap:butt;stroke-linejoin:miter;stroke-opacity:1;fill-opacity:1" />
</g>
</svg>
