<?xml version="1.0" encoding="UTF-8" standalone="no"?>
<svg
 xmlns:dc="http://purl.org/dc/elements/1.1/"
 xmlns:cc="http://creativecommons.org/ns#"
 xmlns:rdf="http://www.w3.org/1999/02/22-rdf-syntax-ns#"
 xmlns:svg="http://www.w3.org/2000/svg"
 xmlns="http://www.w3.org/2000/svg"
 id="svg8"
 version="1.1"
 viewBox="0 0 512 512"
 height="512"
 width="512">
<defs
 id="defs2" />
<metadata
 id="metadata5">
<rdf:RDF>
<cc:Work
 rdf:about="">
<dc:format>image/svg+xml</dc:format>
<dc:type
 rdf:resource="http://purl.org/dc/dcmitype/StillImage" />
<dc:title></dc:title>
</cc:Work>
</rdf:RDF>
</metadata>
<g
 transform="translate(0,-161.53331)"
 id="layer1">
<path
 id="path1476"
 d="M 184.10061,248.81361 C 187.05574,247.99508 189.9174,250.75684 192.82773,251.72265 198.05171,253.45625 203.04551,256.2156 208.50659,256.90259 215.43249,257.77386 222.44489,256.07474 229.39851,255.46284 237.17031,254.77895 244.97508,254.25167 252.67082,252.96938 258.83638,251.94206 264.99784,250.70234 270.95621,248.81361 276.6263,247.01626 281.77477,243.77854 287.45757,242.02177 290.08422,241.20977 292.7765,240.33524 295.52567,240.30905 299.22749,240.27377 303.09425,240.80551 306.43151,242.40782 309.97945,244.11128 313.06643,246.90812 315.42295,250.06034 316.23984,251.15307 317.31514,252.45572 317.08526,253.80053 316.50736,257.18123 312.98674,259.55922 310.02045,261.28092 301.88414,266.00341 291.75896,265.81476 282.59236,267.93015 272.50506,270.25801 262.42046,272.61958 252.25524,274.57938 245.63618,275.8555 238.88347,276.42159 232.30755,277.904 226.40478,279.23466 220.73385,281.46526 214.85331,282.89092 212.10747,283.55661 209.28108,285.24531 206.54177,284.55323 199.38819,282.74589 194.55819,275.79822 189.50312,270.42361 186.44688,267.17418 183.92876,263.42775 181.60715,259.61861 180.63991,258.03162 178.88661,256.47628 179.11369,254.63169 179.42578,252.09654 181.63901,249.49544 184.10061,248.81361 Z"
 style="fill:#000000;stroke:none;stroke-width:1px;stroke-linecap:butt;stroke-linejoin:miter;stroke-opacity:1;fill-opacity:1" />
<path
 id="path1478"
 d="M 121.65693,295.33894 C 125.35091,292.4818 131.25463,295.67625 135.46822,297.6898 139.47563,299.60483 142.40047,303.2853 145.45937,306.50552 148.82026,310.04366 151.90538,313.87702 154.56895,317.96595 158.25178,323.61958 161.35986,329.6702 163.97238,335.89125 167.67851,344.71645 169.91783,354.08865 172.7881,363.21998 175.79848,372.79704 179.32277,382.24153 181.60382,392.018 183.54308,400.32956 184.79416,408.80506 185.71783,417.28973 186.29116,422.5562 188.18656,428.10378 186.5994,433.15802 185.7423,435.88742 183.99947,438.94161 181.30997,439.91674 178.67301,440.87282 175.14212,440.05712 173.08196,438.1536 168.05155,433.50566 169.13591,425.03625 167.20482,418.46516 163.72605,406.62762 161.14934,394.49895 156.91981,382.90842 153.61273,373.84577 150.24563,364.66253 145.16552,356.46126 141.68506,350.84245 136.61962,346.37267 132.52966,341.18068 130.71125,338.8723 128.51794,336.77436 127.24022,334.12811 125.39108,330.2984 124.96395,325.92997 124.00778,321.7861 122.77253,316.43269 121.08257,311.10943 120.77536,305.62395 120.58296,302.18842 118.93516,297.44412 121.65693,295.33894 Z"
 style="fill:#000000;stroke:none;stroke-width:1px;stroke-linecap:butt;stroke-linejoin:miter;stroke-opacity:1;fill-opacity:1" />
<path
 id="path1480"
 d="M 178.37139,305.62394 C 180.53304,306.64654 182.01563,308.88205 184.24854,309.73795 188.02632,311.18602 192.25129,311.26429 196.29669,311.20723 203.52722,311.10524 210.59682,309.04616 217.74827,307.9748 226.95462,306.59559 236.1609,305.21574 245.37086,303.8608 256.82831,302.17521 268.37765,301.04118 279.75217,298.86523 288.05954,297.27603 296.24764,295.10605 304.43618,292.98808 311.13173,291.25628 317.8275,289.49967 324.41848,287.40479 327.19399,286.52262 329.73683,284.59098 332.64649,284.46622 334.56918,284.38378 336.47071,285.15498 338.22978,285.9355 340.68831,287.02638 342.80029,288.77935 344.9885,290.34336 348.22454,292.6563 351.62065,294.83645 354.39193,297.6898 357.27199,300.65516 360.90741,303.63155 361.73837,307.68095 363.55808,316.54869 358.25215,325.48288 355.56735,334.12811 353.41485,341.05931 350.13226,347.59034 347.63321,354.40426 343.78276,364.9029 340.36632,375.5557 336.76049,386.14085 332.62536,398.27978 331.18674,411.6868 324.41848,422.57916 322.0058,426.46196 319.24699,431.63277 314.72119,432.27645 312.50766,432.59127 309.89928,431.01514 308.84404,429.04402 306.66334,424.97061 309.6497,419.83832 310.01947,415.23273 310.43613,410.04318 311.85294,404.82278 311.19491,399.65829 310.083,390.93164 305.30258,383.07542 302.67304,374.68041 302.24674,373.31941 300.49688,371.58258 301.49761,370.56642 303.34824,368.68724 306.58507,371.96071 309.1379,372.62341 312.6561,373.53671 316.4078,376.77233 319.71676,375.26813 324.22322,373.21956 324.78876,366.69856 326.47548,362.04455 329.04217,354.96253 329.83091,347.35732 331.47106,340.00526 333.26156,331.97921 335.423,324.02279 336.76049,315.90895 337.19329,313.28339 337.9782,310.61448 337.64206,307.9748 337.364,305.79123 337.14298,302.99386 335.2912,301.8038 332.7314,300.15873 329.19053,301.93835 326.18163,302.39151 314.92834,304.08633 304.02223,307.58993 292.97575,310.32566 285.31959,312.22176 277.7466,314.45655 270.05488,316.20281 260.21986,318.43567 250.23138,319.94205 240.37529,322.07996 231.6217,323.97873 222.4006,324.59842 214.22199,328.25096 208.11851,330.97676 203.18328,335.79537 197.76598,339.71139 196.17831,340.85908 195.02316,343.26196 193.06425,343.23768 190.69326,343.20829 189.12065,340.54269 187.48097,338.82982 183.8904,335.07898 181.17378,330.56519 178.37139,326.19396 176.54848,323.35054 174.81862,320.43215 173.37582,317.37824 172.21023,314.91108 170.8075,312.44135 170.43725,309.73795 170.15687,307.69075 169.32122,304.73608 171.02496,303.56694 173.12174,302.12808 176.07264,304.53648 178.37139,305.62394 Z"
 style="fill:#000000;stroke:none;stroke-width:1px;stroke-linecap:butt;stroke-linejoin:miter;stroke-opacity:1;fill-opacity:1" />
<path
 id="path1482"
 d="M 195.12127,367.9217 C 199.59547,364.57611 206.39976,368.46344 211.87112,367.33398 220.31513,365.59089 227.88112,360.92241 235.96743,357.93055 243.75386,355.04964 251.40645,351.65456 259.47601,349.70254 262.93635,348.86549 266.4994,348.41529 270.05488,348.23326 272.7957,348.09293 275.61329,347.89062 278.28288,348.52711 281.01133,349.17764 283.92791,350.08196 285.92317,352.0534 287.54383,353.65471 289.0356,355.95273 288.86175,358.22441 288.63579,361.17712 286.18842,363.73326 283.86617,365.57084 281.07013,367.78333 277.20115,368.10653 273.87502,369.39098 264.06712,373.17851 254.23273,376.90101 244.48929,380.85141 237.00377,383.88636 230.15498,389.13133 222.15613,390.25485 217.27132,390.94097 212.07705,390.23673 207.46327,388.49171 204.23575,387.271 201.47193,384.96051 198.9414,382.61456 196.54063,380.3889 193.35273,378.19578 192.77041,374.97427 192.32962,372.53577 193.13671,369.40565 195.12127,367.9217 Z"
 style="fill:#000000;stroke:none;stroke-width:1px;stroke-linecap:butt;stroke-linejoin:miter;stroke-opacity:1;fill-opacity:1" />
<path
 id="path1484"
 d="M 145.45937,429.63173 C 148.50204,426.16429 154.69865,429.36473 159.27067,428.75016 165.51552,427.91073 171.58312,426.05065 177.78368,424.93002 187.83101,423.11416 197.97447,421.87454 208.05098,420.2283 214.91665,419.10663 221.82475,418.1875 228.62099,416.70201 237.53434,414.75378 246.24251,411.96278 255.06815,409.64944 261.52587,407.95677 267.85249,405.58761 274.46274,404.65386 281.25478,403.69443 288.27921,402.8653 295.03275,404.06614 300.74553,405.08194 306.92504,406.60214 311.19491,410.531 312.16198,411.42084 312.58585,412.79693 312.95805,414.0573 313.46048,415.75865 314.49213,417.84625 313.54576,419.34673 312.27327,421.36425 309.1507,421.37701 306.78704,421.69759 302.31263,422.30444 297.77797,420.56422 293.26961,420.81601 282.14273,421.43744 271.30286,424.59684 260.35759,426.69316 251.71637,428.34819 243.01213,429.76405 234.49814,431.98259 227.93314,433.69328 221.41181,435.65727 215.10356,438.1536 208.34089,440.82975 201.90262,444.2695 195.41512,447.55703 191.34964,449.61721 187.46397,452.02512 183.36697,454.02189 180.96202,455.194 178.69498,457.18373 176.02053,457.25433 172.14688,457.35657 168.4727,455.13051 165.14782,453.14032 160.79928,450.53739 157.27018,446.73365 153.68738,443.14917 150.84068,440.30113 147.28996,437.76162 145.75323,434.03959 145.19127,432.67849 144.48813,430.73857 145.45937,429.63173 Z"
 style="fill:#000000;stroke:none;stroke-width:1px;stroke-linecap:butt;stroke-linejoin:miter;stroke-opacity:1;fill-opacity:1" />
<path
 id="path1486"
 d="M 232.14728,203.94931 C 233.21957,202.30977 235.06379,201.22979 236.849,200.42302 239.03726,199.43411 241.53913,199.38411 243.90158,198.95374 247.02272,198.38516 250.14621,197.18986 253.30501,197.48445 256.51311,197.78364 259.53394,199.27352 262.41459,200.71688 263.99336,201.50793 265.40097,202.60776 266.82245,203.65546 268.44797,204.85355 270.35311,205.83049 271.52416,207.4756 272.85391,209.34366 273.68531,211.65531 273.87502,213.94046 274.09755,216.62092 273.19648,219.30379 272.40574,221.87461 271.11628,226.06682 268.29938,229.69929 267.1163,233.92276 265.91681,238.2048 265.83976,242.72618 265.35316,247.14634 264.85825,251.642 264.46063,256.14982 264.17773,260.66378 263.69948,268.29475 263.48808,275.94112 263.29616,283.58465 263.08716,291.90856 263.286,300.24082 263.0023,308.56252 262.58781,320.7209 261.74309,332.86158 260.9453,345.00083 260.42997,352.84212 259.59513,360.66207 259.18216,368.50941 258.33241,384.65664 257.80382,400.82655 257.71287,416.99587 257.65502,427.28258 257.96442,437.56951 258.30058,447.85089 258.78445,462.64968 259.93508,477.42267 260.35758,492.22334 260.87749,510.43613 261.10756,528.66132 260.9453,546.88081 260.82313,560.5992 260.89419,574.34804 259.76987,588.02083 259.23515,594.52357 258.56322,601.05117 257.12515,607.41541 256.06004,612.12911 255.56334,617.32113 252.7173,621.2267 251.72481,622.58868 250.19234,623.60406 248.6033,624.16528 247.03044,624.72078 245.10736,625.18956 243.60772,624.45914 240.82295,623.10277 239.814,619.53132 238.31829,616.81885 235.90235,612.43755 234.74914,607.44666 232.44114,603.00755 230.04631,598.40144 227.65438,593.67104 224.21313,589.78398 221.2116,586.3936 217.27586,583.95333 213.63427,581.26211 210.40065,578.87239 206.9811,576.74503 203.64312,574.50339 201.59076,573.12512 197.76122,572.84463 197.47212,570.38939 197.25328,568.53085 199.69421,567.2492 201.29226,566.27539 205.02646,563.99987 209.60738,563.42239 213.92813,562.7491 216.5431,562.34162 219.2158,562.43812 221.86227,562.45524 225.78519,562.48062 229.71624,562.62184 233.61657,563.04296 235.98608,563.2988 238.62737,565.4477 240.66914,564.21839 242.52671,563.09998 242.40024,560.19102 242.72615,558.04738 245.67128,538.67558 241.93262,518.8666 241.55072,499.27592 241.24903,483.79958 240.67006,468.32574 240.66914,452.84646 240.66821,437.26925 241.23811,421.69722 241.55072,406.12315 241.73554,396.91539 241.82962,387.705 242.13843,378.50056 242.92752,354.98053 244.38841,331.48755 245.37086,307.9748 245.80463,297.59351 246.28017,287.21287 246.54629,276.82593 246.91763,262.3324 246.50026,247.81947 247.13401,233.33504 247.24993,230.68562 247.88532,228.04781 247.72172,225.4009 247.56766,222.90835 247.65927,220.11779 246.25243,218.05446 244.41564,215.36056 240.8312,214.42423 238.02443,212.76503 235.7229,211.40451 232.06604,211.38432 230.97185,208.94489 230.27174,207.38405 231.21095,205.38097 232.14728,203.94931 Z"
 style="fill:#000000;stroke:none;stroke-width:1px;stroke-linecap:butt;stroke-linejoin:miter;stroke-opacity:1;fill-opacity:1" />
<path
 id="path1488"
 d="M 108.78374,562.2001 C 112.00837,563.92752 115.12337,566.1861 118.71836,566.8631 123.0597,567.68065 127.69598,567.20111 131.94194,565.98153 137.71254,564.32403 142.93195,560.95961 147.81023,557.45967 156.20022,551.44023 163.32158,543.78478 170.43725,536.30194 181.83686,524.3141 191.91643,511.13524 202.46769,498.39435 213.57158,484.98613 223.15967,470.24153 235.3797,457.84204 240.84658,452.29489 246.20966,439.64382 253.30501,442.85531 256.96482,444.51182 254.32585,450.95254 253.59887,454.90346 252.75619,459.48319 250.66964,463.81904 248.30943,467.83319 247.03783,469.99586 245.08282,471.68101 243.60772,473.71034 240.78037,477.59998 238.5496,481.90471 235.67356,485.75849 228.39747,495.50817 220.05486,504.41492 212.16499,513.67493 200.00328,527.9486 188.41913,542.75646 175.43282,556.28424 168.18598,563.83324 160.59526,571.09021 152.51195,577.73583 147.09444,582.18977 141.49765,586.5005 135.43564,590.02741 130.32306,593.00194 124.95322,599.18376 119.30606,597.42426 115.32443,596.1837 114.36757,590.03134 112.90856,586.67237 110.45422,581.02192 109.57838,577.62561 108.2101,573.00728 106.9271,568.67682 100.97677,558.33569 104.92489,559.86202 106.96342,560.65011 107.45801,561.48991 108.78374,562.2001 Z"
 style="fill:#000000;fill-opacity:1;stroke:none;stroke-width:1px;stroke-linecap:butt;stroke-linejoin:miter;stroke-opacity:1" />
<path
 id="path1490"
 d="M 256.24359,441.97374 C 260.73797,435.2138 272.11405,446.17831 279.16446,450.20175 288.89162,455.75274 296.04242,464.96272 305.0239,471.65333 314.08711,478.40482 323.37568,484.93445 333.2342,490.4602 342.17992,495.47432 351.78006,499.22346 361.15065,503.38992 373.70227,508.97076 386.25508,514.57533 399.05824,519.55207 411.15681,524.25493 423.55623,528.14393 435.79041,532.4818 444.02511,535.40157 452.46393,537.80935 460.47442,541.29752 463.20581,542.4869 468.21154,542.43894 468.40857,545.41152 468.64581,548.99065 462.79698,549.97007 459.59285,551.58252 447.41842,557.70921 433.6951,560.08909 420.80368,564.51224 415.79283,566.2315 411.05164,570.61564 405.81696,569.80168 396.83483,568.40501 391.28541,558.87641 384.07151,553.34566 373.9334,545.57298 363.7365,537.8711 353.80421,529.83708 344.3457,522.18629 335.1692,514.19316 325.88777,506.32849 316.55803,498.42289 307.05051,490.71818 297.97132,482.52605 289.12403,474.54316 280.94876,465.83646 272.11188,457.84204 270.10279,456.02449 267.88824,454.43614 265.94088,452.5526 262.50245,449.22687 253.59509,445.95731 256.24359,441.97374 Z"
 style="fill:#000000;stroke:none;stroke-width:1px;stroke-linecap:butt;stroke-linejoin:miter;stroke-opacity:1;fill-opacity:1" />
</g>
</svg>
