<?xml version="1.0" encoding="UTF-8" standalone="no"?>
<svg
 xmlns:dc="http://purl.org/dc/elements/1.1/"
 xmlns:cc="http://creativecommons.org/ns#"
 xmlns:rdf="http://www.w3.org/1999/02/22-rdf-syntax-ns#"
 xmlns:svg="http://www.w3.org/2000/svg"
 xmlns="http://www.w3.org/2000/svg"
 id="svg8"
 version="1.1"
 viewBox="0 0 512 512"
 height="512"
 width="512">
<defs
 id="defs2" />
<metadata
 id="metadata5">
<rdf:RDF>
<cc:Work
 rdf:about="">
<dc:format>image/svg+xml</dc:format>
<dc:type
 rdf:resource="http://purl.org/dc/dcmitype/StillImage" />
<dc:title></dc:title>
</cc:Work>
</rdf:RDF>
</metadata>
<g
 transform="translate(0,-161.53331)"
 id="layer1">
<path
 id="path1705"
 d="M 64.480692,235.06461 C 70.423247,231.36931 78.119969,231.40913 85.114513,231.19576 88.578635,231.09008 92.071404,231.63593 95.431424,232.48538 103.48038,234.52025 110.9673,238.35237 118.64447,241.51268 123.6292,243.56465 128.92072,245.07692 133.47503,247.96074 137.33573,250.40536 140.77887,253.55255 143.79194,256.98804 145.8359,259.31855 147.81047,261.84308 148.9504,264.72572 150.39275,268.3731 150.77797,272.4115 150.88482,276.33225 150.96435,279.25065 151.67814,282.7082 149.91761,285.03714 148.02821,287.53656 144.27227,287.9083 141.21271,288.58358 136.80015,289.55749 132.12511,289.99452 127.67177,289.22839 122.63677,288.36219 117.9872,285.84192 113.48602,283.42513 107.76102,280.35125 102.49639,276.45112 97.365844,272.46341 94.420377,270.17405 91.640992,267.66613 88.983355,265.04813 85.460762,261.57807 82.403717,257.66253 78.988847,254.08641 75.73505,250.67898 72.325843,247.4234 68.99434,244.0919 66.844984,241.94254 62.761746,240.67583 62.546271,237.64383 62.470089,236.57186 63.568073,235.63211 64.480692,235.06461 Z"
 style="fill:#000000;stroke:none;stroke-width:1px;stroke-linecap:butt;stroke-linejoin:miter;stroke-opacity:1;fill-opacity:1" />
<path
 id="path1707"
 d="M 23.213049,336.29929 C 20.093321,338.86346 19.768203,343.60434 18.054594,347.26101 16.544863,350.48262 13.530722,353.37531 13.540945,356.93311 13.553929,361.45186 17.15466,365.23159 19.344208,369.18445 22.435435,374.76514 25.864333,380.1778 29.661118,385.30462 34.198114,391.43095 39.276232,397.15424 44.491677,402.7144 47.767357,406.20658 50.06416,412.06406 54.808588,412.70891 58.811486,413.25298 62.003319,409.01612 65.447902,406.90565 69.667136,404.32057 74.512423,402.3085 77.699234,398.52316 80.362815,395.35931 82.129641,391.31022 82.857689,387.23903 83.616546,382.99557 83.226755,378.44134 81.890478,374.3429 80.753423,370.85548 78.575787,367.68801 76.087216,364.9932 74.366477,363.12986 72.28935,361.48669 69.961551,360.47955 65.047734,358.35356 59.261367,359.21501 54.163781,357.57792 50.318917,356.34314 46.586626,354.62228 43.202063,352.41947 39.626344,350.09224 36.593609,347.00612 33.52996,344.03698 30.799329,341.39058 29.435877,336.74258 25.792277,335.65449 24.94313,335.40091 23.897675,335.73658 23.213049,336.29929 Z"
 style="fill:#000000;stroke:none;stroke-width:1px;stroke-linecap:butt;stroke-linejoin:miter;stroke-opacity:1;fill-opacity:1" />
<path
 id="path1709"
 d="M 29.016311,512.33158 C 25.745186,513.25303 26.046175,518.61475 25.792277,522.00368 25.417402,527.00738 26.136885,532.34158 28.371504,536.83424 30.335526,540.78287 33.913785,543.8038 37.398801,546.50635 39.527006,548.15672 42.353403,548.73789 44.491677,550.37519 49.923158,554.53415 53.824861,560.38387 58.677429,565.20575 62.452257,568.9567 65.59853,573.64442 70.283954,576.16747 73.588932,577.94716 77.829084,580.30139 81.245672,578.74669 85.227422,576.93481 85.413579,571.05225 87.371338,567.14017 90.404741,561.07868 93.700198,555.11122 96.076231,548.76317 100.81109,536.11304 103.27022,522.72344 107.03795,509.75235 110.79362,496.8228 115.3862,484.1277 118.64447,471.06394 120.76625,462.55686 129.0297,438.68662 123.80293,445.27166 113.02611,458.84901 109.04194,465.48131 101.23469,475.25518 93.763092,484.60884 86.906097,494.63564 78.021637,502.65948 71.252249,508.77313 63.648614,514.12987 55.453395,518.13484 50.995115,520.31358 46.134886,523.61447 41.267643,522.64849 36.030891,521.60917 34.155207,510.884 29.016311,512.33158 Z"
 style="fill:#000000;stroke:none;stroke-width:1px;stroke-linecap:butt;stroke-linejoin:miter;stroke-opacity:1;fill-opacity:1" />
<path
 id="path1711"
 d="M 224.39281,238.28864 C 219.17071,245.20242 227.5575,255.41679 227.61684,264.08092 227.68349,273.81232 227.14902,283.76407 224.39281,293.09723 221.80654,301.85493 216.43856,309.54252 212.14148,317.59989 207.83845,325.66842 201.55556,332.80414 198.60053,341.45775 197.61825,344.33431 194.92102,348.60678 197.31092,350.48504 202.7712,354.77635 211.34551,347.22374 216.65512,342.74736 225.13835,335.59539 228.23087,323.81407 234.06491,314.37586 241.12064,302.96122 251.33392,293.00735 255.34354,280.20109 256.62958,276.09363 257.26785,271.41445 255.98835,267.30495 252.20556,255.15538 244.58173,241.74558 232.7753,236.99903 230.1523,235.9445 226.0967,236.03278 224.39281,238.28864 Z"
 style="fill:#000000;stroke:none;stroke-width:1px;stroke-linecap:butt;stroke-linejoin:miter;stroke-opacity:1;fill-opacity:1" />
<path
 id="path1715"
 d="M 178.2363,308.02949 C 174.90305,309.93541 173.94472,315.29871 174.83289,319.03425 176.10217,324.37264 183.07387,326.41751 186.25449,330.88888 189.46544,335.4029 190.22429,341.45741 193.77762,345.70717 196.03938,348.41222 198.74,351.47922 202.21265,352.09043 208.55693,353.20707 214.23719,346.31321 220.67851,346.39109 234.06256,346.55291 246.73653,353.25568 258.75012,359.15762 269.66506,364.51982 279.39387,372.08183 289.07062,379.44727 296.01627,384.73394 302.23291,390.91652 308.90433,396.5453 317.11424,403.47213 325.01925,410.81016 333.75346,417.06293 344.35104,424.64968 355.88129,430.84231 367.03761,437.58056 376.10722,443.05847 385.13044,448.62437 394.39445,453.76669 402.03176,458.00606 409.83318,461.94637 417.64777,465.84929 425.03677,469.53965 431.87722,475.01098 439.98919,476.56406 442.15876,476.97944 444.45066,476.61615 446.60042,476.10811 454.73276,474.18625 462.28147,470.23025 469.73639,466.45498 478.42907,462.0529 487.58662,457.94814 494.77439,451.36961 499.84225,446.73131 515.77589,434.38539 506.92851,434.72475 490.64798,435.34923 475.68172,432.92878 460.31124,430.19098 445.38416,427.53215 430.76717,423.2376 416.30284,418.69114 401.5571,414.05624 386.96248,408.8284 372.79898,402.63856 356.26396,395.4123 340.40352,386.70897 324.54679,378.09564 314.00639,372.37013 303.71019,366.20343 293.40212,360.06951 284.13979,354.55786 275.20904,348.48758 265.8173,343.19946 259.03539,339.38083 252.0232,335.9851 245.0717,332.4847 236.90643,328.37311 228.78837,324.15141 220.45054,320.40209 215.88157,318.34753 211.31498,316.2311 206.54415,314.70275 201.48871,313.08322 196.20878,312.27344 191.04194,311.05517 186.77292,310.0486 182.04389,305.85235 178.2363,308.02949 Z"
 style="fill:#000000;stroke:none;stroke-width:1px;stroke-linecap:butt;stroke-linejoin:miter;stroke-opacity:1;fill-opacity:1" />
<path
 id="path1717"
 d="M 285.97187,274.72024 C 290.0781,272.61135 295.25676,273.60594 299.51281,271.8186 306.52059,268.87567 312.32846,263.63273 318.53462,259.24487 323.92255,255.43551 328.74603,250.82786 334.33239,247.31594 337.70979,245.1927 341.06775,241.01404 344.9717,241.83508 347.81316,242.43267 349.38423,245.90561 350.45256,248.60555 352.07806,252.71361 350.61906,257.4793 351.41977,261.8241 352.02983,265.13434 355.00792,268.20096 354.3214,271.4962 353.57487,275.07948 349.74212,277.21803 347.22853,279.87869 343.26106,284.0783 338.63312,287.61829 334.65479,291.80762 327.93636,298.88238 321.58298,306.32123 315.63299,314.05345 308.94287,322.74749 302.96579,331.97256 296.93359,341.13534 292.81818,347.38656 288.95409,353.79977 285.00466,360.15715 279.81077,368.51773 275.10042,377.19054 269.52929,385.30461 262.10784,396.11359 254.13812,406.56641 245.67143,416.57776 238.25766,425.34409 230.32579,433.67913 222.13598,441.72522 215.73124,448.01757 209.06062,454.05131 202.14697,459.77982 193.52405,466.9246 184.87698,474.14548 175.38748,480.09123 169.1561,483.99557 162.4829,487.1963 155.72087,490.08574 149.75122,492.63659 143.66702,495.06367 137.34387,496.53381 132.07253,497.7594 126.55568,499.39508 121.2237,498.46823 118.14589,497.93322 115.35126,496.13678 112.84121,494.27699 108.19924,490.83756 103.86274,486.67038 100.91228,481.70325 98.951012,478.40144 97.676355,474.56933 97.365844,470.74153 96.961537,465.75747 95.226202,458.29328 99.622669,455.91098 100.76437,455.29233 102.11518,456.76442 103.16911,457.52299 106.6252,460.01053 108.56496,464.19264 111.874,466.87269 116.25663,470.42226 120.82794,474.59907 126.38216,475.57759 133.60555,476.85017 140.96706,473.52426 147.98319,471.38634 158.80908,468.08753 169.67633,464.19323 179.25632,458.1678 193.69339,449.08746 205.62802,436.44053 217.62233,424.31544 229.30397,412.50643 240.47714,400.07271 250.18508,386.59423 257.92992,375.84132 263.98857,363.96305 270.4965,352.41946 276.65907,341.48848 281.78535,329.97978 288.22869,319.21191 290.21831,315.88693 293.93739,313.34342 294.67676,309.53981 295.28404,306.41571 294.17919,303.02987 292.74234,300.19011 290.78407,296.31983 286.55235,294.05199 284.03744,290.518 281.97366,287.61793 278.29642,284.67974 278.87899,281.1683 279.40195,278.01614 283.12956,276.17999 285.97187,274.72024 Z"
 style="fill:#000000;stroke:none;stroke-width:1px;stroke-linecap:butt;stroke-linejoin:miter;stroke-opacity:1;fill-opacity:1" />
<path
 id="path1719"
 d="M 176.03229,486.5393 C 181.18238,491.95281 187.43104,496.20298 193.11967,501.04746 198.28465,505.446 204.61786,508.76999 208.59504,514.266 212.74846,520.00555 214.28265,527.25693 216.65512,533.93261 220.75363,545.46505 223.69588,557.3765 227.29444,569.07459 228.88347,574.24017 228.38641,580.6525 232.13049,584.54996 234.34408,586.85423 237.98965,588.18935 241.15779,587.77399 244.91152,587.28185 248.82148,584.71562 250.50749,581.32592 254.86698,572.56124 250.85173,561.63891 249.21787,551.98721 247.34517,540.92463 244.18128,529.96448 239.54577,519.74686 236.87253,513.85448 232.93552,508.60777 229.22886,503.30428 225.41138,497.84223 222.30732,491.50658 216.97753,487.50651 213.00319,484.52372 207.79939,483.68134 203.11418,482.02566 198.01853,480.22493 192.64218,479.23277 187.63881,477.1896 182.61077,475.13636 178.41091,471.04551 173.13066,469.77432 170.20514,469.07002 165.55137,467.13653 164.10336,469.77432 162.75481,472.23094 167.01066,474.57085 168.61701,476.8672 170.94564,480.19608 173.23217,483.59595 176.03229,486.5393 Z"
 style="fill:#000000;stroke:none;stroke-width:1px;stroke-linecap:butt;stroke-linejoin:miter;stroke-opacity:1;fill-opacity:1" />
<path
 id="path1721"
 d="M 204.40379,492.34257 C 206.01876,483.59587 220.2357,484.12732 228.58405,481.05845 239.25324,477.13644 250.42977,474.74129 261.4692,472.03115 270.33317,469.85508 279.43299,468.66529 288.22869,466.22789 294.35305,464.53075 301.03033,463.67916 306.28329,460.10222 310.8214,457.01203 312.39933,450.64036 316.9226,447.52849 320.67479,444.94709 325.27351,442.72589 329.81874,443.01484 333.65587,443.25877 336.98721,445.96638 340.13564,448.17329 344.86649,451.48941 348.40947,456.24368 352.70939,460.10222 356.17101,463.20851 359.80981,466.11154 363.3487,469.12951 365.61036,471.05827 368.96768,472.19247 370.11917,474.93278 371.37091,477.91167 370.68814,481.61033 369.47436,484.60489 367.72724,488.91528 363.10988,491.43089 360.44707,495.2442 356.20387,501.3207 352.49828,507.81708 349.48535,514.58841 347.27486,519.55631 345.8225,524.83601 344.32689,530.06377 342.80694,535.3766 343.02563,541.29068 340.45805,546.18394 338.5132,549.89041 335.77327,553.57219 332.07556,555.53364 329.9676,556.65181 327.17012,557.45425 324.98269,556.50085 321.73014,555.08321 320.54265,550.91805 318.85702,547.79596 316.22132,542.91416 313.32976,537.83611 312.73135,532.3206 311.86235,524.3111 314.75984,516.30623 316.6002,508.46274 317.67952,503.86275 321.08425,499.63763 320.79144,494.92179 320.5649,491.27333 319.43889,484.64719 316.27779,484.92729 308.14224,485.64817 297.17353,491.09358 287.90629,494.92179 276.13283,499.78529 265.51601,507.40313 253.40912,511.36437 245.19593,514.05164 236.19778,518.74495 227.93925,516.20042 221.69373,514.27612 218.65899,506.9959 214.0759,502.33707 210.82467,499.0321 203.56202,496.9016 204.40379,492.34257 Z"
 style="fill:#000000;stroke:none;stroke-width:1px;stroke-linecap:butt;stroke-linejoin:miter;stroke-opacity:1;fill-opacity:1" />
<path
 id="path1723"
 d="M 229.87366,570.3642 C 228.04028,575.23946 230.95933,582.66472 235.67693,584.87236 249.19,591.1959 263.63065,574.06303 278.23419,571.00901 290.17609,568.51162 302.40217,565.0215 314.66578,562.94892 323.73494,561.41621 332.88089,559.32774 342.07007,559.72489 348.97674,560.02339 356.57749,567.67176 362.38149,563.91613 364.87702,562.30133 365.05152,558.09119 364.31591,555.21124 363.18501,550.7838 359.28869,547.10352 355.28861,544.89433 347.4782,540.58074 337.76983,540.4322 328.85153,540.70308 312.45836,541.20102 296.68316,547.20297 280.81341,551.3424 269.628,554.25998 258.33394,557.0318 247.60585,561.33691 241.45039,563.80705 232.20828,564.15606 229.87366,570.3642 Z"
 style="fill:#000000;stroke:none;stroke-width:1px;stroke-linecap:butt;stroke-linejoin:miter;stroke-opacity:1;fill-opacity:1" />
</g>
</svg>
