<?xml version="1.0" encoding="UTF-8" standalone="no"?>
<svg
 xmlns:dc="http://purl.org/dc/elements/1.1/"
 xmlns:cc="http://creativecommons.org/ns#"
 xmlns:rdf="http://www.w3.org/1999/02/22-rdf-syntax-ns#"
 xmlns:svg="http://www.w3.org/2000/svg"
 xmlns="http://www.w3.org/2000/svg"
 id="svg8"
 version="1.1"
 viewBox="0 0 512 512"
 height="512"
 width="512">
<defs
 id="defs2" />
<metadata
 id="metadata5">
<rdf:RDF>
<cc:Work
 rdf:about="">
<dc:format>image/svg+xml</dc:format>
<dc:type
 rdf:resource="http://purl.org/dc/dcmitype/StillImage" />
<dc:title></dc:title>
</cc:Work>
</rdf:RDF>
</metadata>
<g
 transform="translate(0,-161.53331)"
 id="layer1">
<path
 id="path2118"
 d="M 77.857143,279.96188 C 77.923563,284.59815 83.615751,287.30921 87.142857,290.31902 90.483691,293.16988 95.019851,294.44789 98.214286,297.46188 102.39688,301.40821 104.33007,307.32088 108.39285,311.39045 111.52189,314.52472 115.12278,317.31385 119.10714,319.2476 124.10914,321.67525 129.6216,323.89457 135.17858,323.71188 138.9604,323.58755 142.93564,322.32249 145.89286,319.96188 149.13259,317.37575 151.82652,313.51645 152.5,309.42617 153.12628,305.62255 151.65064,301.56934 149.82143,298.17616 147.84324,294.50661 144.62397,291.51751 141.25,289.06902 135.81924,285.12791 129.20601,283.13444 123.03572,280.49759 117.40437,278.09105 111.83328,275.37872 105.89286,273.89046 100.24945,272.47661 94.294534,270.70206 88.571429,271.7476 86.056985,272.20696 83.778836,273.71874 81.785714,275.31902 80.204893,276.58827 77.828103,277.93478 77.857143,279.96188 Z"
 style="fill:#000000;stroke:none;stroke-width:1px;stroke-linecap:butt;stroke-linejoin:miter;stroke-opacity:1;fill-opacity:1" />
<path
 id="path2120"
 d="M 59.285714,382.28331 C 56.004109,385.93982 62.415905,391.59899 64.107143,396.21188 66.546192,402.86444 68.33876,409.84267 71.785714,416.03331 75.631195,422.93969 79.65177,430.34953 86.071429,434.96188 89.281622,437.26832 93.369726,438.80705 97.321427,438.71188 100.44878,438.63657 104.30393,437.9001 106.07143,435.31902 108.08932,432.37229 106.76226,428.10872 106.07143,424.60474 105.10072,419.68113 102.90288,415.00092 100.35714,410.67617 98.037001,406.73468 95.082682,403.1318 91.785714,399.96188 87.520489,395.86102 82.500019,392.58987 77.5,389.42617 74.41687,387.47536 71.272949,385.52964 67.857143,384.2476 65.112862,383.2176 61.243536,380.10182 59.285714,382.28331 Z"
 style="fill:#000000;stroke:none;stroke-width:1px;stroke-linecap:butt;stroke-linejoin:miter;stroke-opacity:1;fill-opacity:1" />
<path
 id="path2122"
 d="M 84.107143,408.53331 C 88.104629,409.32036 89.729304,415.55473 89.285714,419.60474 89.073129,421.54566 86.78477,422.61467 85.714285,424.24759 82.88054,428.57018 80.107032,433.00941 78.214286,437.81902 76.506691,442.15815 75.537333,446.7827 74.821429,451.39045 73.521152,459.75938 73.29832,468.27867 73.214286,476.7476 73.132705,484.96924 73.881596,493.17834 74.285714,501.39045 74.552348,506.80873 74.593876,512.24722 75.178571,517.64046 75.698547,522.43672 75.734999,527.43626 77.5,531.92617 78.677764,534.92223 79.681156,539.43593 82.857143,539.96188 86.040182,540.48899 88.251036,536.34714 90.535715,534.06902 100.81292,523.82132 108.85219,511.51697 117.14286,499.60474 122.27536,492.23025 126.8533,484.48016 131.42857,476.7476 135.52674,469.82137 138.56793,462.24723 143.21429,455.67617 146.23378,451.40589 148.34318,443.75623 153.57143,443.89045 155.39288,443.93721 156.53526,446.40535 156.96429,448.17617 158.707,455.36915 154.3732,462.75742 152.67857,469.96188 150.36076,479.81568 147.45174,489.52239 144.64286,499.2476 141.57055,509.88487 138.21989,520.43978 135,531.03331 130.60289,545.49993 126.11176,559.93815 121.78571,574.42617 121.05817,576.86273 120.62561,579.40232 119.64286,581.7476 117.14034,587.71972 116.57207,597.68614 110.17858,598.71187 98.199419,600.63373 92.247821,582.3626 83.392861,574.06902 80.811673,571.65147 78.048006,569.40482 75.714286,566.7476 72.257502,562.81163 68.441316,558.90535 66.428571,554.06903 63.349094,546.66951 63.432194,538.29826 62.678572,530.31903 61.620207,519.11323 61.914565,507.8205 61.607143,496.56903 61.394113,488.77228 60.889098,480.9737 61.071429,473.17617 61.311344,462.91599 61.562345,452.59104 63.214286,442.46188 64.283246,435.90737 64.799897,428.87233 68.214286,423.17617 71.917749,416.99775 77.039463,407.14177 84.107143,408.53331 Z"
 style="fill:#000000;stroke:none;stroke-width:1px;stroke-linecap:butt;stroke-linejoin:miter;stroke-opacity:1;fill-opacity:1" />
<path
 id="path2124"
 d="M 246.07142,286.7476 C 251.18535,283.913 254.68482,295.50772 260.35714,296.92617 274.27397,300.40628 289.13334,294.92789 303.03571,291.39046 316.45864,287.97503 329.0918,281.93164 341.78572,276.39046 346.76289,274.21782 352.14923,272.59122 356.42857,269.24759 361.75544,265.08548 362.99421,255.67066 369.46428,253.71188 374.33182,252.23826 379.40559,256.05854 384.10714,257.99759 389.17953,260.08958 394.04001,262.7609 398.57143,265.85474 405.13004,270.33264 414.99371,273.47524 416.78572,281.21188 417.65173,284.95068 415.21119,289.44239 412.14286,291.7476 403.8846,297.95196 391.59422,294.02375 381.42857,295.85474 370.85536,297.75913 360.21097,299.65761 350,302.99759 336.62107,307.3738 324.13285,314.11063 311.25,319.78331 300.44744,324.53998 290.03969,330.2646 278.92857,334.2476 275.32633,335.53889 271.49227,338.47891 267.85715,337.28331 264.11284,336.0518 262.66915,331.31194 260.53571,327.99759 257.09188,322.64752 254.42858,316.8211 251.78571,311.03331 249.92167,306.95113 247.76733,302.91227 246.78572,298.53331 245.92482,294.69284 242.62908,288.65566 246.07142,286.7476 Z"
 style="fill:#000000;stroke:none;stroke-width:1px;stroke-linecap:butt;stroke-linejoin:miter;stroke-opacity:1;fill-opacity:1" />
<path
 id="path2126"
 d="M 364.28571,280.31902 C 360.44905,284.26623 360.76715,290.79935 358.21429,295.67617 353.23766,305.18319 346.46812,313.6411 340.35714,322.46188 332.46423,333.85474 324.60835,345.29326 316.07143,356.21188 306.88908,367.956 297.07955,379.20587 287.14286,390.31902 275.80375,403.00064 264.4006,415.66582 252.14286,427.46188 246.79282,432.61042 241.37358,437.75355 235.35714,442.10474 229.30216,446.4838 222.64427,449.97848 216.07143,453.53331 209.42147,457.12985 202.76235,460.79801 195.71429,463.53331 192.93972,464.6101 189.98638,465.15463 187.14286,466.03331 184.21141,466.93917 179.57571,466.0594 178.39286,468.89045 177.62318,470.73261 179.47926,473.04303 181.07143,474.2476 183.10098,475.78307 186.02789,475.76081 188.57143,475.67616 200.37464,475.28333 212.07553,471.56699 222.85715,466.74759 237.59732,460.15871 250.68779,450.14876 263.21429,439.96188 274.38242,430.87967 284.13595,420.15549 293.92857,409.60474 304.98792,397.6892 315.52492,385.27099 325.53571,372.46188 334.28339,361.26896 342.31216,349.52721 350.35714,337.81902 356.97656,328.18551 363.72449,318.6127 369.64286,308.53331 373.03992,302.74787 378.35072,297.36029 378.92857,290.67617 379.36959,285.57477 378.94123,278.16521 374.28571,276.03331 370.98843,274.52338 366.8134,277.7185 364.28571,280.31902 Z"
 style="fill:#000000;stroke:none;stroke-width:1px;stroke-linecap:butt;stroke-linejoin:miter;stroke-opacity:1;fill-opacity:1" />
<path
 id="path2128"
 d="M 330.71429,358.53331 C 328.13383,364.73197 341.28493,366.82603 346.78571,370.67617 356.65997,377.58742 366.82599,384.08775 377.14285,390.31902 386.49628,395.96838 395.58121,402.30112 405.71429,406.39045 416.66585,410.81009 428.19595,414.95264 440,415.31902 444.97061,415.4733 451.03571,415.88522 454.64286,412.46188 456.42303,410.77243 456.58298,407.76839 456.42857,405.31902 456.28392,403.02438 455.18501,400.81597 453.92857,398.89045 451.72049,395.50653 448.71097,392.57255 445.35714,390.31902 437.96133,385.34957 429.18923,382.71303 420.71429,379.96188 404.31729,374.63906 387.06004,372.44316 370.35714,368.17617 360.42287,365.63832 350.75058,362.06027 340.71429,359.96188 337.41838,359.27277 332.00837,355.42474 330.71429,358.53331 Z"
 style="fill:#000000;stroke:none;stroke-width:1px;stroke-linecap:butt;stroke-linejoin:miter;stroke-opacity:1;fill-opacity:1" />
<path
 id="path2130"
 d="M 267.14286,464.60474 C 263.14753,467.41103 266.24829,474.39486 266.78571,479.2476 267.43406,485.10196 268.56524,491.06008 271.07143,496.39045 273.2091,500.93702 276.04893,505.43009 280,508.53331 281.2171,509.48923 282.74412,510.45546 284.28571,510.31902 288.23298,509.96967 290.98593,506.08463 294.28571,503.89045 298.13531,501.33067 301.73996,498.39479 305.71429,496.03331 312.94605,491.73632 320.48155,487.91642 328.21429,484.60474 338.07854,480.3802 348.38691,477.27065 358.57143,473.89045 363.89623,472.12317 369.20618,470.27581 374.64286,468.89045 382.28984,466.94187 390.14745,465.93101 397.85714,464.2476 402.39909,463.25586 407.41907,463.38633 411.42857,461.03331 414.77135,459.07156 418.81109,456.30862 419.28571,452.46188 419.68361,449.23697 417.02504,446.10034 414.64286,443.89045 411.86918,441.31737 407.94442,440.2109 404.28572,439.2476 400.58559,438.27339 396.67556,437.93177 392.85715,438.17617 387.98616,438.48794 383.30726,440.20908 378.57143,441.39045 371.14561,443.24286 363.76661,445.2876 356.42857,447.46188 345.52692,450.69207 334.84522,454.63991 323.92857,457.81902 311.39725,461.46835 299.09274,466.92631 286.07143,467.81902 281.16583,468.15534 276.2255,467.11381 271.42857,466.03331 269.95953,465.70241 268.37511,463.73922 267.14286,464.60474 Z"
 style="fill:#000000;stroke:none;stroke-width:1px;stroke-linecap:butt;stroke-linejoin:miter;stroke-opacity:1;fill-opacity:1" />
<path
 id="path2132"
 d="M 224.28571,540.31902 C 226.31577,545.7304 230.24183,550.23769 233.57143,554.96188 237.13837,560.02281 240.3016,565.57222 245,569.60473 247.58844,571.82632 250.51751,574.61668 253.92857,574.60474 262.83245,574.57358 269.13245,565.27805 277.14286,561.39046 287.66387,556.28443 298.46954,551.62869 309.64286,548.17616 320.93137,544.68804 332.56042,542.13049 344.28571,540.67617 351.31915,539.80379 358.46092,539.54027 365.5357,539.96189 371.00639,540.28791 376.48592,541.06656 381.78571,542.46189 387.63359,544.00152 393.11338,546.70031 398.74999,548.89045 405.49838,551.51258 411.84372,555.43577 418.92857,556.92616 425.45661,558.29942 433.03436,560.76447 438.92857,557.64046 442.09511,555.96215 444.17926,552.08701 444.64285,548.53331 445.11045,544.94886 443.67485,541.00832 441.42857,538.17616 436.23935,531.63346 427.30011,529.21301 419.82143,525.4976 413.53518,522.37459 407.06234,519.53807 400.35715,517.46188 394.60272,515.68008 388.70133,513.83317 382.67857,513.71188 374.52872,513.54775 366.58802,516.34214 358.57143,517.81903 345.62154,520.20478 332.70656,522.78377 319.82143,525.4976 305.37925,528.53937 291.01021,531.91861 276.60714,535.14045 266.78456,537.33768 257.19703,542.22131 247.14285,541.74759 241.76528,541.49422 237.03685,537.93416 231.78571,536.7476 229.09233,536.139 225.50143,533.70137 223.57143,535.67617 222.477,536.796 223.73572,538.85296 224.28571,540.31902 Z"
 style="fill:#000000;stroke:none;stroke-width:1px;stroke-linecap:butt;stroke-linejoin:miter;stroke-opacity:1;fill-opacity:1" />
<path
 id="path2134"
 d="M 297.14286,391.7476 C 294.60884,398.22331 306.70957,402.05007 310,408.17617 313.38456,414.47751 314.77773,421.66817 316.78571,428.53331 320.19815,440.20019 323.15617,452.00698 325.71429,463.89045 327.85204,473.82115 330.11414,483.77747 331.07143,493.89045 332.00266,503.72814 328.2473,514.17773 331.42857,523.53331 332.76997,527.47815 335.20179,531.66992 338.92857,533.53331 341.69704,534.91754 345.60706,535.2015 348.21429,533.53331 352.52158,530.77737 353.2801,524.53331 354.64286,519.60474 357.61042,508.8722 357.47753,497.5013 358.21429,486.39045 358.83675,477.00329 358.63214,467.57927 358.92857,458.17617 359.12752,451.86529 360.13165,445.54267 359.64286,439.2476 358.8729,429.33145 358.52896,418.78001 353.92857,409.96188 351.55316,405.40863 347.47253,401.76135 343.21429,398.89046 338.74177,395.8751 333.39625,394.31669 328.21428,392.81902 322.40404,391.13977 316.40495,389.65714 310.35714,389.60474 305.89501,389.56608 298.76894,387.59213 297.14286,391.7476 Z"
 style="fill:#000000;stroke:none;stroke-width:1px;stroke-linecap:butt;stroke-linejoin:miter;stroke-opacity:1;fill-opacity:1" />
</g>
</svg>
