<?xml version="1.0" encoding="UTF-8" standalone="no"?>
<svg
 xmlns:dc="http://purl.org/dc/elements/1.1/"
 xmlns:cc="http://creativecommons.org/ns#"
 xmlns:rdf="http://www.w3.org/1999/02/22-rdf-syntax-ns#"
 xmlns:svg="http://www.w3.org/2000/svg"
 xmlns="http://www.w3.org/2000/svg"
 id="svg8"
 version="1.1"
 viewBox="0 0 512 512"
 height="512"
 width="512">
<defs
 id="defs2" />
<metadata
 id="metadata5">
<rdf:RDF>
<cc:Work
 rdf:about="">
<dc:format>image/svg+xml</dc:format>
<dc:type
 rdf:resource="http://purl.org/dc/dcmitype/StillImage" />
<dc:title></dc:title>
</cc:Work>
</rdf:RDF>
</metadata>
<g
 transform="translate(0,-161.53331)"
 id="layer1">
<path
 id="path2050"
 d="M 108.75,238.5333 C 110.8092,235.32607 116.03139,236.07895 119.82143,235.67616 122.72418,235.36766 125.68077,235.62683 128.57143,236.03331 133.06046,236.66455 137.69252,237.29935 141.78571,239.24759 145.16104,240.85415 148.32821,243.1557 150.71428,246.0333 153.09308,248.90213 154.5618,252.4892 155.71429,256.03331 156.722,259.1322 157.19821,262.41988 157.32143,265.67617 157.4977,270.33435 157.54482,275.1822 156.07142,279.60474 154.85488,283.25627 152.63376,286.61959 150,289.42617 148.45164,291.07612 146.55831,292.49752 144.46429,293.35474 142.73453,294.06284 140.33183,295.48224 138.92857,294.2476 136.15642,291.80855 139.81833,286.82995 139.28571,283.17617 138.36255,276.84325 135.95086,270.74714 133.21429,264.96188 131.59012,261.52829 129.81202,258.02144 127.14286,255.31902 123.75503,251.88897 118.96937,250.19807 115,247.46188 113.17679,246.20509 110.8142,245.41256 109.64286,243.53331 108.74731,242.09652 107.83529,239.95797 108.75,238.5333 Z"
 style="fill:#000000;fill-opacity:1;stroke:none;stroke-width:1px;stroke-linecap:butt;stroke-linejoin:miter;stroke-opacity:1" />
<path
 id="path2052"
 d="M 34.642857,341.39045 C 34.909798,335.43334 45.296971,336.02551 50.714286,333.53331 55.89768,331.14872 60.841072,327.90246 66.428572,326.7476 70.508994,325.90424 74.835676,325.96701 78.928572,326.7476 84.965433,327.89894 90.690815,330.56376 96.071429,333.53331 101.36657,336.45569 106.15333,340.27564 110.71429,344.2476 114.71413,347.7309 119.35723,350.96082 121.78571,355.67617 123.14348,358.31253 124.2551,361.58884 123.39285,364.42617 121.60591,370.30632 115.43935,373.93592 110.53571,377.64046 107.13565,380.2091 103.1887,382.00162 99.285715,383.71188 95.596083,385.32865 91.512588,389.33309 87.857143,387.64045 84.145856,385.92195 85.546335,379.68887 83.392857,376.21188 81.573415,373.27422 78.946408,370.89989 76.428572,368.53331 74.206825,366.44503 71.74701,364.61876 69.285714,362.81902 63.915208,358.89201 58.359003,355.21118 52.678571,351.74759 49.015891,349.51431 45.139195,347.65027 41.428572,345.49759 39.141608,344.17083 34.524499,344.03176 34.642857,341.39045 Z"
 style="fill:#000000;fill-opacity:1;stroke:none;stroke-width:1px;stroke-linecap:butt;stroke-linejoin:miter;stroke-opacity:1" />
<path
 id="path2054"
 d="M 178.57143,431.92617 C 165.87277,426.14037 161.04999,453.66548 152.85714,464.96188 145.85904,474.61094 139.83076,484.93798 132.85714,494.60474 126.35137,503.62298 119.44132,512.34587 112.5,521.03331 109.12227,525.26072 105.28156,529.12552 102.14286,533.53331 99.8809,536.70986 96.389942,539.64673 96.071429,543.53331 95.510782,550.37448 100.63131,556.52574 103.75,562.64045 105.98604,567.02458 108.65048,571.20615 111.60714,575.14045 114.24129,578.64559 116.8658,582.30947 120.35714,584.96188 123.26116,587.1681 126.74651,588.54974 130.17858,589.78331 133.8062,591.08716 137.5773,592.29638 141.42857,592.46188 144.25444,592.58332 148.23607,593.5543 149.82142,591.21188 151.84448,588.22271 148.25543,584.16265 147.32143,580.67617 145.76202,574.8551 143.16019,569.29458 142.14286,563.35474 141.73038,560.94643 141.59248,558.46904 141.78571,556.03331 142.9305,541.60273 147.03247,527.53318 150.71428,513.53331 154.01798,500.97118 158.09947,488.61162 162.5,476.39045 166.80638,464.43077 173.16544,453.21824 176.78571,441.03331 177.66676,438.06791 181.38652,433.20879 178.57143,431.92617 Z"
 style="fill:#000000;fill-opacity:1;stroke:none;stroke-width:1px;stroke-linecap:butt;stroke-linejoin:miter;stroke-opacity:1" />
<path
 id="path2056"
 d="M 209.64286,299.2476 C 205.79024,299.71175 204.09745,304.75604 201.96428,307.9976 199.75419,311.35603 197.8397,315.01068 196.78571,318.89045 196.06518,321.54275 194.04174,325.25157 196.07143,327.10474 199.55492,330.28528 205.5716,326.2295 210,324.60474 226.92642,318.3945 241.55883,307.11657 256.78571,297.46188 268.63845,289.94658 280.23292,281.99644 291.42857,273.53331 300.60285,266.59819 309.09828,258.80681 318.03571,251.56902 324.35695,246.44989 331.29173,242.04093 337.14286,236.39045 340.96969,232.69485 345.66031,229.23935 347.5,224.24759 348.98203,220.22628 348.94724,215.42441 347.5,211.39045 346.61466,208.92271 344.61954,206.86211 342.5,205.31902 337.79071,201.89051 331.82964,200.5637 326.25,198.89045 322.34747,197.72014 318.35991,196.37401 314.28571,196.39045 311.48369,196.40176 307.74794,195.931 306.07143,198.17617 304.143,200.7587 305.73833,204.77086 306.78571,207.81902 307.90158,211.06651 309.4309,214.85031 312.5,216.39045 315.53665,217.91431 319.28911,215.6204 322.67857,215.85474 326.1258,216.09307 331.35314,214.70804 332.85714,217.81902 334.31721,220.83912 330.29295,224.11472 328.21429,226.74759 318.74855,238.73706 305.38632,247.06483 293.57143,256.74759 281.39738,266.72469 269.24923,276.80092 256.25,285.67617 246.28494,292.47984 236.80963,301.03656 225.17857,304.24759 222.48183,304.99209 219.45391,305.08867 216.78571,304.2476 214.01384,303.37385 212.52832,298.89997 209.64286,299.2476 Z"
 style="fill:#000000;fill-opacity:1;stroke:none;stroke-width:1px;stroke-linecap:butt;stroke-linejoin:miter;stroke-opacity:1" />
<path
 id="path2058"
 d="M 243.21429,314.42616 C 238.6054,314.56824 235.99552,320.79104 234.46429,325.14045 231.9341,332.32735 232.07202,340.82513 234.64286,347.99759 236.27078,352.53939 239.46576,357.02873 243.75,359.2476 246.98111,360.92105 251.18155,361.08432 254.64286,359.96188 258.10092,358.8405 261.49031,356.28811 263.03571,352.9976 264.60455,349.65719 263.98773,345.49174 263.03571,341.92617 261.6187,336.6191 257.94734,332.15727 254.82143,327.64046 253.32946,325.48463 251.54562,323.54407 249.82143,321.56903 247.68844,319.12571 246.45612,314.32622 243.21429,314.42616 Z"
 style="fill:#000000;fill-opacity:1;stroke:none;stroke-width:1px;stroke-linecap:butt;stroke-linejoin:miter;stroke-opacity:1" />
<path
 id="path2060"
 d="M 295.17857,283.53331 C 295.00087,286.57549 296.22937,289.55465 297.14286,292.46188 298.82286,297.80857 300.96548,303.0359 303.57143,307.9976 305.91292,312.45577 308.16413,317.17732 311.78571,320.67617 314.7811,323.57005 318.34806,327.43393 322.5,327.10474 326.3747,326.79753 328.02436,321.48066 331.42857,319.60474 335.20412,317.52419 341.93319,319.58548 343.75,315.67617 346.57319,309.60141 339.91682,302.58982 336.07143,297.10474 333.94303,294.06878 330.93977,291.66497 327.85714,289.60474 324.35916,287.26692 320.36388,285.73575 316.42857,284.2476 311.67162,282.44874 306.71594,281.20982 301.78571,279.96188 300.13332,279.54363 298.27061,278.05355 296.78571,278.89045 295.35899,279.69456 295.27407,281.89838 295.17857,283.53331 Z"
 style="fill:#000000;fill-opacity:1;stroke:none;stroke-width:1px;stroke-linecap:butt;stroke-linejoin:miter;stroke-opacity:1" />
<path
 id="path2062"
 d="M 376.07143,248.53331 C 373.92899,251.68554 377.14934,256.23413 378.92857,259.60474 380.70084,262.96217 383.73039,265.50538 386.42857,268.17617 388.7687,270.49255 392.83196,271.50002 393.92857,274.60474 395.01727,277.68706 393.84466,281.45657 392.14286,284.2476 389.71312,288.23248 385.08394,290.4352 381.07143,292.81902 377.88628,294.71131 374.15769,295.53209 370.89286,297.28331 369.14683,298.21986 365.85362,298.51664 365.89286,300.4976 365.96262,304.01889 371.6608,304.7349 375,305.85474 378.92009,307.16939 383.18707,307.33295 387.32143,307.28331 390.74729,307.24217 394.17017,306.66127 397.5,305.85474 403.99505,304.28155 410.32224,301.96298 416.42857,299.2476 421.63741,296.93132 426.7558,294.29865 431.42857,291.03331 434.02186,289.22111 437.21102,287.63962 438.57143,284.78331 439.95452,281.87937 440.44366,277.97776 438.92857,275.14045 437.38012,272.24067 433.17784,271.91778 430.53571,269.96188 427.34932,267.60307 424.48982,264.82637 421.60715,262.10474 416.74094,257.51038 412.17399,252.6088 407.5,247.81902 405.88298,246.16194 404.92335,243.38615 402.67857,242.81902 398.49904,241.76309 394.56736,245.82155 390.35714,246.74759 385.67021,247.77848 378.76901,244.56429 376.07143,248.53331 Z"
 style="fill:#000000;fill-opacity:1;stroke:none;stroke-width:1px;stroke-linecap:butt;stroke-linejoin:miter;stroke-opacity:1" />
<path
 id="path2064"
 d="M 244.45903,381.87757 C 239.46986,385.81915 242.00125,394.13435 243.57143,399.96188 244.93735,405.03134 248.43715,409.45691 252.14286,413.17617 254.75307,415.79592 257.78443,418.61788 261.42857,419.2476 264.92823,419.85235 268.51932,418.14189 271.78571,416.7476 276.85782,414.58252 280.96915,410.62928 285.71429,407.81902 293.41507,403.25832 301.33928,399.07967 309.28571,394.96188 316.23457,391.36103 323.02357,387.33816 330.35714,384.60474 334.97035,382.88527 341.02178,377.51917 344.64286,380.85474 350.68897,386.42414 342.12211,397.11184 340.35715,405.14045 338.7049,412.65638 337.8906,420.57134 334.46429,427.46188 333.21839,429.96747 331.5876,432.47795 329.28571,434.06902 325.02685,437.01275 319.30994,436.88897 314.46428,438.71188 311.84523,439.69716 306.56272,439.31539 306.78571,442.10474 307.08485,445.84658 314.10757,443.80481 317.67857,444.96188 321.74813,446.28049 326.20768,447.05531 329.64286,449.60474 332.43488,451.67685 334.33695,454.80562 336.07143,457.81902 337.67049,460.59715 338.74665,463.66997 339.64286,466.7476 341.97988,474.77305 343.39305,483.07945 344.28571,491.39045 345.20143,499.91615 345.18664,508.53204 345,517.10474 344.81815,525.45733 344.25682,533.81548 343.21429,542.10474 341.79522,553.38786 340.4948,564.80938 337.14286,575.67617 335.72129,580.2848 335.33742,586.3305 331.25,588.89046 324.99138,592.81025 316.42209,589.1894 309.10714,588.17616 301.75687,587.15803 294.58378,585.0288 287.5,582.81903 280.7562,580.71532 274.21929,577.98798 267.67857,575.31902 263.28582,573.52655 258.78102,567.28421 254.64286,569.60474 252.33733,570.8976 253.38669,574.82506 253.57143,577.46188 253.7703,580.30026 254.39545,583.25672 255.89286,585.67617 257.28991,587.93347 259.77481,589.30027 261.78571,591.03331 265.27861,594.04357 269.19137,596.57161 272.5,599.78331 277.19293,604.33876 281.4569,609.35462 285.35714,614.60474 288.54787,618.89978 291.53574,623.39051 293.92857,628.17617 295.72319,631.76541 296.18238,635.96573 298.21429,639.42617 299.43373,641.50294 300.77292,643.75521 302.85714,644.96188 305.78752,646.65844 309.47998,646.99294 312.85714,646.7476 316.98734,646.44755 320.99471,644.7785 324.64286,642.81902 330.76896,639.52859 336.72962,635.3937 341.07143,629.96188 348.71879,620.39464 352.91946,608.3694 356.78571,596.7476 360.46696,585.6819 362.20628,574.02122 363.75,562.46188 365.20287,551.58282 365.80166,540.58001 365.89286,529.60474 365.99487,517.32882 364.98305,505.06408 364.10714,492.81903 363.79146,488.40588 363.52417,483.9786 362.85714,479.60474 361.25201,469.07949 361.50767,457.61294 356.25,448.35474 354.12833,444.6187 347.72556,443.79713 346.78571,439.60474 345.98538,436.03469 349.41344,432.77237 350.89286,429.42616 356.0494,417.76295 361.26716,406.08717 367.5,394.96188 371.0992,388.5375 375.49666,382.59407 379.46428,376.39045 381.85761,372.64834 385.81581,369.5114 386.60714,365.14045 387.22482,361.72868 386.16715,357.98213 384.46428,354.96188 382.02363,350.63308 376.22198,348.98686 373.57143,344.78331 371.67369,341.77366 371.58904,337.94268 370.35714,334.60474 368.87959,330.6012 369.55122,323.60718 365.35715,322.81902 362.089,322.20486 360.34075,327.26676 358.39286,329.96189 356.34993,332.78852 355.23015,336.1797 353.57143,339.2476 350.45323,345.01488 348.4209,351.61513 343.92857,356.39045 339.26759,361.34504 332.75083,364.19232 326.78571,367.46188 317.25604,372.68523 307.07839,376.63066 297.14286,381.03331 288.02492,385.07367 279.23209,390.07894 269.64286,392.81902 264.72148,394.22528 259.35299,396.65642 254.46428,395.14045 250.72363,393.98049 247.9154,390.45844 245.89285,387.10474 244.95978,385.55757 245.87673,380.75755 244.45903,381.87757 Z"
 style="fill:#000000;fill-opacity:1;stroke:none;stroke-width:1px;stroke-linecap:butt;stroke-linejoin:miter;stroke-opacity:1" />
<path
 id="path2066"
 d="M 197.67857,489.96188 C 196.46395,496.11809 206.26296,499.11646 210.53571,503.71188 213.46128,506.85839 215.54875,511.05611 219.28571,513.17617 221.29619,514.31676 223.77408,514.85996 226.07143,514.60474 230.62482,514.09888 234.43384,510.85758 238.57143,508.89045 248.52457,504.15845 257.80899,497.87894 268.21429,494.2476 282.58824,489.23124 297.83011,487.04662 312.85714,484.60474 323.61458,482.85666 334.4712,481.55737 345.35714,481.03331 354.33563,480.60108 363.35267,480.78924 372.32143,481.39045 380.21836,481.91981 388.08844,482.93126 395.89286,484.24759 405.86268,485.92915 415.53345,489.19974 425.53571,490.67617 433.68772,491.87949 442.27539,494.97347 450.17857,492.64046 453.55837,491.64274 456.60582,489.13677 458.57143,486.21189 460.08563,483.95871 460.39355,481.05043 460.71429,478.35474 461.19271,474.33373 462.19917,469.81803 460.35714,466.21188 459.02485,463.60366 456.00413,462.18104 453.39286,460.85474 443.55144,455.85612 432.59555,452.61514 421.60714,451.56902 411.54812,450.61138 401.48421,453.43362 391.42857,454.42617 382.7346,455.28431 374.04068,456.14672 365.35714,457.10474 352.72729,458.49814 340.09461,459.8866 327.5,461.56902 310.31973,463.86401 293.16611,466.38392 276.07143,469.2476 262.57676,471.50821 249.04614,473.66891 235.71429,476.7476 227.89086,478.55424 220.04321,480.42482 212.5,483.17617 207.39532,485.03808 198.73035,484.631 197.67857,489.96188 Z"
 style="fill:#000000;fill-opacity:1;stroke:none;stroke-width:1px;stroke-linecap:butt;stroke-linejoin:miter;stroke-opacity:1" />
</g>
</svg>
