<?xml version="1.0" encoding="UTF-8" standalone="no"?>
<svg
 xmlns:dc="http://purl.org/dc/elements/1.1/"
 xmlns:cc="http://creativecommons.org/ns#"
 xmlns:rdf="http://www.w3.org/1999/02/22-rdf-syntax-ns#"
 xmlns:svg="http://www.w3.org/2000/svg"
 xmlns="http://www.w3.org/2000/svg"
 id="svg8"
 version="1.1"
 viewBox="0 0 512 512"
 height="512"
 width="512">
<defs
 id="defs2" />
<metadata
 id="metadata5">
<rdf:RDF>
<cc:Work
 rdf:about="">
<dc:format>image/svg+xml</dc:format>
<dc:type
 rdf:resource="http://purl.org/dc/dcmitype/StillImage" />
<dc:title></dc:title>
</cc:Work>
</rdf:RDF>
</metadata>
<g
 transform="translate(0,-161.53331)"
 id="layer1">
<path
 id="path2079"
 d="M 100.25764,235.37965 C 100.1462,229.53342 109.75087,228.0125 115.40993,226.54081 119.64713,225.43889 124.20922,226.16421 128.54192,226.79334 133.55413,227.52114 138.7393,228.41509 143.18913,230.83395 147.64204,233.25448 151.2358,237.10387 154.55334,240.93548 157.6557,244.51857 160.34084,248.52731 162.38202,252.80478 164.77833,257.82645 167.10414,263.16027 167.43278,268.71468 167.67071,272.73596 166.94079,276.97068 165.15994,280.58397 163.81558,283.31163 161.89746,286.21245 159.09903,287.4025 155.22264,289.05096 150.52092,288.05975 146.47212,286.89742 142.55816,285.7738 138.82133,283.63737 135.86552,280.83651 133.61129,278.70045 132.18952,275.79248 130.81475,273.00783 128.71662,268.75801 127.74386,264.03686 126.01653,259.62331 124.68312,256.21629 123.66789,252.62092 121.72338,249.52178 119.82101,246.48982 117.66576,243.37212 114.65232,241.44055 112.6566,240.16132 110.02719,240.31931 107.83379,239.42025 105.18553,238.33475 100.31219,238.24123 100.25764,235.37965 Z"
 style="fill:#000000;stroke:none;stroke-width:1px;stroke-linecap:butt;stroke-linejoin:miter;stroke-opacity:1;fill-opacity:1" />
<path
 id="path2081"
 d="M 66.670068,330.33398 C 63.525039,332.23531 63.960518,337.17478 62.881996,340.68805 61.557852,345.00142 60.294245,349.36187 59.599,353.82003 59.196066,356.40379 58.557454,359.08935 59.093924,361.64871 60.74685,369.53441 66.008676,376.23679 70.205602,383.11445 72.626847,387.08223 75.480714,390.77307 78.286822,394.47867 80.636064,397.58096 82.633825,401.06345 85.610428,403.57004 87.599236,405.24481 89.912047,406.70591 92.428958,407.35811 95.444015,408.13939 98.69845,407.85702 101.77287,407.35811 103.87496,407.01699 105.94215,406.31601 107.83378,405.33781 109.22465,404.61857 110.74381,403.85636 111.62186,402.55989 113.13313,400.32844 113.10956,397.37311 113.64216,394.73121 114.33149,391.31188 115.69045,387.82429 115.15739,384.37714 114.65684,381.14018 112.39787,378.43252 110.86424,375.53831 109.36337,372.70594 108.12163,369.6641 106.06602,367.20455 103.80581,364.5002 100.91521,362.34427 97.984797,360.38602 95.699641,358.85896 92.956363,358.10992 90.661191,356.59795 88.113956,354.91993 85.766203,352.92705 83.590123,350.78957 81.460108,348.69734 79.537404,346.38601 77.781746,343.97104 76.270597,341.8924 74.990424,339.65084 73.741136,337.40505 72.551585,335.26664 72.449913,332.26056 70.45814,330.83906 69.421258,330.09905 67.760204,329.67494 66.670068,330.33398 Z"
 style="fill:#000000;stroke:none;stroke-width:1px;stroke-linecap:butt;stroke-linejoin:miter;stroke-opacity:1;fill-opacity:1" />
<path
 id="path2083"
 d="M 85.35789,518.22236 C 87.085784,518.08481 88.251,520.22474 89.903577,520.74774 91.812883,521.35198 94.049576,522.20014 95.877834,521.3828 98.700645,520.12085 99.668093,516.48256 101.29843,513.85524 105.65246,506.83865 109.03308,499.26292 112.88455,491.95839 115.50129,486.99559 118.0061,481.97272 120.71323,477.05864 123.15167,472.63229 125.62639,468.22167 128.28937,463.92666 130.50854,460.34745 132.61743,456.66508 135.28417,453.40564 137.26832,450.98051 139.24505,448.37526 141.92643,446.75406 142.65415,446.31407 143.65605,445.52309 144.36252,445.99645 147.80271,448.30151 145.8053,454.24404 145.46197,458.37082 144.93551,464.69878 142.30087,470.67095 140.66374,476.8061 137.78372,487.59896 134.35468,498.2507 131.82491,509.13098 130.31067,515.64356 128.52197,522.16028 128.03683,528.82896 127.6272,534.45975 127.43622,540.26916 128.79445,545.74901 129.60072,549.00194 134.14128,551.65898 133.0876,554.84039 132.18774,557.55735 128.24332,558.02748 125.51145,558.881 123.30374,559.57076 120.9199,559.91743 118.61896,559.68194 116.17489,559.4318 113.82745,558.44805 111.62185,557.36576 107.15739,555.17504 103.14522,552.12044 99.247488,549.03201 95.559206,546.10954 91.805645,543.13194 88.893424,539.43556 86.444387,536.32708 84.379042,532.82129 83.085047,529.0815 82.193541,526.50495 80.823957,523.53732 81.822356,521.00028 82.371196,519.60561 83.863845,518.34129 85.35789,518.22236 Z"
 style="fill:#000000;fill-opacity:1;stroke:none;stroke-width:1px;stroke-linecap:butt;stroke-linejoin:miter;stroke-opacity:1" />
<path
 id="path2087"
 d="M 198.24244,237.90502 C 202.20095,236.4649 206.80855,237.29041 210.86934,238.4101 216.13478,239.86196 221.13154,242.66731 225.26402,246.23878 228.76696,249.26617 231.21715,253.37954 233.59778,257.35046 236.46371,262.13086 238.19504,267.50815 240.66884,272.50275 243.24248,277.69893 246.03087,282.78607 248.75006,287.90758 251.75249,293.56257 255.24923,298.97324 257.84144,304.82763 260.69799,311.27902 263.34911,317.89802 264.91251,324.77814 266.31942,330.96957 266.2951,337.40134 266.93281,343.7185 267.28952,347.25207 270.45151,351.81103 267.94296,354.3251 265.37521,356.89849 260.42039,354.7582 257.08382,353.31495 252.65021,351.39717 249.44206,347.32173 246.22468,343.7185 242.80277,339.88621 239.97236,335.53073 237.38585,331.0916 233.443,324.32463 230.56305,316.9909 227.28432,309.87839 224.42893,303.68424 221.52927,297.50491 218.95056,291.19057 216.30209,284.70541 214.21615,278.00165 211.62696,271.4926 210.51162,268.68872 209.51421,265.81993 208.09142,263.15884 205.05307,257.47611 200.22739,252.82763 197.48482,246.9964 196.51022,244.92422 194.85982,242.63905 195.46452,240.43041 195.79498,239.22341 197.06643,238.33286 198.24244,237.90502 Z"
 style="fill:#000000;stroke:none;stroke-width:1px;stroke-linecap:butt;stroke-linejoin:miter;stroke-opacity:1;fill-opacity:1" />
<path
 id="path2089"
 d="M 257.33636,222.5002 C 254.23326,226.32654 260.7287,231.79892 261.62951,236.64233 262.26228,240.04457 261.4696,243.65967 262.38712,246.9964 263.33535,250.44479 263.81344,255.4009 267.18535,256.59285 274.07563,259.02852 280.44795,250.4477 287.13586,247.50147 298.94042,242.3012 310.51422,236.45151 322.74374,232.34918 328.33777,230.47269 334.13646,229.2424 339.91633,228.05604 345.09494,226.99309 350.37992,226.5168 355.5737,225.53066 363.70082,223.98757 371.70911,221.86667 379.81736,220.22735 385.69181,219.03966 391.52041,216.4714 397.49503,216.94436 401.50288,217.26163 405.35074,219.02182 408.85924,220.98497 411.78481,222.62195 415.12663,224.33177 416.68793,227.29842 417.71025,229.24096 417.70602,231.73007 417.193,233.86441 415.53296,240.77077 409.31518,245.72295 406.08132,252.04716 401.71816,260.57984 398.76793,269.76498 394.96965,278.56366 392.99811,283.13071 391.30718,287.8427 388.90873,292.20072 387.73801,294.32795 387.0205,297.13782 384.86812,298.26164 381.21097,300.17115 376.61761,298.13048 372.49375,298.0091 370.30442,297.94466 367.27235,296.02757 365.92776,297.75656 363.55681,300.80533 368.12418,305.16206 369.21076,308.86824 370.56732,313.49528 372.44421,318.00408 373.25137,322.75784 374.30973,328.99105 373.33851,335.44351 374.26152,341.6982 374.83082,345.55602 375.01497,349.72948 377.03944,353.06241 377.96855,354.59202 379.30039,356.40884 381.08005,356.59795 383.66553,356.87269 385.99363,354.57944 387.89858,352.80988 390.25922,350.61702 391.79679,347.62813 393.20188,344.72866 396.56842,337.78164 398.23877,330.13115 400.52548,322.75784 402.96416,314.8945 404.70182,306.81656 407.34401,299.01925 410.30396,290.2842 413.55828,281.62406 417.44554,273.26036 421.31918,264.92597 425.30098,256.54168 430.57752,249.0167 433.48733,244.86696 437.35403,241.47762 440.67905,237.65249 442.12866,235.98485 444.66156,234.78939 444.9722,232.60172 446.12695,224.46944 439.53491,216.88691 434.87067,210.12583 432.97783,207.38206 430.60877,204.8491 427.7996,203.05476 425.53277,201.60684 422.88477,200.66719 420.22346,200.27684 413.298,199.26104 406.23933,200.97241 399.26279,201.53953 385.26211,202.67764 371.24144,203.80661 357.34146,205.83268 342.58905,207.983 328.01885,211.24379 313.39983,214.16644 298.55418,217.1344 284.06508,222.59896 268.95312,223.51035 265.0733,223.74434 259.78463,219.48131 257.33636,222.5002 Z"
 style="fill:#000000;stroke:none;stroke-width:1px;stroke-linecap:butt;stroke-linejoin:miter;stroke-opacity:1;fill-opacity:1" />
<path
 id="path2091"
 d="M 268.44804,283.10935 C 266.33793,288.29281 271.33999,294.15385 274.50895,298.76672 276.56742,301.76311 279.60608,304.01405 282.59017,306.09032 286.48432,308.79979 290.47321,312.61866 295.21708,312.65631 299.9227,312.69365 303.74759,308.65884 307.84399,306.34286 316.87007,301.2398 324.80381,294.25183 334.10795,289.67534 340.29685,286.63117 347.28493,285.48105 353.55339,282.60427 359.95902,279.66454 366.06353,276.06683 371.98868,272.25021 373.30505,271.40228 375.0412,270.8546 375.77675,269.47229 376.76613,267.61297 376.90353,265.07499 376.02929,263.15884 375.13434,261.19731 372.90394,260.08843 370.97852,259.11823 368.33454,257.78595 365.35289,256.85459 362.39223,256.84538 359.69719,256.837 357.17081,258.1834 354.56354,258.86568 350.43507,259.94603 346.33536,261.13844 342.18918,262.14869 339.17304,262.8836 336.12621,263.4864 333.0978,264.16899 324.2529,266.16258 315.36284,267.97353 306.5813,270.22991 297.67798,272.51758 288.68961,274.62563 280.06479,277.80605 276.07099,279.27877 270.05298,279.16683 268.44804,283.10935 Z"
 style="fill:#000000;stroke:none;stroke-width:1px;stroke-linecap:butt;stroke-linejoin:miter;stroke-opacity:1;fill-opacity:1" />
<path
 id="path2093"
 d="M 274.00388,340.94058 C 274.11022,344.48752 280.41059,344.11933 283.85287,344.98119 288.69559,346.19369 293.76222,346.63032 298.75262,346.49642 304.20351,346.35016 309.5248,344.79487 314.91506,343.97104 322.23497,342.85229 329.51679,341.41563 336.88587,340.68804 345.52455,339.83509 354.24609,340.1401 362.8973,339.42536 369.40108,338.88803 376.73282,340.48669 382.34274,337.15251 383.84853,336.25757 385.83866,334.54805 385.3732,332.85936 384.49198,329.6623 379.39902,329.95048 376.28182,328.81875 371.67346,327.14564 366.94335,325.75853 362.13969,324.77814 357.48491,323.82814 352.74536,322.84384 347.99755,323.01038 342.33844,323.20888 336.90046,325.27588 331.33004,326.29337 323.35236,327.75057 315.31631,328.87525 307.33891,330.33398 300.92422,331.50695 294.33178,332.05799 288.14601,334.12205 283.18173,335.77853 273.84705,335.70957 274.00388,340.94058 Z"
 style="fill:#000000;stroke:none;stroke-width:1px;stroke-linecap:butt;stroke-linejoin:miter;stroke-opacity:1;fill-opacity:1" />
<path
 id="path2095"
 d="M 299.51023,253.81493 C 297.79668,257.46062 301.1038,261.71359 301.78307,265.68422 303.59181,276.25714 305.02311,286.89129 306.5813,297.50402 307.01364,300.44864 307.43687,303.39465 307.84399,306.34286 308.71528,312.65231 309.47603,318.97685 310.36937,325.28322 310.84692,328.65441 309.5361,332.91948 311.8846,335.38475 313.06885,336.62789 315.23362,336.62279 316.93536,336.3949 318.98758,336.12007 320.79611,334.80602 322.4912,333.61698 324.39231,332.28343 326.41335,330.84823 327.54197,328.81875 329.96515,324.46141 329.99589,319.1239 330.57242,314.17154 331.27354,308.14896 330.76071,302.04377 331.0775,295.9888 331.30688,291.60453 331.83488,287.23979 332.08765,282.85681 332.33986,278.48351 333.03826,274.08268 332.59273,269.72483 331.84311,262.39267 331.96149,253.95947 327.28943,248.25909 325.2843,245.81263 321.86627,244.20359 318.70313,244.21848 313.46983,244.24312 309.21246,248.6387 304.56099,251.03701 302.8532,251.91755 300.32756,252.076 299.51023,253.81493 Z"
 style="fill:#000000;stroke:none;stroke-width:1px;stroke-linecap:butt;stroke-linejoin:miter;stroke-opacity:1;fill-opacity:1" />
<path
 id="path2097"
 d="M 272.17567,586.30379 C 274.9627,584.43201 277.67612,582.38483 280,579.96188 282.03102,577.84427 284.31459,575.67847 285.25254,572.89825 286.40271,569.48897 285.35558,565.70276 285.37509,562.10474 285.439,550.3192 285.44106,538.53302 285.35714,526.7476 285.25615,512.56551 285.02275,498.38452 284.77284,484.20427 284.54229,471.12248 284.27204,458.04119 283.92857,444.96188 283.52523,429.60265 283.52926,414.22046 282.5,398.89045 282.26749,395.42744 283.26037,391.48136 281.42857,388.53331 279.4239,385.30705 275.26552,383.9845 271.78571,382.46188 268.84907,381.17693 265.61795,380.70574 262.5,379.96188 259.66118,379.28462 256.27777,376.44446 253.92857,378.17617 251.90712,379.66628 253.13587,383.16608 253.21429,385.67617 253.45143,393.26636 255.8475,400.64046 256.78571,408.17617 259.2517,427.98307 260.44816,447.92759 262.18618,467.81159 263.43579,482.10791 264.96251,496.38575 265.80094,510.71207 266.38479,520.68843 266.80448,530.68276 266.78571,540.67617 266.76349,552.50218 265.93999,564.31313 265.48713,576.13048 265.30633,580.84834 260.907,587.79707 264.92078,590.28313 267.26562,591.73548 269.88595,587.84158 272.17567,586.30379 Z"
 style="fill:#000000;stroke:none;stroke-width:1px;stroke-linecap:butt;stroke-linejoin:miter;stroke-opacity:1;fill-opacity:1" />
<path
 id="path2099"
 d="M 310.89503,392.36471 C 311.98658,394.28166 313.23238,396.12293 314.64286,397.81902 317.22643,400.92574 319.44189,404.94284 323.21429,406.39045 327.44365,408.01341 332.26796,406.01004 336.78571,405.67617 341.79468,405.306 346.7803,403.83208 351.78571,404.2476 353.62749,404.4005 355.97436,404.24434 357.14286,405.67617 366.11545,416.67078 359.13625,433.99406 359.64286,448.17617 359.97863,457.57569 359.52506,466.99694 360,476.39045 360.47676,485.82002 361.60967,495.2052 362.5,504.60474 363.84267,518.77981 366.17992,532.87912 366.78571,547.10474 367.11497,554.83674 372.56495,565.6034 366.42857,570.31902 364.09337,572.11355 360.69988,568.94577 357.85714,568.17617 354.98436,567.39844 352.17256,566.39993 349.28571,565.67617 347.04361,565.11406 343.96267,562.45775 342.5,564.2476 340.12003,567.15993 345.22238,571.27798 346.97698,574.60474 351.2097,582.63009 356.27187,590.21041 361.49729,597.62776 364.90782,602.46891 368.82574,606.93207 372.45668,611.61018 375.34599,615.33277 377.13041,620.23559 381.07143,622.81902 383.94498,624.7027 387.91709,626.68125 391.07143,625.31902 394.20297,623.96664 395.08658,619.65627 396.07143,616.39045 397.40981,611.9523 397.44935,607.14683 397.11748,602.52316 396.45807,593.33631 393.00916,584.56503 391.12527,575.54926 387.6852,559.08601 383.72794,542.69421 381.42857,526.03331 379.0119,508.52242 377.39317,490.85126 377.14286,473.17617 376.88628,455.0577 380.24648,437.00906 380,418.89045 379.88363,410.33592 381.47967,401.10136 377.95431,393.30615 374.83842,386.41636 368.79944,380.64889 362.16824,377.015 357.82,374.63217 352.55219,373.98935 347.59409,374.03839 338.25194,374.13079 329.33903,378.0294 320.24946,380.18904 315.75933,381.25588 308.80989,379.38786 306.81853,383.55125 305.42187,386.47128 309.29336,389.55191 310.89503,392.36471 Z"
 style="fill:#000000;stroke:none;stroke-width:1px;stroke-linecap:butt;stroke-linejoin:miter;stroke-opacity:1;fill-opacity:1" />
<path
 id="path2101"
 d="M 263.57143,436.39045 C 261.7965,439.0808 261.19074,443.27443 262.85714,446.03331 264.4008,448.58899 268.10054,449.30772 271.07143,449.60474 279.25874,450.42328 287.04341,445.4497 295.20921,444.43886 303.65182,443.39375 312.20726,443.51422 320.71429,443.53331 326.67142,443.54668 332.6175,444.0522 338.57143,444.2476 343.21331,444.39994 347.856,444.54521 352.5,444.60474 358.21382,444.67798 364.80041,447.6385 369.64286,444.60474 373.34272,442.2868 376.97423,436.87449 375.35714,432.81902 372.12228,424.70636 359.4441,425.07584 350.83992,423.57663 336.60601,421.09648 321.9295,423.50948 307.5,424.2476 299.26548,424.66883 290.77549,424.09166 282.85714,426.39045 275.90289,428.40935 267.55919,430.346 263.57143,436.39045 Z"
 style="fill:#000000;stroke:none;stroke-width:1px;stroke-linecap:butt;stroke-linejoin:miter;stroke-opacity:1;fill-opacity:1" />
<path
 id="path2103"
 d="M 270,512.46188 C 269.32459,516.36115 274.39701,519.98986 278.21429,521.03331 284.17685,522.66317 290.11905,517.69998 296.07143,516.03331 302.02381,514.36664 307.82995,512.04098 313.92857,511.03331 320.3982,509.96433 327.01808,509.73287 333.57143,509.96188 340.28588,510.19652 346.91109,511.57943 353.57143,512.46188 359.52979,513.25132 365.97154,517.48102 371.42857,514.96188 374.24712,513.66074 376.76731,510.19059 376.42857,507.10474 376.20812,505.0965 373.86918,503.86852 372.14286,502.81902 365.89523,499.02082 358.42479,497.51342 351.23423,496.18867 341.1157,494.32449 330.67598,493.61949 320.41842,494.42091 313.03163,494.99804 305.77897,496.95694 298.69398,499.12505 295.21869,500.18854 291.88671,501.68703 288.57143,503.17617 282.25792,506.01203 271.18125,505.64227 270,512.46188 Z"
 style="fill:#000000;stroke:none;stroke-width:1px;stroke-linecap:butt;stroke-linejoin:miter;stroke-opacity:1;fill-opacity:1" />
</g>
</svg>
