<?xml version="1.0" encoding="UTF-8" standalone="no"?>
<svg
 xmlns:dc="http://purl.org/dc/elements/1.1/"
 xmlns:cc="http://creativecommons.org/ns#"
 xmlns:rdf="http://www.w3.org/1999/02/22-rdf-syntax-ns#"
 xmlns:svg="http://www.w3.org/2000/svg"
 xmlns="http://www.w3.org/2000/svg"
 id="svg8"
 version="1.1"
 viewBox="0 0 512 512"
 height="512"
 width="512">
<defs
 id="defs2" />
<metadata
 id="metadata5">
<rdf:RDF>
<cc:Work
 rdf:about="">
<dc:format>image/svg+xml</dc:format>
<dc:type
 rdf:resource="http://purl.org/dc/dcmitype/StillImage" />
<dc:title></dc:title>
</cc:Work>
</rdf:RDF>
</metadata>
<g
 transform="translate(0,-161.53331)"
 id="layer1">
<path
 id="path1574"
 d="M 87.271171,299.92958 C 95.98571,296.52299 106.24759,304.7167 115.94598,305.74766 127.79325,307.00705 139.80453,307.04852 151.68561,306.16324 161.20143,305.4542 170.46112,302.64664 179.94484,301.59189 186.70364,300.8402 193.56994,299.42681 200.30812,300.34516 204.51857,300.919 216.37936,303.12226 212.35985,304.50093 199.68251,308.84919 190.9959,309.99195 180.776,314.0592 175.02002,316.34993 169.41608,319.10304 164.15292,322.37074 152.64296,329.51686 143.06266,339.45363 131.73791,346.88978 125.61943,350.90735 119.68824,359.6016 112.62137,357.69478 104.40953,355.47902 103.43862,343.32772 99.738482,335.6692 96.246895,328.44234 93.555379,320.84031 91.011365,313.22804 89.551796,308.86067 82.982403,301.6061 87.271171,299.92958 Z"
 style="fill:#000000;stroke:none;stroke-width:1px;stroke-linecap:butt;stroke-linejoin:miter;stroke-opacity:1;fill-opacity:1" />
<path
 id="path1576"
 d="M 148.38188,215.68917 C 157.91269,217.28156 162.95829,222.52313 170.14313,226.14989 177.51791,229.87253 185.96024,232.15886 192.04699,237.74429 196.73291,242.04425 200.27869,247.77908 202.386,253.77965 204.46014,259.68576 204.54368,266.20427 204.31263,272.45973 203.95489,282.14536 200.95165,291.55077 199.20399,301.08413 197.56679,310.01494 196.00619,318.96186 194.16665,327.8532 192.34765,336.64522 190.73565,345.50363 188.2355,354.12672 185.71345,362.82535 185.58356,373.38257 179.11369,379.72037 177.23611,381.55963 174.17545,382.8814 171.6333,382.21383 167.83896,381.21743 164.67034,377.29714 163.73734,373.48671 162.95424,370.28847 165.42106,367.12004 166.2308,363.92844 168.79211,353.83304 171.85238,343.83936 173.71119,333.59132 175.40392,324.25888 177.10904,314.81651 177.03581,305.33208 176.97107,296.94723 175.48341,288.59313 173.71119,280.39746 170.77507,266.81929 166.25193,253.613 161.65946,240.50207 160.59088,237.45142 159.50736,234.38776 158.05828,231.49839 155.28846,225.97554 146.33451,215.3471 148.38188,215.68917 Z"
 style="fill:#000000;stroke:none;stroke-width:1px;stroke-linecap:butt;stroke-linejoin:miter;stroke-opacity:1;fill-opacity:1" />
<path
 id="path1578"
 d="M 67.293327,383.20228 C 67.293327,383.20228 74.111286,390.75976 78.166047,393.78114 82.033924,396.66326 86.004108,400.33554 90.801912,400.83371 98.659878,401.64963 106.05804,396.62428 113.42892,393.78114 124.50968,389.50701 135.14467,384.13388 145.75323,378.79441 153.62291,374.83347 161.33061,370.55081 168.96796,366.15856 177.80737,361.075 186.30746,355.41808 195.12126,350.29026 201.03395,346.85029 207.03585,343.5648 213.04655,340.29911 218.01329,337.60062 229.04813,326.80435 228.03328,332.36496 226.62144,340.10078 219.32046,347.90843 213.34041,354.40426 198.18216,370.86991 179.09374,383.32463 160.73996,396.13201 149.63601,403.8804 137.90981,410.72997 126.06478,417.28974 117.63404,421.95868 109.35281,427.18627 100.20534,430.21945 97.560877,431.09632 94.656387,432.45346 91.977341,431.68873 89.442941,430.96529 87.893275,428.33099 86.100195,426.3993 81.634866,421.5888 77.813018,416.20401 74.052045,410.82487 72.261228,408.26355 70.456654,405.6848 69.05647,402.89072 67.222749,399.23152 64.763558,395.52163 64.648611,391.43029 64.567704,388.55055 64.503873,382.15631 67.293327,383.20228 Z"
 style="fill:#000000;stroke:none;stroke-width:1px;stroke-linecap:butt;stroke-linejoin:miter;stroke-opacity:1;fill-opacity:1" />
<path
 id="path1580"
 d="M 256.53744,184.84859 C 254.05533,181.54295 256.82594,175.97302 259.47601,172.80044 261.33139,170.57924 264.57027,169.832 267.41016,169.27415 270.58343,168.65081 273.9597,168.8265 277.10745,169.56801 281.20275,170.53273 284.88019,172.83181 288.56788,174.85743 294.59291,178.16694 300.62777,181.6195 305.90547,186.02401 309.09789,188.68824 312.9582,191.2437 314.42733,195.1336 316.74714,201.27586 314.3281,208.2745 313.83962,214.82204 312.9809,226.33224 311.09889,237.74314 309.72562,249.20334 307.96495,263.8965 306.34822,278.60771 304.43618,293.28194 302.80026,305.83709 301.41684,318.43957 299.14675,330.89568 298.26478,335.73509 298.22056,340.94968 295.91432,345.29468 294.84223,347.31452 293.4649,350.68555 291.2126,350.29026 286.58871,349.47874 286.54965,341.96401 285.62931,337.36054 284.15055,329.96394 285.87419,322.27634 285.92317,314.73352 286.01857,300.04096 286.75088,285.32446 285.92317,270.65492 285.0402,255.00589 282.44448,239.50059 280.63374,223.93161 279.87018,217.36643 279.88018,210.65669 278.28288,204.24317 277.49598,201.08359 276.07385,198.11133 274.75659,195.13359 273.8705,193.13055 273.3775,190.79442 271.81802,189.25645 269.57215,187.04156 266.35504,185.91245 263.29616,185.14244 261.10935,184.59196 257.89146,186.65186 256.53744,184.84859 Z"
 style="fill:#000000;stroke:none;stroke-width:1px;stroke-linecap:butt;stroke-linejoin:miter;stroke-opacity:1;fill-opacity:1" />
<path
 id="path1582"
 d="M 316.77819,271.24264 C 332.0191,261.97778 357.48582,248.39354 376.72508,240.38762 385.13991,236.886 395.93009,239.01561 405.22924,240.97533 410.21329,242.02569 419.3344,246.85248 419.3344,246.85248 421.15103,250.04315 414.61794,252.56587 411.6941,254.78663 406.1099,259.02802 399.29172,261.33787 393.18109,264.77778 385.75896,268.95598 378.61023,273.61265 371.14179,277.7075 366.80118,280.0874 362.8282,283.83627 357.91822,284.46622 350.25704,285.44914 342.62849,281.88391 335.2912,279.47064 328.87623,277.36073 310.234,275.22082 316.77819,271.24264 Z"
 style="fill:#000000;stroke:none;stroke-width:1px;stroke-linecap:butt;stroke-linejoin:miter;stroke-opacity:1;fill-opacity:1" />
<path
 id="path1584"
 d="M 282.10303,334.71582 C 279.18343,336.04663 278.15137,339.9098 277.10745,342.94383 276.01644,346.11473 275.19778,349.66299 275.93202,352.93497 276.53902,355.63995 278.48762,357.92491 280.33988,359.98755 282.67036,362.58272 285.16973,365.66593 288.56789,366.45241 292.66694,367.4011 296.87337,364.99453 300.9099,363.80769 306.23337,362.24246 311.08528,359.21098 316.48433,357.93055 325.58869,355.77137 335.06292,355.58855 344.40078,354.99198 357.30753,354.16741 370.27261,353.47287 383.18995,354.1104 395.3126,354.7087 407.32749,356.74322 419.3344,358.51826 426.12081,359.52153 432.92199,360.51973 439.61055,362.04455 445.56624,363.4023 451.15302,366.55211 457.24199,367.04013 463.14009,367.51285 470.32589,368.76874 474.87343,364.98312 475.89737,364.13074 476.16519,362.49019 476.04886,361.16298 475.65487,356.66802 472.72471,352.61559 469.87785,349.11483 467.41666,346.08833 464.17647,343.66613 460.76828,341.7684 455.59865,338.88988 449.86675,336.7901 444.01841,335.89125 429.10094,333.59854 413.84711,336.81404 398.76438,337.36054 384.06941,337.89299 369.38915,339.31558 354.68579,339.12368 341.33626,338.94945 328.06457,336.91999 314.72119,336.47896 307.28087,336.23304 299.80561,337.11015 292.38803,336.47896 288.92221,336.18404 285.26808,333.27313 282.10303,334.71582 Z"
 style="fill:#000000;stroke:none;stroke-width:1px;stroke-linecap:butt;stroke-linejoin:miter;stroke-opacity:1;fill-opacity:1" />
<path
 id="path1586"
 d="M 152.80581,418.46516 C 157.50313,417.63223 162.08289,420.98101 166.32324,423.16688 169.63286,424.87296 172.50223,427.33478 175.43282,429.63173 177.67386,431.38822 180.29568,432.86106 181.89768,435.21502 184.23322,438.64683 185.52507,442.84679 186.01168,446.96932 187.14278,456.55198 184.1056,466.17355 183.07311,475.76733 181.95501,486.15662 180.44776,496.50584 179.54682,506.91621 178.70075,516.69253 178.68243,526.53033 177.78368,536.30194 176.47285,550.55391 173.93938,564.67227 172.49425,578.91125 171.36322,590.05533 171.56157,601.34127 169.84953,612.41099 168.98885,617.97602 167.93847,623.56928 166.02938,628.86699 164.8413,632.16391 164.78283,637.68474 161.32767,638.27043 156.47869,639.0924 153.72976,631.89722 150.74881,627.98543 146.68337,622.65048 142.22934,616.95719 141.05151,610.35399 140.12956,605.18528 142.39837,599.93295 143.40237,594.77955 146.13738,580.74109 150.33932,567.0243 153.39352,553.05181 155.44052,543.68709 157.28451,534.27678 158.97681,524.8415 160.50063,516.34558 161.86225,507.81953 163.09081,499.27592 164.08862,492.33702 165.64293,485.42171 165.73553,478.41205 165.81355,472.50611 165.29216,466.53773 163.97238,460.78061 162.31747,453.56161 159.56927,446.57809 156.3321,439.91674 153.56374,434.22012 145.2963,430.00151 146.34095,423.75459 146.80019,421.00839 150.06425,418.9513 152.80581,418.46516 Z"
 style="fill:#000000;stroke:none;stroke-width:1px;stroke-linecap:butt;stroke-linejoin:miter;stroke-opacity:1;fill-opacity:1" />
<path
 id="path1588"
 d="M 210.10798,387.61014 C 204.8435,386.04152 199.96636,393.29471 197.47212,398.189 196.17925,400.72592 196.21925,403.94227 196.8844,406.71086 197.68494,410.04298 200.90417,412.34353 202.17384,415.52658 203.51219,418.88182 202.92334,422.86748 204.52469,426.10545 205.60329,428.2864 207.1928,430.35295 209.22641,431.68874 211.79066,433.37308 214.97552,434.42436 218.04213,434.33345 222.31664,434.20673 226.22447,431.75398 230.09028,429.92559 238.10864,426.13319 245.19387,420.59939 253.01115,416.40815 259.34314,413.01325 265.71841,409.63131 272.40574,407.00472 277.07781,405.16967 282.25639,400.47364 286.80474,402.59686 289.31048,403.76657 289.57364,407.51096 290.03717,410.23715 291.07365,416.33309 289.05775,422.56984 288.86175,428.75016 288.34323,445.1 288.4188,461.47227 288.86175,477.82433 289.3027,494.10235 290.94672,510.33029 291.50646,526.60465 291.96779,540.01763 292.41834,553.4461 292.09418,566.8631 291.79312,579.32408 293.05067,583.68502 289.74332,604.18298 288.06024,614.61423 268.02917,597.58671 256.24358,599.18741 248.32372,600.26307 261.5742,614.12323 265.0593,621.22671 269.31402,629.89883 274.46586,638.11983 279.75217,646.20458 284.78107,653.89567 288.11669,663.67567 295.91432,668.53774 298.36031,670.0629 301.84768,671.27535 304.43618,670.00702 309.1188,667.7126 310.36751,661.21457 311.78262,656.19573 314.84521,645.33385 313.62481,633.68547 313.83962,622.40214 314.16785,605.16118 313.40782,587.91129 312.66419,570.68325 311.73302,549.11021 309.63555,527.60047 308.55019,506.03464 307.75204,490.17554 306.52277,474.30673 306.78704,458.42975 306.90307,451.45887 307.20051,444.45732 308.25632,437.56588 309.21698,431.29554 310.54916,425.0334 312.66419,419.05287 314.32947,414.34405 318.07296,410.41712 319.12905,405.53544 320.16484,400.74759 320.05775,395.58616 318.8352,390.84257 317.26055,384.73283 314.47833,378.55666 310.01947,374.0927 307.20165,371.27166 303.37513,369.15589 299.44061,368.50941 293.37047,367.51203 287.11921,369.69928 281.22146,371.44799 269.61705,374.88875 259.28513,381.72516 248.01558,386.14085 241.26668,388.78524 234.45269,391.33851 227.44557,393.19343 221.62182,394.73509 216.58238,389.53926 210.10798,387.61014 Z"
 style="fill:#000000;stroke:none;stroke-width:1px;stroke-linecap:butt;stroke-linejoin:miter;stroke-opacity:1;fill-opacity:1" />
<path
 id="path1590"
 d="M 211.87113,458.13589 C 215.83347,455.60298 221.33002,459.15638 225.97628,458.42976 229.25098,457.91763 232.11053,455.74353 235.37971,455.19732 238.47134,454.68078 241.7982,454.24075 244.78315,455.19732 247.19042,455.96876 249.45235,457.5718 250.95415,459.60518 252.61037,461.84764 253.53831,464.75221 253.59887,467.53933 253.66084,470.39107 252.72594,473.32766 251.24801,475.76733 249.84794,478.07847 247.30589,479.46457 245.37086,481.35062 243.38686,483.2844 241.55378,485.37524 239.49372,487.22777 237.05949,489.41678 234.82741,492.0303 231.85343,493.39877 229.41002,494.52311 226.41182,495.87881 223.91928,494.86806 220.46871,493.46882 219.41197,488.92586 217.45442,485.75848 215.70353,482.92549 214.04656,480.01154 212.7527,476.94276 211.87414,474.85899 211.17035,472.68893 210.6957,470.4779 210.15761,467.97135 209.43414,465.37296 209.81413,462.83762 210.06768,461.14584 210.42979,459.05726 211.87113,458.13589 Z"
 style="fill:#000000;stroke:none;stroke-width:1px;stroke-linecap:butt;stroke-linejoin:miter;stroke-opacity:1;fill-opacity:1" />
<path
 id="path1592"
 d="M 158.68295,554.5211 C 155.23564,556.71663 150.48996,559.00359 149.86723,563.04296 149.45987,565.68532 152.08878,567.95252 153.68738,570.09553 154.76414,571.53899 155.82707,573.2683 157.50752,573.91568 159.33789,574.62082 161.49393,574.14389 163.38467,573.62182 168.41111,572.23393 172.39673,568.31469 177.19596,566.27539 185.34953,562.81075 193.82542,559.99564 202.46769,558.04738 210.65755,556.20111 219.08797,555.61066 227.44557,554.81495 237.01959,553.90342 246.62665,553.13691 256.24358,553.05181 263.00842,552.99195 269.77566,553.40049 276.51974,553.93338 282.51536,554.40713 288.43097,556.0454 294.44503,555.99038 297.40948,555.96326 301.2722,557.01368 303.26075,554.81495 305.29862,552.56169 304.73873,548.50322 303.55461,545.70538 302.41951,543.02336 299.57756,541.34233 297.08975,539.82823 293.96567,537.92689 290.39016,536.729 286.80474,536.00808 277.48187,534.13352 267.81004,534.83853 258.30058,534.83266 250.94828,534.82812 243.58936,535.11773 236.26129,535.71423 229.86749,536.23468 223.5006,537.08761 217.16056,538.06509 207.60981,539.53758 197.9798,540.81304 188.65639,543.35452 183.12567,544.86215 177.8648,547.22696 172.49424,549.23167 167.87568,550.95567 162.84109,551.87285 158.68295,554.5211 Z"
 style="fill:#000000;stroke:none;stroke-width:1px;stroke-linecap:butt;stroke-linejoin:miter;stroke-opacity:1;fill-opacity:1" />
</g>
</svg>
