<?xml version="1.0" encoding="UTF-8" standalone="no"?>
<svg
 xmlns:dc="http://purl.org/dc/elements/1.1/"
 xmlns:cc="http://creativecommons.org/ns#"
 xmlns:rdf="http://www.w3.org/1999/02/22-rdf-syntax-ns#"
 xmlns:svg="http://www.w3.org/2000/svg"
 xmlns="http://www.w3.org/2000/svg"
 id="svg8"
 version="1.1"
 viewBox="0 0 512 512"
 height="512"
 width="512">
<defs
 id="defs2" />
<metadata
 id="metadata5">
<rdf:RDF>
<cc:Work
 rdf:about="">
<dc:format>image/svg+xml</dc:format>
<dc:type
 rdf:resource="http://purl.org/dc/dcmitype/StillImage" />
<dc:title></dc:title>
</cc:Work>
</rdf:RDF>
</metadata>
<g
 transform="translate(0,-161.53331)"
 id="layer1">
<path
 id="path1408"
 d="M 163.73734,239.25534 C 166.753,237.53025 170.25985,241.72165 173.29561,243.41111 175.20948,244.47622 176.68789,246.28161 178.69811,247.1513 180.51844,247.93884 182.53283,248.3872 184.51619,248.39803 191.51784,248.43626 198.34935,246.07232 205.10202,244.22138 209.55287,243.00138 213.69359,240.76142 218.17793,239.67091 224.87372,238.04262 231.79175,235.99369 238.64203,236.74099 241.40152,237.04203 244.23585,237.97988 246.43717,239.67091 247.38217,240.39685 248.18301,241.4355 248.51505,242.57995 249.21089,244.97836 249.60047,248.06446 248.09947,250.06034 246.33521,252.40628 242.5755,252.04988 239.78793,252.96938 235.58234,254.35662 231.32591,255.58474 227.09806,256.90259 221.81464,258.54947 216.24805,259.48045 211.25572,261.86863 207.29767,263.76205 203.88102,266.63021 200.30812,269.17688 196.76601,271.7016 194.04087,275.68419 189.91869,277.07285 185.45528,278.57647 180.25651,278.56446 175.78907,277.07285 172.80228,276.0756 170.16139,273.89009 168.23739,271.39737 167.10859,269.93491 166.71785,268.02212 166.13862,266.26784 165.11321,263.16224 164.36761,259.96502 163.71646,256.75999 163.19933,254.21462 162.57996,251.65412 162.54103,249.05705 162.4917,245.76593 160.88029,240.8897 163.73734,239.25534 Z"
 style="fill:#000000;stroke:none;stroke-width:1px;stroke-linecap:butt;stroke-linejoin:miter;stroke-opacity:1;fill-opacity:1" />
<path
 id="path1410"
 d="M 180.42839,180.14687 C 183.31053,177.44786 188.38917,180.52045 192.18269,181.61616 196.28735,182.80174 199.99553,185.08898 203.79005,187.05251 206.34199,188.37305 208.92338,189.6744 211.28341,191.31345 215.79524,194.44693 220.01253,198.03063 223.91928,201.89231 227.13061,205.06659 230.25415,208.40451 232.735,212.17732 235.4307,216.27686 237.42688,220.82601 239.19986,225.4009 241.46804,231.25355 243.0079,237.37364 244.48929,243.47312 245.7021,248.46672 246.64846,253.52745 247.42786,258.60677 248.22028,263.77097 249.10157,268.95733 249.19101,274.18121 249.26586,278.55291 248.76373,282.92705 248.1625,287.25786 247.57873,291.46295 247.25663,295.81114 245.66472,299.7468 244.44212,302.7694 243.61714,307.62649 240.37529,307.9748 238.86023,308.13758 237.98169,306.01449 237.14286,304.74237 235.11021,301.65978 234.25671,297.93967 233.02885,294.45737 230.69513,287.83879 228.80986,281.06918 226.85785,274.32814 224.994,267.89159 223.68694,261.29084 221.56842,254.93356 219.88637,249.88604 218.06249,244.85654 215.69127,240.09376 213.34033,235.37172 210.509,230.88308 207.46327,226.57633 204.68963,222.65432 201.28883,219.21241 198.35369,215.40975 195.61228,211.85808 192.77276,208.35698 190.41954,204.53703 188.16777,200.88177 186.4533,196.92105 184.5424,193.07659 183.23589,190.44808 181.45909,187.98376 180.72225,185.14244 180.30352,183.52778 179.21084,181.28706 180.42839,180.14687 Z"
 style="fill:#000000;stroke:none;stroke-width:1px;stroke-linecap:butt;stroke-linejoin:miter;stroke-opacity:1;fill-opacity:1" />
<path
 id="path1412"
 d="M 293.56346,166.33557 C 291.4035,169.58244 297.52245,173.15504 298.55904,176.91444 300.44256,183.74535 301.24582,191.01438 300.61604,198.07217 299.91049,205.97913 296.70634,213.47712 294.15118,220.99304 291.6044,228.48431 288.26534,235.68244 285.33545,243.03234 282.48639,250.1795 279.57357,257.30188 276.8136,264.48392 274.18984,271.3115 271.1441,278.01007 269.17331,285.05393 268.47453,287.55145 267.35027,290.12503 267.70402,292.69422 267.88328,293.99611 268.21252,295.82944 269.46716,296.22051 271.60168,296.88583 273.77112,294.57676 275.34431,292.98808 280.58653,287.69428 282.50637,279.92012 285.92317,273.29964 291.18682,263.10065 296.1423,252.74545 301.20375,242.44462 305.0483,234.62037 308.43809,226.56097 312.66418,218.93604 315.35198,214.08659 318.6779,209.61525 321.4799,204.83088 323.85031,200.78344 326.39719,196.80277 328.23862,192.48888 329.77105,188.89889 332.78472,185.09011 331.76492,181.3223 330.65974,177.23908 325.97099,175.00623 322.36148,172.80043 317.62678,169.90702 312.22234,168.03994 306.78704,166.92329 302.4651,166.03536 296.00729,162.66198 293.56346,166.33557 Z"
 style="fill:#000000;stroke:none;stroke-width:1px;stroke-linecap:butt;stroke-linejoin:miter;stroke-opacity:1;fill-opacity:1" />
<path
 id="path1414"
 d="M 284.16003,206.30017 C 287.85423,204.27458 292.09196,209.22205 296.20818,210.12032 303.24719,211.65641 310.4555,212.68822 317.65976,212.76503 323.46843,212.82696 329.26478,211.9412 334.99734,211.00189 341.53982,209.92987 347.89616,207.92003 354.39193,206.59403 358.65985,205.7228 362.90521,204.5706 367.25035,204.26406 370.54137,204.03188 373.88125,204.13309 377.14066,204.64398 378.8072,204.9052 380.4312,205.42431 382.01452,206.00631 384.04433,206.75243 386.39683,207.17381 387.90643,208.72233 389.24793,210.09842 390.06871,212.09968 390.18599,214.01788 390.33665,216.48213 389.4072,219.02756 388.1081,221.12699 386.68124,223.43289 384.28887,225.00142 382.13877,226.65375 379.47905,228.6977 376.56922,230.40978 373.63168,232.02925 369.93551,234.06695 366.15603,236.00374 362.19824,237.46994 357.70622,239.13404 353.01423,240.235 348.33041,241.23966 342.86686,242.41156 337.35065,243.51728 331.77357,243.86349 326.1742,244.21109 320.4974,244.15772 314.95239,243.3053 310.652,242.64422 306.26833,241.75053 302.37918,239.79991 297.51052,237.35801 292.95073,233.98103 289.44946,229.80876 286.60482,226.41896 284.65385,222.26053 283.27846,218.05446 282.7116,216.32096 282.3661,214.46428 282.46819,212.64331 282.59069,210.45845 282.24125,207.35227 284.16003,206.30017 Z"
 style="fill:#000000;stroke:none;stroke-width:1px;stroke-linecap:butt;stroke-linejoin:miter;stroke-opacity:1;fill-opacity:1" />
<path
 id="path1416"
 d="M 171.6333,302.00747 C 169.86043,303.80941 171.9805,307.12546 172.88004,309.48785 174.22031,313.00771 176.70709,315.98818 178.9059,319.04612 180.88888,321.80391 182.84118,324.64934 185.34735,326.94209 187.26084,328.69264 189.58529,329.938 191.78879,331.30565 193.81801,332.56512 195.78851,333.99331 198.02244,334.83805 200.53826,335.78939 203.23311,336.65393 205.91841,336.50036 210.72917,336.22523 215.10163,333.56939 219.63245,331.92901 222.84943,330.7643 226.00102,329.42628 229.19072,328.18882 233.68775,326.44417 238.19882,324.73588 242.69697,322.9941 250.87719,319.82655 259.0571,316.65784 267.21602,313.43583 272.0729,311.51782 276.90811,309.54531 281.76121,307.61775 286.67414,305.66643 292.65821,305.41573 296.5142,301.79968 298.41268,300.01934 300.15358,297.31842 299.83881,294.73487 299.32074,290.48264 295.62849,286.54737 291.73506,284.76102 287.26363,282.70946 281.86675,284.59135 276.98207,285.1766 270.72354,285.92645 264.57045,287.46737 258.4889,289.12458 252.14921,290.85213 246.01796,293.26949 239.78793,295.35823 233.82784,297.35647 227.97806,299.71292 221.91812,301.3841 214.33535,303.47524 206.67489,305.53513 198.8536,306.37102 194.51475,306.83473 190.05646,307.14959 185.76292,306.37102 182.2692,305.73749 179.22599,303.52245 175.78907,302.63083 174.4332,302.27908 172.6157,301.00897 171.6333,302.00747 Z"
 style="fill:#000000;stroke:none;stroke-width:1px;stroke-linecap:butt;stroke-linejoin:miter;stroke-opacity:1;fill-opacity:1" />
<path
 id="path1418"
 d="M 29.09039,455.77096 C 26.399955,457.26157 25.114729,460.52656 23.687889,463.25135 22.529397,465.46369 21.279751,467.82031 21.194427,470.31615 21.106009,472.90252 22.276367,475.40799 23.272312,477.79654 24.561751,480.88897 26.497779,483.67356 28.259236,486.52366 29.309566,488.22313 30.673029,489.73244 31.583853,491.51058 33.202625,494.6708 33.11694,498.70305 35.324046,501.48443 36.876369,503.44066 39.090276,505.25503 41.557701,505.6402 44.546946,506.10682 47.481485,504.28457 50.284818,503.14674 58.152307,499.95346 65.086994,494.8018 72.725976,491.095 81.1538,487.00541 89.752744,483.24825 98.491751,479.87442 107.76841,476.29302 117.18888,473.0454 126.75099,470.31616 139.61072,466.6457 152.73407,463.95342 165.81523,461.17346 175.19607,459.17988 184.64486,457.51945 194.07446,455.77096 211.78778,452.48645 229.4687,448.99177 247.26832,446.21268 262.87001,443.77677 278.52743,441.65904 294.22852,439.97903 306.11328,438.70736 318.02827,437.62157 329.96814,437.06999 342.42294,436.49463 354.93769,435.71162 367.37007,436.65442 375.90841,437.30192 384.38693,438.84093 392.72027,440.81019 399.07365,442.31156 405.1405,444.84727 411.42124,446.62826 422.15267,449.67131 432.81839,453.19891 443.83624,454.9398 450.41681,455.97957 457.1326,456.56703 463.78393,456.18653 467.71758,455.9615 471.92719,455.93178 475.42009,454.10866 477.67782,452.93024 479.99608,451.11507 480.8226,448.70615 481.90995,445.53701 481.13569,441.69756 479.57587,438.7323 478.02273,435.77974 474.84598,433.97108 472.09548,432.08307 468.11126,429.34821 463.6512,427.34492 459.21259,425.43383 453.82054,423.11222 448.2873,421.02971 442.58951,419.61576 435.38306,417.82743 427.92403,417.27094 420.56393,416.29114 413.37621,415.33429 406.17936,414.40749 398.95392,413.79768 391.21288,413.14435 383.44939,412.66174 375.68162,412.55095 364.59723,412.39284 353.49738,412.65937 342.43545,413.3821 330.62014,414.15405 318.84367,415.52494 307.11141,417.1223 300.43208,418.0317 293.82173,419.3928 287.16371,420.44691 276.09554,422.19925 264.97611,423.6218 253.91755,425.43383 241.42141,427.48143 229.00546,429.99733 216.51562,432.08307 207.66497,433.56109 198.78534,434.86002 189.91869,436.23884 178.28384,438.04812 166.62986,439.73681 155.01023,441.64134 147.79606,442.82379 140.60021,444.11561 133.40022,445.38153 121.75857,447.4284 110.0915,449.34285 98.491751,451.61519 88.066687,453.65741 77.638162,455.72279 67.323475,458.26442 60.339697,459.98528 53.711896,463.47856 46.544625,464.0825 43.907442,464.30472 40.773681,464.82881 38.648662,463.25134 36.355627,461.54915 37.7544,456.855 35.324046,455.35538 33.551778,454.26183 30.911991,454.76172 29.09039,455.77096 Z"
 style="fill:#000000;stroke:none;stroke-width:1px;stroke-linecap:butt;stroke-linejoin:miter;stroke-opacity:1;fill-opacity:1" />
<path
 id="path1420"
 d="M 120.30955,384.08393 C 120.35677,389.98126 122.58106,395.67616 124.25753,401.33038 125.51578,405.57409 126.75021,409.88981 128.82887,413.79768 130.7157,417.34492 131.98474,422.63465 135.89369,423.56374 140.14325,424.57378 143.57261,419.38703 147.52984,417.53787 153.38007,414.80414 159.34879,412.31262 165.39965,410.05749 174.14287,406.79893 182.88317,403.33237 191.99657,401.33037 201.39478,399.26581 211.05954,398.45403 220.67139,398.00575 226.89981,397.71527 233.18266,399.17316 239.37236,398.42133 242.00766,398.10123 244.87514,397.85054 247.06053,396.34345 249.87764,394.40072 253.01915,391.45328 253.0864,388.03191 253.14038,385.2854 250.71504,382.81996 248.51505,381.17489 244.21659,377.96065 238.4452,377.2014 233.1387,376.39575 228.34523,375.66799 223.44108,376.30601 218.59351,376.39575 211.10928,376.5343 203.60239,376.49901 196.15235,377.22691 190.00982,377.82705 183.93489,379.00852 177.86696,380.13594 171.32252,381.35189 164.97887,383.88544 158.33484,384.29171 154.37909,384.5336 150.38081,384.01109 146.49089,383.25278 141.15779,382.21313 136.21335,379.64105 130.90675,378.47363 127.90282,377.81278 124.27959,375.45703 121.76406,377.22691 119.85312,378.5714 120.29084,381.74747 120.30955,384.08393 Z"
 style="fill:#000000;stroke:none;stroke-width:1px;stroke-linecap:butt;stroke-linejoin:miter;stroke-opacity:1;fill-opacity:1" />
<path
 id="path1422"
 d="M 151.06224,346.88978 C 149.22924,346.24139 147.02841,345.70171 145.24416,346.47421 143.93381,347.04153 143.25307,348.56006 142.54291,349.79882 141.65994,351.33902 141.10847,353.06468 140.67282,354.78575 140.17527,356.75139 139.41746,358.82884 139.84166,360.81161 140.52517,364.00644 143.07283,366.51191 145.03638,369.12315 146.6577,371.27928 148.37995,373.40592 150.43888,375.14902 153.0053,377.32176 156.37016,378.40458 158.9582,380.55152 161.14578,382.36625 163.46012,384.26596 164.77628,386.78517 167.36803,391.74597 167.30247,397.69464 168.30869,403.20047 169.22793,408.23043 169.72127,413.33085 170.59436,418.36903 171.209,421.91583 171.62199,425.52319 172.67225,428.96624 173.50547,431.69776 174.11247,434.71638 175.99686,436.8622 177.26672,438.30823 179.0758,439.52003 180.98379,439.77124 183.33267,440.0805 186.00864,439.40317 187.84081,437.90115 191.31421,435.05364 192.59194,430.15614 193.86667,425.84942 195.62722,419.90131 195.56929,413.54806 195.94456,407.35624 196.40129,399.8201 197.20171,392.18397 196.15235,384.70729 195.61016,380.84423 195.01052,376.71975 192.82773,373.48671 191.14505,370.99441 188.32305,369.45398 185.76292,367.87642 181.40976,365.19398 176.28554,363.96328 171.84109,361.43498 169.28617,359.98156 166.97416,358.13707 164.5685,356.44805 162.3346,354.87962 160.14717,353.24584 157.91926,351.66891 155.6452,350.05933 153.68881,347.81889 151.06224,346.88978 Z"
 style="fill:#000000;stroke:none;stroke-width:1px;stroke-linecap:butt;stroke-linejoin:miter;stroke-opacity:1;fill-opacity:1" />
<path
 id="path1426"
 d="M 274.07304,334.42247 C 277.66073,334.71589 278.10848,340.44297 279.47554,343.77295 280.72603,346.81898 280.40776,350.43217 281.969,353.33123 283.29449,355.79252 285.06155,358.35003 287.57929,359.56488 290.64167,361.04253 294.36391,360.33613 297.76093,360.18825 302.4485,359.98418 307.05933,358.90972 311.68275,358.11036 315.92581,357.37676 320.13855,356.47668 324.35785,355.6169 335.87165,353.2707 347.28671,350.42884 358.85075,348.3443 362.98636,347.59881 367.13084,346.82949 371.31805,346.4742 374.70048,346.1872 378.15268,345.7001 381.49969,346.26642 384.04947,346.69785 386.97494,347.10836 388.77229,348.96767 390.14236,350.38497 390.46536,352.61467 390.64239,354.57796 390.81832,356.52909 390.70216,358.6513 389.81123,360.39604 388.49692,362.9699 385.9621,364.78905 383.57757,366.4219 380.30462,368.66311 376.41616,369.84053 372.77258,371.40882 368.31874,373.32587 363.79642,375.08215 359.26633,376.81133 355.47933,378.25686 351.66122,379.62042 347.83796,380.9671 341.76415,383.10649 335.68786,385.24463 329.55257,387.20075 322.59978,389.41751 315.62246,391.57411 308.56593,393.43441 304.99172,394.37667 301.35969,395.08422 297.76093,395.92787 296.30522,396.26913 294.86647,397.24483 293.39737,396.96681 291.49061,396.60598 290.03868,394.96441 288.61823,393.6422 285.22941,390.48777 282.66517,386.54383 279.89111,382.83719 277.92254,380.20684 276.09347,377.47357 274.28082,374.73344 272.56332,372.13714 270.57829,369.67314 269.2939,366.83748 267.98276,363.94277 267.11576,360.82923 266.59265,357.69478 266.33017,356.12198 266.34005,354.50957 266.38486,352.91565 266.48268,349.43661 266.08967,345.74077 267.42381,342.52622 268.76322,339.29896 270.5905,334.13765 274.07304,334.42247 Z"
 style="fill:#000000;stroke:none;stroke-width:1px;stroke-linecap:butt;stroke-linejoin:miter;stroke-opacity:1;fill-opacity:1" />
<path
 id="path1428"
 d="M 316.87747,322.9941 C 318.31746,320.63025 321.31951,319.51509 323.94228,318.63055 326.64592,317.71874 329.62087,317.53232 332.46161,317.79939 335.40752,318.07635 338.30752,319.02477 340.98093,320.29285 343.6367,321.55257 345.86985,323.55987 348.25353,325.27978 350.29808,326.755 352.62963,327.94462 354.2794,329.85112 356.24715,332.12509 358.05113,334.79874 358.64296,337.74709 359.39713,341.5042 358.1192,345.41222 357.39622,349.17546 356.66386,352.98755 355.56632,356.73375 354.2794,360.39603 352.53064,365.37262 350.3323,370.18768 348.04574,374.94123 346.13833,378.90656 344.09562,382.81607 341.81209,386.57739 339.19999,390.87991 336.23218,394.9588 333.29276,399.0447 331.41593,401.65356 329.59691,404.31941 327.47468,406.73287 324.01402,410.66843 320.32242,414.4421 316.2541,417.74566 313.53999,419.94957 310.99756,423.14095 307.52699,423.56374 305.70013,423.78629 303.26786,423.27845 302.33227,421.69364 301.44079,420.18355 302.60207,418.16025 303.16343,416.49893 304.84983,411.50807 308.16463,407.22535 310.64381,402.5771 313.15175,397.87492 316.10754,393.38037 318.1242,388.44749 320.42129,382.82862 321.92926,376.90233 323.31891,370.99325 324.70313,365.1073 326.19288,359.16509 326.43574,353.12343 326.58661,349.37027 326.42758,345.51485 325.3968,341.90286 324.37676,338.32852 322.19854,335.18738 320.40987,331.92901 319.2438,329.80481 317.22642,328.05374 316.66968,325.69535 316.4622,324.81643 316.40765,323.76534 316.87747,322.9941 Z"
 style="fill:#000000;stroke:none;stroke-width:1px;stroke-linecap:butt;stroke-linejoin:miter;stroke-opacity:1;fill-opacity:1" />
<path
 id="path1430"
 d="M 113.72278,505.44692 C 119.28161,501.15441 127.56883,508.66194 134.58666,508.38549 149.02469,507.81674 162.80282,502.14278 176.90211,498.98206 196.40281,494.61048 215.99993,490.63824 235.37971,485.75848 253.12485,481.29032 270.6154,475.8643 288.27403,471.06562 302.26014,467.26494 315.80325,459.73365 330.29563,459.89904 336.61903,459.9712 342.77543,462.5332 348.51478,465.18847 354.80218,468.09729 360.95549,471.74857 365.85236,476.6489 370.00031,480.79979 374.05662,485.66672 375.54966,491.34177 376.27412,494.09543 377.04344,497.92074 374.96194,499.86363 371.52486,503.07184 365.5007,500.59863 360.85679,499.86363 353.02437,498.62399 346.0506,493.82799 338.22977,492.5172 332.91562,491.62654 327.45399,492.08022 322.06762,492.22334 312.44722,492.47895 302.82384,493.12534 293.26961,494.28035 281.72698,495.67573 270.286,497.86143 258.8883,500.15749 249.12881,502.12353 239.47154,504.56988 229.79642,506.91621 220.86144,509.08304 211.84371,510.97403 203.05541,513.67493 197.57583,515.35896 192.13455,517.2303 186.89326,519.55207 181.32475,522.0188 176.02586,525.0642 170.7311,528.07394 161.74926,533.17955 154.28126,541.62947 144.28394,544.23609 141.81774,544.87911 139.13078,544.49881 136.64365,543.94223 132.48914,543.01252 128.32122,541.46592 124.88936,538.94666 121.36076,536.35638 118.59531,532.72346 116.3675,528.95551 114.39532,525.61992 112.72886,521.92852 112.2535,518.08279 111.73331,513.87448 110.36661,508.03855 113.72278,505.44692 Z"
 style="fill:#000000;stroke:none;stroke-width:1px;stroke-linecap:butt;stroke-linejoin:miter;stroke-opacity:1;fill-opacity:1" />
<path
 id="path1432"
 d="M 243.52813,326.94209 C 250.60296,326.42911 257.69505,336.88221 264.29833,343.53131 266.66281,345.9122 268.19647,352.83581 265.88933,356.54889 264.41425,358.92288 259.82231,357.22423 257.97681,359.32323 253.66815,364.22373 254.4355,371.96892 253.91755,378.47363 253.03681,389.53452 254.94118,400.6423 255.57986,411.7198 256.24961,423.3362 257.26932,434.9317 257.85509,446.55264 258.51194,459.58398 259.02836,472.62553 259.24442,485.67162 259.58512,506.2434 259.21896,526.82101 259.0975,547.39525 259.00638,562.82939 258.83344,578.26299 258.66103,593.69644 258.52668,605.72322 258.74661,617.76114 258.19504,629.77601 257.74936,639.48436 257.80042,649.31044 255.89893,658.84118 254.96139,663.54035 254.49414,668.81268 251.44498,672.50914 250.63354,673.49283 249.35144,674.60662 248.09947,674.36446 245.29566,673.82213 243.90607,670.30242 242.69697,667.71524 240.54602,663.11272 240.24349,657.81432 239.78793,652.75446 238.62018,639.7845 240.08345,626.71124 240.27481,613.69022 240.49469,598.72892 241.01643,583.77081 241.03466,568.8079 241.05795,549.68937 240.3519,530.57625 240.20351,511.45828 240.07702,495.16171 240.16149,478.86418 240.15309,462.56712 240.14723,451.20802 240.43789,439.84534 240.15309,428.48981 239.95364,420.53737 239.24171,412.60483 238.95678,404.65499 238.49523,391.77739 237.88303,378.8899 238.12563,366.00632 238.23388,360.25747 238.36172,354.48309 239.14548,348.78688 239.55986,345.77521 240.47962,342.85453 241.08508,339.87539 241.95887,335.57595 239.15228,327.25938 243.52813,326.94209 Z"
 style="fill:#000000;stroke:none;stroke-width:1px;stroke-linecap:butt;stroke-linejoin:miter;stroke-opacity:1;fill-opacity:1" />
</g>
</svg>
