<?xml version="1.0" encoding="UTF-8" standalone="no"?>
<svg
 xmlns:dc="http://purl.org/dc/elements/1.1/"
 xmlns:cc="http://creativecommons.org/ns#"
 xmlns:rdf="http://www.w3.org/1999/02/22-rdf-syntax-ns#"
 xmlns:svg="http://www.w3.org/2000/svg"
 xmlns="http://www.w3.org/2000/svg"
 id="svg8"
 version="1.1"
 viewBox="0 0 512 512"
 height="512"
 width="512">
<defs
 id="defs2" />
<metadata
 id="metadata5">
<rdf:RDF>
<cc:Work
 rdf:about="">
<dc:format>image/svg+xml</dc:format>
<dc:type
 rdf:resource="http://purl.org/dc/dcmitype/StillImage" />
<dc:title></dc:title>
</cc:Work>
</rdf:RDF>
</metadata>
<g
 transform="translate(0,-161.53331)"
 id="layer1">
<path
 id="path1503"
 d="M 95.582711,310.31901 C 95.582711,310.31901 106.66275,311.38353 112.20579,311.15016 129.80258,310.40931 147.14798,306.678 164.56849,304.08535 182.4763,301.42018 200.30187,298.22862 218.17793,295.35823 233.76857,292.85482 249.34697,290.26892 264.966,287.94915 285.08183,284.96151 305.21137,282.04043 325.3968,279.56631 338.53978,277.95538 351.74718,276.91001 364.8975,275.36012 373.35233,274.36364 382.21579,274.96701 390.22681,272.08592 394.38584,270.59017 397.59604,267.1895 401.44739,265.02111 403.06687,264.10931 404.6829,263.14947 406.43431,262.52765 407.63785,262.10034 408.9029,261.57775 410.17451,261.6965 413.32574,261.99077 416.06851,264.0259 418.90162,265.43669 423.9003,267.92586 428.6836,270.8337 433.44682,273.74823 437.11742,275.9942 441.05112,277.93672 444.25182,280.81304 447.1806,283.445 449.62369,286.6302 451.73221,289.95573 453.45754,292.67689 455.86863,295.46088 455.88798,298.68285 455.89989,300.6662 454.91213,302.80838 453.39451,304.08535 451.74902,305.46991 449.31102,305.78564 447.16086,305.74766 435.28742,305.53793 424.59942,298.25779 413.08355,295.35823 404.17899,293.11617 395.20519,290.89665 386.07104,289.95573 380.08853,289.33946 374.04136,289.66168 368.0291,289.81313 355.32457,290.13316 342.59866,290.62744 329.96814,292.03362 316.4332,293.54049 303.03259,296.12095 289.65717,298.68285 277.54162,301.00343 265.50144,303.71796 253.50197,306.57881 237.35682,310.42805 221.20443,314.31604 205.29504,319.04612 191.98442,323.00355 178.88319,327.64754 165.81523,332.34459 156.32483,335.75575 147.49332,341.4311 137.55599,343.14959 131.54845,344.18849 125.06796,344.62092 119.2706,342.73401 111.4145,340.17702 103.37969,335.55094 98.907328,328.60439 95.553738,323.39554 90.407185,310.27153 95.582711,310.31901 Z"
 style="fill:#000000;fill-opacity:1;stroke:none;stroke-width:1px;stroke-linecap:butt;stroke-linejoin:miter;stroke-opacity:1" />
<path
 id="path1505"
 d="M 72.700767,405.75912 C 70.509102,410.15946 69.61,415.1552 68.985783,420.03134 68.45809,424.15347 68.670874,428.35483 68.985783,432.49865 69.247502,435.94255 69.427142,439.47548 70.55158,442.74114 71.862832,446.54936 74.061893,450.04619 76.466169,453.2775 79.79959,457.75757 84.899459,460.75492 88.102325,465.32923 91.726826,470.50572 93.916367,476.5631 96.413866,482.36789 101.55932,494.32715 105.92697,506.61585 110.12791,518.93866 112.23084,525.10727 114.07138,531.36389 115.87468,537.62665 118.15252,545.53744 119.80508,553.62681 122.28047,561.47803 123.97353,566.84792 125.08657,572.56556 128.04813,577.35423 129.38557,579.51678 131.35065,581.25376 133.29938,582.88711 135.28232,584.54913 137.42247,586.09079 139.77648,587.16459 143.55832,588.88971 143.5493,581.12912 144.39824,577.73237 145.66789,572.65232 145.08196,567.26689 144.93554,562.03263 144.6878,553.17649 143.84993,544.3244 142.54291,535.56174 141.14412,526.18381 139.28171,516.8485 136.72484,507.71808 134.14921,498.52067 131.10504,489.40699 127.16657,480.70558 123.30506,472.17422 118.74908,463.90936 113.45252,456.18654 109.27937,450.10172 104.20732,444.67804 99.322905,439.14788 96.109988,435.5102 92.370492,432.33844 89.349057,428.54022 86.310264,424.72018 83.548064,420.65149 81.209654,416.36677 78.808858,411.96774 80.188747,403.22615 75.219438,402.5771 73.878099,402.40191 73.303854,404.54826 72.700767,405.75912 Z"
 style="fill:#000000;fill-opacity:1;stroke:none;stroke-width:1px;stroke-linecap:butt;stroke-linejoin:miter;stroke-opacity:1" />
<path
 id="path1507"
 d="M 106.96406,399.95215 C 112.91981,401.81084 118.2632,405.43538 124.30165,407.00472 129.74602,408.41966 135.43154,408.81851 141.05151,409.06172 146.53521,409.29903 152.03267,408.86562 157.50752,408.47401 166.64626,407.82033 175.76183,406.79984 184.83625,405.53543 195.17144,404.09534 205.50152,402.49522 215.69127,400.246 232.14223,396.61472 248.0291,390.69188 264.47159,387.02242 286.50729,382.10472 308.97739,379.38204 331.1772,375.26813 334.70939,374.61357 338.20028,373.72224 341.75606,373.21113 351.10465,371.86736 360.52173,370.54376 369.96637,370.56641 376.95469,370.58317 384.0446,370.95249 390.83024,372.62341 395.13974,373.68459 399.70509,374.8483 403.17224,377.61898 406.52608,380.29912 409.31777,384.07605 410.51867,388.19785 412.57527,395.25666 410.77934,402.97411 409.6371,410.23715 407.31473,425.00423 401.40241,438.98019 397.58895,453.43417 391.89811,475.00388 387.68969,496.96604 381.4268,518.37664 378.93096,526.90906 377.99372,536.35895 372.90494,543.64838 369.23591,548.9041 363.96407,553.56765 357.91822,555.69652 356.53234,556.18452 354.53392,556.75062 353.51036,555.69652 351.1893,553.30619 353.70577,549.03575 353.80421,545.70538 354.09663,535.81214 355.30028,525.90426 354.68579,516.02579 354.32885,510.28765 353.28469,504.59518 352.04107,498.98206 350.51891,492.11175 340.96722,483.45064 346.16392,478.70591 347.95051,477.0747 350.712,480.36787 352.92264,481.35063 356.12492,482.77422 358.96226,485.06952 362.32607,486.05234 364.12235,486.57717 366.78608,487.66504 367.90936,486.64006 375.33384,479.8653 377.39931,473.54486 387.59781,426.69316 389.15639,419.5331 393.35995,410.06072 392.00567,401.71529 391.14915,396.43717 388.9594,390.3464 384.36537,387.61014 380.74666,385.4548 375.92792,387.27263 371.72951,387.61014 347.89277,389.52637 324.28295,394.01464 300.9099,399.07057 273.9226,404.90832 247.50774,413.15378 220.9807,420.81602 209.07349,424.25537 196.88825,429.19585 185.42396,431.68874 170.62266,434.90726 150.40265,450.97501 142.22694,445.79389 133.41277,440.20816 122.87335,433.33086 115.19207,424.93002 110.64476,419.95673 106.20705,414.35531 104.31935,407.88629 103.52363,405.1594 102.10354,401.14188 104.31934,399.36443 105.02378,398.79935 106.10199,399.68311 106.96406,399.95215 Z"
 style="fill:#000000;fill-opacity:1;stroke:none;stroke-width:1px;stroke-linecap:butt;stroke-linejoin:miter;stroke-opacity:1" />
<path
 id="path1509"
 d="M 168.08639,353.22883 C 171.70469,351.9424 175.79641,353.57877 179.54682,354.40426 182.78384,355.11675 185.97173,356.18264 188.95026,357.63669 193.467,359.84166 197.51868,362.91196 201.58612,365.8647 204.74293,368.15637 207.79412,370.60383 210.6957,373.21113 213.6838,375.89618 216.78662,378.53475 219.21756,381.73299 220.78355,383.79327 222.33479,386.00113 223.03771,388.49171 223.78315,391.13295 223.33533,393.9753 223.33156,396.71971 223.32457,401.817 223.45463,406.9528 222.74385,412.0003 221.82953,418.4932 219.91092,424.81601 218.04213,431.10102 215.6759,439.05898 212.87395,446.89173 209.81413,454.60961 206.6142,462.68091 202.85069,470.51812 199.23526,478.41205 196.84508,483.63078 195.49523,489.52084 191.88883,493.98649 189.2547,497.24821 185.70136,499.8634 181.89768,501.62677 178.98669,502.9763 175.34454,505.1572 172.49425,503.68378 169.37507,502.07136 169.48711,497.31876 168.38024,493.98649 166.82253,489.29693 163.94364,484.44441 164.85396,479.58748 165.07422,478.41228 166.08567,477.51407 166.91096,476.64891 168.79073,474.67833 171.61747,473.73297 173.37582,471.65333 177.53501,466.73417 179.87671,460.49958 182.4854,454.60961 185.43387,447.95249 188.42283,441.18279 189.83183,434.03959 191.46381,425.76599 191.59713,417.18022 191.00726,408.76786 190.63772,403.49772 189.97455,398.12076 188.06868,393.19343 185.37176,386.22094 180.4913,380.29289 176.31439,374.0927 174.00478,370.66432 171.17769,367.59514 168.96796,364.10155 167.42176,361.657 164.43393,359.3231 164.85396,356.46126 165.07523,354.95363 166.65065,353.73928 168.08639,353.22883 Z"
 style="fill:#000000;fill-opacity:1;stroke:none;stroke-width:1px;stroke-linecap:butt;stroke-linejoin:miter;stroke-opacity:1" />
<path
 id="path1511"
 d="M 261.82687,316.79052 C 264.22479,315.63689 267.20019,316.94888 269.76102,317.6721 273.30319,318.67247 276.63167,320.42184 279.75217,322.37381 283.59109,324.77517 286.88374,327.95969 290.33103,330.89567 292.33756,332.60459 294.08456,334.62408 296.20818,336.18511 298.68517,338.0059 301.57124,339.20151 304.14233,340.88682 305.96129,342.07912 308.33127,342.83104 309.43176,344.70697 311.57735,348.36441 311.38987,353.13077 310.90104,357.34283 309.90445,365.93002 304.48517,373.42795 302.08532,381.73299 300.05318,388.76553 298.75223,395.99339 297.38361,403.18458 296.12209,409.81295 293.51654,416.44943 294.15118,423.16687 294.4747,426.59113 295.98611,429.86925 297.67747,432.86417 299.2873,435.71473 301.22627,438.54452 303.84847,440.50445 306.31086,442.34494 309.37525,443.33774 312.37033,444.03074 316.95996,445.09269 321.92662,443.68744 326.47548,444.91232 328.80192,445.53876 331.06233,446.63549 332.94034,448.14475 335.00326,449.8026 336.39039,452.16738 337.93592,454.31575 339.42758,456.38923 341.94982,458.22828 342.04992,460.78061 342.18901,464.32722 339.71847,467.83877 337.05435,470.18404 333.51761,473.29749 328.51159,474.6392 323.83077,475.17962 318.62876,475.78021 313.30582,474.5098 308.25633,473.12261 303.94033,471.93693 299.83874,469.98554 295.91432,467.83318 291.34067,465.32475 286.41639,462.94599 282.9846,459.01747 278.51761,453.90391 275.97476,447.25537 273.87503,440.79831 270.92696,431.73246 270.04594,422.08113 269.17331,412.58801 268.68009,407.22236 269.01347,401.81247 268.87945,396.42586 268.64789,387.11862 268.47656,377.80722 267.99788,368.50941 267.57375,360.27135 268.56743,351.73767 266.23473,343.8254 264.62314,338.35907 259.29671,334.3897 258.00673,328.83867 257.51844,326.73748 257.65409,324.43184 258.30058,322.37381 258.96026,320.27378 259.84328,317.74482 261.82687,316.79052 Z"
 style="fill:#000000;fill-opacity:1;stroke:none;stroke-width:1px;stroke-linecap:butt;stroke-linejoin:miter;stroke-opacity:1" />
<path
 id="path1513"
 d="M 147.51637,532.77565 C 157.02083,534.30413 165.62503,532.79403 174.55125,531.60022 186.4915,530.00331 198.21904,527.07771 210.10798,525.13536 222.90436,523.04476 235.76192,521.34574 248.60329,519.55207 261.71947,517.72001 274.92331,516.47832 287.98017,514.26264 295.1772,513.04134 302.22241,511.00116 309.43176,509.85478 314.59157,509.0343 319.78335,507.95471 325.0062,508.09164 330.36675,508.23217 335.67774,509.41385 340.87449,510.73635 346.09805,512.06568 351.3205,513.64259 356.15507,516.02579 360.78493,518.30808 368.01376,519.49816 369.08479,524.54765 370.0263,528.98654 365.73968,533.86807 361.73836,536.00808 357.07332,538.50308 351.14075,536.16985 345.87007,535.71423 340.1422,535.21909 334.57277,533.24902 328.82634,533.06951 318.10991,532.73474 307.45464,534.84837 296.79589,536.00808 283.54607,537.4497 270.30645,539.03154 257.12515,541.00366 247.4897,542.44527 237.84366,543.91213 228.32714,545.99923 217.53539,548.36601 206.83376,551.19939 196.29669,554.5211 192.21816,555.80682 188.11624,557.10458 184.24854,558.92896 179.52321,561.15789 175.94539,566.53447 170.7311,566.8631 168.49758,567.00387 166.33893,565.5764 164.5601,564.21839 160.68128,561.25718 158.34281,556.68843 155.45052,552.75795 153.69537,550.37279 151.99158,547.94298 150.45495,545.41152 148.20359,541.70259 142.73911,538.0055 144.28394,533.95108 144.69216,532.87971 146.38441,532.59361 147.51637,532.77565 Z"
 style="fill:#000000;fill-opacity:1;stroke:none;stroke-width:1px;stroke-linecap:butt;stroke-linejoin:miter;stroke-opacity:1" />
</g>
</svg>
