<?xml version="1.0" encoding="UTF-8" standalone="no"?>
<svg
 xmlns:dc="http://purl.org/dc/elements/1.1/"
 xmlns:cc="http://creativecommons.org/ns#"
 xmlns:rdf="http://www.w3.org/1999/02/22-rdf-syntax-ns#"
 xmlns:svg="http://www.w3.org/2000/svg"
 xmlns="http://www.w3.org/2000/svg"
 id="svg8"
 version="1.1"
 viewBox="0 0 512 512"
 height="512"
 width="512">
<defs
 id="defs2" />
<metadata
 id="metadata5">
<rdf:RDF>
<cc:Work
 rdf:about="">
<dc:format>image/svg+xml</dc:format>
<dc:type
 rdf:resource="http://purl.org/dc/dcmitype/StillImage" />
<dc:title></dc:title>
</cc:Work>
</rdf:RDF>
</metadata>
<g
 transform="translate(0,-161.53129)"
 id="layer1" />
<path
 id="path25"
 d="M 125,70.035713 C 128.7101,68.033018 133.10585,72.960221 137.32143,72.892856 147.05156,72.737368 156.15446,67.979673 165.53571,65.392856 175.56169,62.62826 185.71459,60.24324 195.53571,56.821428 203.10893,54.182818 210.07102,49.877676 217.76786,47.624999 219.71208,47.055974 221.72597,46.637782 223.75,46.55357 228.49905,46.355981 234.65343,44.465227 237.94643,47.892857 238.71045,48.688115 238.15563,50.094056 238.125,51.196428 238.04183,54.189415 237.86423,57.219056 237.14285,60.124999 236.3639,63.262866 235.58438,66.612832 233.57143,69.142856 232.26589,70.783752 230.14795,71.566841 228.39286,72.714285 225.93188,74.323227 223.51029,76.017671 220.89286,77.357142 218.25566,78.706731 215.48987,79.815746 212.67857,80.749999 209.93854,81.660567 207.05167,82.064388 204.28571,82.892856 200.78739,83.940682 197.37088,85.245004 193.92857,86.464285 191.95838,87.162133 189.97358,87.824004 188.03571,88.607142 183.02062,90.633861 178.00764,92.707774 173.21429,95.214285 170.87133,96.439455 168.63509,97.864798 166.42857,99.321428 164.04362,100.89585 161.83142,102.72034 159.46429,104.32143 158.82144,104.75625 158.2512,105.37642 157.5,105.57143 156.51887,105.82612 155.44603,105.6452 154.46429,105.39286 151.78248,104.70355 149.36037,103.20924 146.96428,101.82143 144.52105,100.40632 142.37972,98.519496 140,96.999999 138.89459,96.294172 137.70747,95.721324 136.60714,95.007601 135.07333,94.012705 133.57216,92.961382 132.14286,91.821428 131.02213,90.927579 130.03066,89.881018 128.92857,88.964285 127.88505,88.096265 126.58114,87.508778 125.71429,86.464285 124.30315,84.76397 123.25012,82.705838 122.67857,80.571428 122.35487,79.362601 122.30965,78.058282 122.5,76.821428 122.86667,74.438948 122.87878,71.180737 125,70.035713 Z"
 style="fill:#000000;stroke:none;stroke-width:1px;stroke-linecap:butt;stroke-linejoin:miter;stroke-opacity:1;fill-opacity:1" />
<path
 id="path27"
 d="M 146.9772,14.752409 C 147.8449,12.452063 150.50973,11.136795 152.78557,10.206723 155.86667,8.9475655 159.38408,9.2552002 162.70853,9.0919653 165.98366,8.9311524 169.28256,8.8956031 172.54482,9.227208 175.16731,9.4937808 177.77183,10.008315 180.31223,10.711799 182.90446,11.429637 185.51222,12.229215 187.88837,13.489718 190.17921,14.704965 192.18047,16.410942 194.20183,18.035405 195.87472,19.379819 197.58234,20.717312 199.00005,22.328553 201.15945,24.782723 203.71163,27.251741 204.55589,30.409773 205.10115,32.449355 204.54535,34.670759 204.05081,36.723227 203.1756,40.355547 201.12228,43.599132 199.75767,47.077291 198.87245,49.333575 197.92412,51.572935 197.23228,53.89582 195.82748,58.612499 194.85227,63.452607 193.94929,68.290494 193.20008,72.304525 192.83514,76.381626 192.18152,80.412325 191.41501,85.139195 190.24845,89.802617 189.65614,94.55446 189.21771,98.071782 189.17198,101.62708 188.89853,105.16106 188.66393,108.19296 188.30946,111.21614 188.14091,114.25243 187.97287,117.2794 188.41549,120.35836 187.88837,123.34381 187.33296,126.48954 187.32827,130.40998 184.85792,132.43518 184.33307,132.86545 183.51619,132.69936 182.83761,132.68772 180.70667,132.65117 178.5224,132.41868 176.52416,131.67757 174.11466,130.78393 171.82822,129.39969 169.95817,127.63696 168.46273,126.22734 166.95102,124.57218 166.42263,122.58619 165.94451,120.78912 166.56815,118.85484 166.92771,117.03035 167.37048,114.78364 168.51742,112.71344 168.94801,110.46436 169.345,108.39081 169.44086,106.26208 169.45309,104.15091 169.46652,101.83186 169.10149,99.525665 168.97865,97.209828 168.75663,93.024183 168.83302,88.822807 168.50421,84.644196 168.11309,79.673725 167.31515,74.743671 166.72376,69.793032 166.44983,67.499879 166.11279,65.213305 165.90487,62.913226 165.63597,59.938501 165.5222,56.951742 165.3512,53.969787 165.19053,51.167914 165.17334,48.35591 164.9074,45.562062 164.67389,43.108836 164.412,40.64841 163.89725,38.238456 163.45766,36.180394 162.98627,34.099719 162.12948,32.17754 161.08292,29.829612 159.77619,27.542567 158.067,25.622485 157.07277,24.505586 155.78929,23.675285 154.55334,22.833629 153.02578,21.793391 151.33865,21.008581 149.75512,20.05571 149.07467,19.646254 148.18241,19.449008 147.73481,18.793019 146.96245,17.661079 146.49356,16.034568 146.9772,14.752409 Z"
 style="fill:#000000;stroke:none;stroke-width:1px;stroke-linecap:butt;stroke-linejoin:miter;stroke-opacity:1;fill-opacity:1" />
<path
 id="path29"
 d="M 11.071429,163.78571 C 14.766858,162.08362 18.521314,167.22093 22.5,168.07143 24.366314,168.47038 26.322815,168.68279 28.214286,168.42857 32.952889,167.79168 37.219913,165.20467 41.785714,163.78571 47.688537,161.95123 53.707594,160.51234 59.642857,158.78571 65.971277,156.9447 72.221429,154.83657 78.571429,153.07143 83.576827,151.68006 88.671903,150.62544 93.676034,149.22952 97.71573,148.10263 101.70403,146.79896 105.71429,145.57143 110.71742,144.03998 115.66377,142.31358 120.71429,140.94652 125.7887,139.573 130.98303,138.67787 136.07143,137.35714 140.26584,136.26845 144.3613,134.81196 148.57143,133.78571 156.82626,131.77353 165.23213,130.44089 173.55348,128.72444 178.56314,127.6911 183.53058,126.43994 188.57143,125.57143 194.91764,124.47801 201.33447,123.84381 207.71664,122.98477 213.71545,122.17733 219.72122,121.42044 225.71429,120.57143 233.69911,119.44026 241.63317,117.93895 249.64286,117 258.38362,115.97535 267.19555,115.66363 275.94888,114.75254 280.2959,114.30008 284.7688,114.38449 288.96261,113.15436 290.38915,112.73593 292.14451,112.44932 292.98155,111.22072 293.57422,110.3508 293.43357,109.10096 293.21429,108.07143 293.01703,107.14528 292.15578,106.47192 291.86865,105.56957 291.50513,104.42715 290.76664,102.99957 291.42857,102 291.90709,101.2774 293.0646,101.21717 293.92857,101.28571 295.89299,101.44154 297.65102,102.68526 299.28571,103.78571 301.17243,105.05582 302.46009,107.0721 304.28571,108.42857 307.17811,110.57768 310.30934,112.45543 313.61475,113.89032 316.56342,115.17035 319.86144,115.47714 322.85714,116.64286 325.20125,117.55503 327.89248,118.1374 329.64286,119.9438 330.96695,121.31027 331.95064,123.25045 331.97698,125.15301 331.99218,126.25047 331.39492,127.33293 330.71429,128.19398 329.31409,129.96534 327.46547,131.86883 325.22716,132.16588 321.29257,132.68805 317.87722,129.14324 314.09445,127.94145 310.1732,126.69567 306.19818,125.55179 302.14286,124.85714 299.43389,124.39311 296.67673,124.18131 293.92857,124.14286 291.90146,124.1145 289.8831,124.57405 287.85714,124.5 285.71756,124.4218 283.63009,123.71291 281.48985,123.65573 271.9281,123.40025 262.38229,124.7867 252.88252,125.90319 246.68574,126.63148 240.56203,127.88693 234.39032,128.80366 230.19371,129.42702 225.99258,130.02152 221.78571,130.57143 213.93783,131.59729 206.05032,132.3158 198.21429,133.42857 192.47617,134.24342 186.71261,134.97374 181.05348,136.22444 175.38521,137.47716 169.89983,139.45203 164.28571,140.92857 157.52812,142.70585 150.68427,144.14415 143.92857,145.92857 132.08667,149.05644 120.20233,152.08977 108.57143,155.92857 96.120601,160.03799 84.035471,165.18233 71.785714,169.85714 64.039885,172.81314 55.876953,174.86587 48.571429,178.78571 43.681411,181.40949 40.240657,186.60319 35,188.42857 32.861003,189.17361 30.452174,189.13534 28.214286,188.78571 24.566146,188.21575 20.957838,186.862 17.857143,184.85714 16.01921,183.66876 14.410327,182.04725 13.214286,180.21429 11.957843,178.28877 11.333715,175.99989 10.714286,173.78571 10.160625,171.80662 9.4641907,169.76159 9.6428572,167.71429 9.7639998,166.32615 9.8058055,164.36865 11.071429,163.78571 Z"
 style="fill:#000000;stroke:none;stroke-width:1px;stroke-linecap:butt;stroke-linejoin:miter;stroke-opacity:1;fill-opacity:1" />
<path
 id="path31"
 d="M 293.15478,30.163956 C 289.58108,27.824313 284.63532,32.724868 281.62426,35.754512 277.62137,39.782101 277.85123,46.708316 274.28665,51.128541 271.42029,54.682943 266.88147,56.496312 263.45495,59.514374 258.01638,64.304633 253.0685,69.630204 248.08092,74.888403 244.49151,78.67257 240.97537,82.531315 237.61619,86.521265 233.7298,91.137426 230.02,95.903737 226.41752,100.74472 223.27315,104.9701 220.27224,109.30242 217.33286,113.67289 214.56937,117.78184 212.02969,122.03773 209.29644,126.16686 206.55529,130.30791 203.66384,134.34795 200.91061,138.48098 195.8242,146.11647 191.0648,153.9689 185.88598,161.54202 177.87647,173.25454 169.61526,184.80007 161.07789,196.13359 157.2364,201.23324 153.12869,206.12701 149.19796,211.15821 144.03469,217.76702 139.04331,224.50997 133.82393,231.07456 126.8641,239.82818 119.70636,248.423 112.56989,257.03322 108.52167,261.91744 104.31385,266.66981 100.33754,271.61274 97.324246,275.35855 89.441837,278.70478 91.531432,283.03428 93.135728,286.35828 99.178319,284.57306 102.60293,283.19656 104.78272,282.32041 106.01961,279.9664 107.6182,278.24488 111.48106,274.08499 114.86934,269.50496 118.65458,265.27433 121.58917,261.99444 124.81468,258.97967 127.70048,255.65677 132.80086,249.78384 137.38034,243.47762 142.29091,237.44508 146.93253,231.74294 151.8404,226.25585 156.34845,220.44754 160.90427,214.57768 165.05674,208.40536 169.46373,202.42296 174.54794,195.52124 179.91757,188.82738 184.83776,181.80779 190.91928,173.13133 196.40969,164.05453 202.30824,155.25265 207.25387,147.87272 212.2276,140.51025 217.33286,133.23983 223.27734,124.77427 229.31976,116.37573 235.50217,108.08233 240.06895,101.95622 244.54981,95.751877 249.47856,89.913023 253.57216,85.063527 257.71587,80.211103 262.40672,75.936633 267.50344,71.292323 272.71551,66.547185 278.82898,63.357882 281.21298,62.114183 284.51065,62.703352 286.51599,60.912014 290.13195,57.681933 291.34908,52.354971 292.45596,47.634442 293.78647,41.960193 298.03089,33.35627 293.15478,30.163956 Z"
 style="fill:#000000;fill-opacity:1;stroke:none;stroke-width:1px;stroke-linecap:butt;stroke-linejoin:miter;stroke-opacity:1" />
<path
 id="path33"
 d="M 141.81818,172.03168 C 138.84454,172.60401 137.04448,175.91636 135.39436,178.4555 133.51916,181.34099 132.59484,184.77149 131.68831,188.09123 130.29959,193.17679 129.34813,198.42448 129.07545,203.68919 128.81083,208.79844 129.5065,213.91868 130.03376,219.00753 130.60725,224.54255 131.61605,230.0238 132.42952,235.52867 133.5618,243.19093 134.69081,250.85387 135.8885,258.50618 136.92065,265.10085 137.95457,271.69591 139.10041,278.27178 140.33711,285.36905 141.56188,292.47171 143.05353,299.5198 144.45565,306.14485 145.99179,312.74525 147.74786,319.2854 148.63974,322.60706 148.57275,326.47571 150.7127,329.1682 151.95209,330.7276 154.10414,331.27368 155.90117,332.13304 157.7362,333.01058 159.6541,334.9999 161.58378,334.35667 163.51346,333.71344 163.86133,330.97495 164.79569,329.1682 165.86371,327.10299 167.1701,325.04391 167.51346,322.74438 168.68739,314.88252 165.98822,306.91825 165.04276,299.02566 163.66524,287.52634 161.93554,276.07195 160.3784,264.59558 158.81598,253.08031 157.21657,241.57003 155.68407,230.05074 154.96088,224.61478 154.12978,219.19104 153.56021,213.73685 152.89484,207.36527 152.73066,200.94758 152.05039,194.57757 151.87336,192.91989 151.53622,191.28109 151.38154,189.62118 151.23214,188.01795 151.16976,186.40684 151.1319,184.79711 151.10248,183.54625 151.22985,182.29215 151.14946,181.04353 151.0634,179.70672 151.3155,178.20256 150.6155,177.06043 149.59959,175.40285 147.51796,174.68633 145.81626,173.74618 144.54702,173.04496 143.24211,171.75762 141.81818,172.03168 Z"
 style="fill:#000000;stroke:none;stroke-width:1px;stroke-linecap:butt;stroke-linejoin:miter;stroke-opacity:1;fill-opacity:1" />
<path
 id="path35"
 d="M 174.92556,176.97308 C 177.99517,174.72852 182.08658,179.59779 185.79664,180.43206 188.79662,181.10665 191.86458,181.75482 194.93823,181.66741 197.53762,181.59349 200.12679,180.99637 202.5974,180.18499 206.06234,179.04706 209.09687,176.85221 212.4802,175.49066 216.34587,173.935 220.3323,172.68008 224.33956,171.53754 227.75896,170.56261 231.16212,169.16264 234.7165,169.06684 238.39827,168.96761 242.01971,170.12932 245.58758,171.0434 250.8856,172.40073 256.61012,173.18659 261.15299,176.23187 263.77224,177.98767 265.64547,180.73109 267.32974,183.3969 268.96445,185.98428 270.71373,188.75375 271.03579,191.79728 271.5049,196.23045 268.9937,200.48557 268.31802,204.89199 267.56532,209.80066 267.33927,214.77575 266.8356,219.71619 266.18897,226.05891 265.57952,232.40582 264.85904,238.74058 264.02443,246.07879 263.00204,253.39463 262.14127,260.72981 260.9244,271.09945 259.50517,281.45231 258.68229,291.86063 257.99349,300.57296 256.62485,309.34929 257.44694,318.05005 257.64611,320.15804 258.68057,322.12408 258.92936,324.2268 259.27773,327.1711 259.15206,330.16486 258.92936,333.12132 258.51641,338.60337 258.51311,344.32867 256.45866,349.42794 254.91307,353.2642 252.33545,356.75547 249.29363,359.55781 247.74582,360.98376 245.94406,362.49085 243.85809,362.76972 239.54093,363.34687 234.40787,362.31844 231.25752,359.31074 228.75212,356.91879 228.69089,352.83118 228.04561,349.42794 227.53839,346.75284 227.19261,343.97363 227.55147,341.27463 228.6396,333.09083 233.13699,325.72591 235.45771,317.80298 237.55766,310.63377 239.70706,303.43648 240.89325,296.06082 242.30943,287.25508 242.39742,278.28363 242.86981,269.37726 243.55063,256.54107 243.77915,243.68444 244.10516,230.83434 244.32869,222.02347 245.44589,213.1708 244.5993,204.39785 244.25951,200.8767 244.73491,196.6568 242.37567,194.02091 241.33353,192.85657 239.49101,192.54301 237.92841,192.53849 228.91726,192.51245 220.68396,197.81077 212.23313,200.93887 208.80506,202.20778 205.68827,204.42529 202.10326,205.13906 199.11472,205.73407 195.78608,206.28279 192.96167,205.13906 189.56068,203.76184 187.55716,200.16407 185.05543,197.47989 181.82733,194.01637 178.17894,190.76644 175.91384,186.60881 175.37794,185.62515 175.09213,184.50462 174.92556,183.3969 174.60716,181.27943 173.19708,178.23697 174.92556,176.97308 Z"
 style="fill:#000000;stroke:none;stroke-width:1px;stroke-linecap:butt;stroke-linejoin:miter;stroke-opacity:1;fill-opacity:1" />
<path
 id="path37"
 d="M 137.61799,251.09408 C 141.74185,248.29313 147.46208,252.84708 152.44219,253.07064 158.20664,253.32941 164.11819,253.64239 169.73709,252.32943 178.06709,250.38297 185.33321,245.2922 193.20874,241.95249 198.44643,239.73139 203.36062,236.09815 209.02122,235.52867 211.68909,235.26027 214.53128,235.8078 216.92746,237.01109 218.22954,237.66496 219.45492,238.68966 220.13937,239.97593 221.15708,241.88848 221.34264,244.24398 221.12765,246.39975 220.86651,249.01831 220.0622,251.7637 218.40988,253.81185 216.5736,256.08803 213.56826,257.11136 210.99778,258.50618 207.17567,260.58017 203.13496,262.22777 199.13842,263.94172 194.65479,265.86456 190.27608,268.16883 185.54957,269.37726 180.88816,270.56904 176.02219,270.81798 171.21951,271.10675 166.69806,271.37861 162.1274,271.65151 157.63066,271.10675 152.4948,270.48456 147.45032,269.08682 142.55939,267.4007 140.85179,266.81201 139.06954,266.25198 137.61799,265.17707 136.91443,264.65607 136.22036,264.01064 135.8885,263.20051 135.35686,261.9027 135.51103,260.39673 135.64143,259.00032 135.894,256.29557 135.3708,252.62039 137.61799,251.09408 Z"
 style="fill:#000000;stroke:none;stroke-width:1px;stroke-linecap:butt;stroke-linejoin:miter;stroke-opacity:1;fill-opacity:1" />
<path
 id="path39"
 d="M 124.02914,309.15553 C 126.65165,307.16018 130.62959,309.69439 133.91194,309.4026 137.17785,309.11227 140.34345,308.12133 143.54767,307.42604 150.40061,305.939 157.24435,304.40388 164.05448,302.73171 169.09835,301.49323 174.12728,300.18919 179.12575,298.77859 186.2469,296.76896 193.05407,293.43705 200.37377,292.35477 202.49201,292.04157 204.67779,292.05227 206.79759,292.35477 212.19003,293.12429 218.12227,293.66615 222.48654,296.92556 225.23208,298.97604 226.78154,302.38797 228.04561,305.57302 228.86627,307.64082 230.61369,310.36212 229.26857,312.1341 225.89685,316.57579 218.16542,313.19694 212.60373,313.6028 211.47811,313.68494 210.34124,313.64179 209.22353,313.79835 198.70695,315.27146 188.34722,317.84728 178.13747,320.76782 169.74841,323.16754 161.82573,327.03735 153.43047,329.41527 148.23923,330.88567 142.96511,332.15358 137.61799,332.87425 136.06509,333.08355 134.45554,333.45094 132.92366,333.12132 130.11489,332.51695 127.06396,331.40792 125.26449,329.1682 122.64953,325.91346 122.08254,321.23675 122.05258,317.06177 122.03308,314.34532 121.86724,310.80042 124.02914,309.15553 Z"
 style="fill:#000000;stroke:none;stroke-width:1px;stroke-linecap:butt;stroke-linejoin:miter;stroke-opacity:1;fill-opacity:1" />
<path
 id="path41"
 d="M 340.9566,111.25245 C 337.11942,116.38584 347.38538,122.44913 349.35698,128.54736 351.4146,134.91166 352.28233,141.64562 352.81596,148.31296 353.78849,160.464 352.40418,172.6897 352.32182,184.87932 352.24503,196.24428 352.32182,207.60976 352.32182,218.97498 352.32182,229.02249 352.19304,239.07083 352.32182,249.11752 352.40418,255.54292 352.7336,261.96358 352.81596,268.38898 352.92996,277.28277 352.81596,286.17802 352.81596,295.07254 352.81596,303.96706 352.73361,312.86196 352.81596,321.7561 352.98068,339.54743 353.26735,357.33923 353.80424,375.12322 354.13186,385.97545 354.96058,396.81101 355.16676,407.66623 355.35488,417.57073 356.39353,427.56983 355.05201,437.38486 354.08054,444.49247 352.51379,451.69697 349.35698,458.13874 347.1825,462.57598 341.82036,465.24694 340.46246,469.9981 339.41748,473.6544 340.36265,477.71961 341.45074,481.36332 343.45314,488.06883 347.36916,494.12957 351.39863,499.85118 354.06299,503.63442 356.1536,511.06446 360.69222,510.16303 367.68224,508.77473 366.1726,496.9435 367.84998,490.01716 369.5522,482.98823 370.28885,475.73253 370.74458,468.5148 371.45249,457.30318 370.65855,446.04656 370.4851,434.81395 370.29229,422.32727 369.88757,409.84475 369.61672,397.35952 369.26298,381.05341 368.79316,364.74878 368.62844,348.43966 368.49536,335.26327 368.75274,322.08494 368.62844,308.90846 368.54608,300.17749 368.30952,291.44864 368.1343,282.71904 367.82351,267.2356 367.39773,251.75439 367.14602,236.26988 366.90773,221.6114 366.27674,206.94703 366.65188,192.29142 366.98972,179.09297 367.22037,165.82525 369.12258,152.76022 369.81781,147.98516 372.56551,143.47625 372.37688,138.65453 372.1713,133.39974 370.56815,127.97425 367.64016,123.60596 364.77509,119.33153 360.45829,115.86803 355.7808,113.72315 351.22716,111.63507 343.9559,107.23998 340.9566,111.25245 Z"
 style="fill:#000000;stroke:none;stroke-width:1px;stroke-linecap:butt;stroke-linejoin:miter;stroke-opacity:1;fill-opacity:1" />
<path
 id="path43"
 d="M 356.74735,73.840174 C 360.31526,71.41219 365.3632,74.368577 369.67551,74.538994 374.33213,74.723017 379.00281,75.210825 383.6519,74.888403 389.3633,74.492307 394.98635,73.225971 400.59827,72.093125 407.46564,70.70685 414.19884,68.717341 421.03875,67.201389 426.72542,65.941034 433.74898,67.511379 438.15983,63.707291 443.32156,59.255611 441.76349,50.406332 445.14802,44.489755 446.87332,41.473727 449.16542,38.73399 451.78681,36.453331 453.12807,35.286407 454.55688,33.798885 456.32913,33.658053 461.48237,33.248549 466.55687,36.446918 470.65493,39.598019 474.60685,42.636749 476.88787,47.389038 479.73959,51.47795 482.97422,56.115885 486.21941,60.784972 488.82424,65.80375 490.50815,69.048165 492.67767,72.297057 493.01716,75.936633 493.25477,78.483939 492.69319,81.215827 491.44482,83.448942 489.99755,86.037857 487.42333,87.881127 484.98073,89.563613 482.10641,91.543471 478.44817,92.166119 475.54667,94.10594 470.60959,97.406672 466.02978,101.38947 462.2691,105.98587 449.44287,121.66244 442.40473,141.31481 431.52104,158.39733 427.71928,164.36439 422.54557,169.49775 419.4664,175.86782 418.51237,177.84148 416.94366,180.04905 417.54465,182.1572 418.22351,184.53851 421.19652,185.50849 423.13521,187.04893 425.94435,189.28101 429.18546,190.95835 431.87045,193.33831 436.37327,197.32958 440.36387,201.89904 444.09979,206.61588 446.80747,210.0345 449.23453,213.68383 451.4374,217.44758 454.72621,223.06675 457.33041,229.06033 460.17264,234.91807 463.03842,240.82435 466.32276,246.56558 468.55847,252.73797 470.44412,257.94391 472.56922,263.2769 472.75139,268.81082 472.98549,275.92236 470.63683,282.91938 468.73318,289.7754 467.6044,293.84072 465.85509,297.70789 464.36556,301.65533 463.68213,303.4665 463.26268,305.4098 462.2691,307.07118 461.44239,308.45353 460.70114,310.41091 459.12441,310.73998 455.19798,311.55945 451.49374,307.91581 448.29271,305.49883 442.56518,301.17418 438.52506,294.9695 433.96691,289.42599 430.90443,285.70147 428.98882,280.91783 425.23167,277.89547 418.73486,272.66925 410.16195,270.74829 402.52003,267.41317 398.595,265.70019 394.33271,264.6905 390.6401,262.52144 388.13851,261.05199 385.38637,259.55189 383.82661,257.10559 381.28275,253.11583 377.17398,246.66232 380.50722,243.3039 382.31829,241.47915 385.50574,244.51193 388.01953,245.05095 391.26914,245.74775 394.47954,246.96186 397.803,246.97271 401.24082,246.98393 404.50024,245.17374 407.93588,245.05095 413.9708,244.83527 420.01789,245.91938 425.93048,247.14741 431.05323,248.21139 437.33749,255.46963 440.9551,251.68974 445.81971,246.60691 437.22232,238.01052 433.96691,231.77338 431.11016,226.30005 427.19065,221.40405 423.13521,216.74876 420.80843,214.07782 418.29032,211.52543 415.44819,209.41116 412.70694,207.37193 409.30298,206.35198 406.53824,204.34472 403.66943,202.26191 400.51318,200.21412 398.67652,197.18182 396.30553,193.26735 395.30124,188.47925 395.18243,183.90425 395.1083,181.04992 395.84159,178.15834 396.92948,175.51841 399.04654,170.38104 402.98964,166.20324 406.01413,161.54202 409.33762,156.42 412.70997,151.32918 415.9723,146.16799 420.35896,139.22804 424.70482,132.26048 428.90046,125.20341 432.43302,119.26164 437.43034,113.88887 439.20806,107.2088 440.10665,103.83223 441.50252,99.361681 439.20805,96.726513 437.81815,95.130236 435.02383,95.633306 432.91868,95.852993 422.3289,96.958113 412.52243,102.19197 402.86944,106.68469 397.49947,109.184 392.57289,112.54468 387.49541,115.59464 384.8496,117.18394 382.71198,120.26198 379.6337,120.48638 377.1627,120.66651 374.68686,119.14546 372.8202,117.51639 370.45742,115.45434 369.43591,112.22996 367.92847,109.47997 364.62347,103.45072 361.42276,97.334941 358.84381,90.961252 357.28269,87.103052 354.9819,83.243347 355.00031,79.08132 355.00846,77.239788 355.22488,74.876223 356.74735,73.840174 Z"
 style="fill:#000000;stroke:none;stroke-width:1px;stroke-linecap:butt;stroke-linejoin:miter;stroke-opacity:1;fill-opacity:1" />
</svg>
