<?xml version="1.0" encoding="UTF-8" standalone="no"?>
<svg
 xmlns:dc="http://purl.org/dc/elements/1.1/"
 xmlns:cc="http://creativecommons.org/ns#"
 xmlns:rdf="http://www.w3.org/1999/02/22-rdf-syntax-ns#"
 xmlns:svg="http://www.w3.org/2000/svg"
 xmlns="http://www.w3.org/2000/svg"
 id="svg8"
 version="1.1"
 viewBox="0 0 512 512"
 height="512"
 width="512">
<defs
 id="defs2" />
<metadata
 id="metadata5">
<rdf:RDF>
<cc:Work
 rdf:about="">
<dc:format>image/svg+xml</dc:format>
<dc:type
 rdf:resource="http://purl.org/dc/dcmitype/StillImage" />
<dc:title></dc:title>
</cc:Work>
</rdf:RDF>
</metadata>
<g
 transform="translate(0,-161.53331)"
 id="layer1">
<path
 id="path830"
 d="M 115.48593,276.23821 C 119.32097,273.18575 125.30188,275.15981 130.17879,275.6505 132.83805,275.91806 135.48205,276.57408 137.96602,277.56057 141.1051,278.80724 143.97926,280.67087 146.78173,282.55614 149.99307,284.71647 153.24594,286.93045 155.8913,289.75565 160.19969,294.35693 163.37084,299.92678 166.6171,305.33009 169.57276,310.2497 172.31454,315.32524 174.55125,320.61066 177.02597,326.45852 179.51437,332.42222 180.57532,338.6829 181.7456,345.58873 184.01178,353.43397 180.86918,359.69369 179.5945,362.23273 176.8038,364.62294 173.96354,364.68927 170.745,364.76443 168.15988,361.67535 165.88246,359.39983 163.35522,356.87469 161.70171,353.58132 160.00532,350.43718 157.141,345.12837 155.42721,339.26712 152.80581,333.83425 150.27308,328.58517 147.59393,323.39377 144.5778,318.40673 138.90463,309.02639 133.00323,299.71221 126.06479,291.22494 122.60128,286.9883 115.97538,284.76831 114.60435,279.47064 114.32453,278.38943 114.6121,276.93372 115.48593,276.23821 Z"
 style="fill:#000000;stroke:none;stroke-width:1px;stroke-linecap:butt;stroke-linejoin:miter;stroke-opacity:1;fill-opacity:1" />
<path
 id="path832"
 d="M 169.26182,264.92471 C 172.80059,259.27136 182.6184,264.65993 189.24411,263.89621 196.65951,263.04147 204.01,261.60731 211.28341,259.92913 218.12705,258.35011 224.76994,255.99601 231.55957,254.19891 239.45994,252.10782 247.52711,250.64619 255.36201,248.32177 258.79218,247.30412 262.37786,246.54288 265.50008,244.79548 268.5372,243.09571 271.05876,240.58176 273.58117,238.18369 275.11405,236.72637 276.26233,234.88833 277.8421,233.48197 280.04486,231.521 282.59008,229.97886 285.0416,228.33947 286.57791,227.31211 287.91442,225.66704 289.74332,225.4009 293.56475,224.84481 297.5141,226.64762 300.9099,228.4864 302.86272,229.54383 305.10289,230.82362 305.90547,232.89426 306.72448,235.00726 305.59075,237.42605 305.17082,239.65298 304.71951,242.04635 303.94245,244.36735 303.26075,246.70556 302.34158,249.85826 301.38601,253.00211 300.32218,256.10899 299.32315,259.02663 298.16259,261.88646 297.08975,264.77778 295.90921,267.95935 294.76953,271.15617 293.56346,274.32814 291.84384,278.85075 290.59252,283.59875 288.27403,287.84558 286.07238,291.87838 282.77774,295.21353 280.19296,299.01216 277.83889,302.47173 275.53575,305.97246 273.43424,309.59102 271.79493,312.41371 271.06422,315.83459 268.87945,318.25981 265.92465,321.53981 262.08503,324.32694 257.8598,325.60624 254.71919,326.55714 251.1817,326.4684 248.01558,325.60624 247.08356,325.35244 245.81581,325.0558 245.51779,324.13696 244.08329,319.71413 249.53993,315.73389 251.10108,311.35416 252.80873,306.56342 254.41208,301.68349 255.21508,296.6613 255.74141,293.36949 256.64628,289.85325 255.65587,286.67015 254.90796,284.26642 253.44329,281.56877 251.10108,280.64608 248.18688,279.49805 244.87047,281.45326 241.84458,282.26229 232.72912,284.69949 224.10417,288.69713 215.25048,291.95958 210.64094,293.65814 205.97665,295.2194 201.43919,297.10208 197.20865,298.85742 193.48777,303.45658 188.95026,302.8323 186.85044,302.5434 185.37971,300.40921 184.10161,298.7183 180.46725,293.91005 179.03312,287.78024 176.60825,282.26228 174.08306,276.51605 165.93156,270.24496 169.26182,264.92471 Z"
 style="fill:#000000;stroke:none;stroke-width:1px;stroke-linecap:butt;stroke-linejoin:miter;stroke-opacity:1;fill-opacity:1" />
<path
 id="path834"
 d="M 153.83431,334.12811 C 154.36307,337.67624 155.4096,341.13583 156.47902,344.56004 157.52312,347.90319 158.77648,351.18338 160.15224,354.40426 161.43428,357.40574 162.88776,360.33457 164.41317,363.21998 165.2848,364.86872 166.10429,366.563 167.20481,368.06863 168.10493,369.30009 168.76781,371.35484 170.29032,371.44798 172.0931,371.55826 173.0791,369.14889 174.40431,367.9217 175.97972,366.46282 177.27265,364.69586 178.95911,363.36691 181.16926,361.6253 183.58084,360.08738 186.15861,358.95905 193.57257,355.71385 201.76523,354.66189 209.52027,352.34726 215.4723,350.57077 221.27721,348.28877 227.29864,346.76397 235.5205,344.68196 243.89572,343.21763 252.27651,341.91532 257.68512,341.07486 263.18445,340.89243 268.58559,340.00525 271.84625,339.46966 275.5589,339.81872 278.28288,337.94825 280.20903,336.62563 281.78343,334.38567 282.10303,332.0711 282.53104,328.9714 280.70584,325.90968 279.31139,323.10846 277.70027,319.872 275.60986,316.78768 272.99345,314.29274 270.84037,312.23961 268.43638,309.92293 265.50009,309.44409 261.60778,308.80936 257.79161,311.16782 254.03966,312.38266 250.73439,313.45287 247.60771,315.01637 244.34236,316.20281 239.97539,317.78951 235.51844,319.11701 231.11878,320.61067 227.14418,321.96002 223.20724,323.42056 219.21756,324.72467 212.73858,326.84246 206.26059,328.98635 199.67605,330.74874 195.8427,331.77476 192.00333,332.87787 188.06868,333.39346 184.08401,333.91561 180.0023,334.37809 176.02053,333.83425 172.65962,333.37521 169.58649,331.67482 166.32324,330.74875 163.21503,329.86668 160.09422,328.99963 156.91981,328.39788 155.80369,328.18631 154.37601,327.18748 153.54045,327.95711 152.02574,329.35227 153.53077,332.09127 153.83431,334.12811 Z"
 style="fill:#000000;stroke:none;stroke-width:1px;stroke-linecap:butt;stroke-linejoin:miter;stroke-opacity:1;fill-opacity:1" />
<path
 id="path836"
 d="M 105.55656,405.07056 C 108.38308,400.83212 115.74858,405.85084 120.72512,406.94066 127.18722,408.3558 133.23582,411.28537 139.63387,412.96652 142.91838,413.82956 146.21779,415.2473 149.60772,415.04441 163.25074,414.22786 175.29163,405.59834 188.46417,401.95373 201.9245,398.2295 215.68256,395.64997 229.39851,393.01883 240.63727,390.86289 252.05439,389.69151 263.26803,387.40854 269.90201,386.05794 276.61588,384.85995 283.00794,382.62941 288.9182,380.56699 294.48248,377.60141 300.0466,374.73344 306.14036,371.59247 311.25424,366.16893 317.91641,364.55181 319.53321,364.15936 321.43434,363.97849 322.90333,364.75959 325.78995,366.29448 327.55846,369.60006 328.72141,372.65555 330.05754,376.16607 331.20234,380.40775 329.76036,383.87613 328.17387,387.6921 323.53556,389.32947 320.20208,391.7721 317.93955,393.42999 315.20863,394.45212 313.13727,396.34345 309.82208,399.37051 307.17346,403.1142 304.82574,406.94066 300.79062,413.51735 297.78141,420.70738 295.05967,427.9273 290.37456,440.35539 288.48826,453.7188 283.8391,466.16038 281.91886,471.2991 282.46552,481.28122 276.98208,481.12116 269.92367,480.91513 270.08693,468.39799 269.29391,461.38125 268.54696,454.77229 270.98475,448.17987 272.20294,441.64134 273.41245,435.14943 275.66541,428.85887 276.5665,422.31701 277.11539,418.33202 279.91003,413.22874 277.18986,410.26528 274.42491,407.25301 269.00848,409.55394 264.93034,409.8497 243.94084,411.3719 223.24887,416.09188 202.80158,421.07028 192.52013,423.57356 182.30575,426.53183 172.46446,430.42076 163.79294,433.84744 156.64539,442.79334 147.32205,442.68029 136.48039,442.54882 126.25514,435.23441 118.43945,427.71951 112.17857,421.69958 100.73765,412.29665 105.55656,405.07056 Z"
 style="fill:#000000;stroke:none;stroke-width:1px;stroke-linecap:butt;stroke-linejoin:miter;stroke-opacity:1;fill-opacity:1" />
<path
 id="path838"
 d="M 195.73677,403.61604 C 194.58635,405.72728 196.81259,408.30654 197.19129,410.68085 199.0249,422.17706 199.80473,433.81676 201.13927,445.38153 201.89072,451.89345 202.57443,458.41393 203.42495,464.91365 204.11506,470.18752 204.18307,475.61083 205.71062,480.70558 206.78737,484.29679 207.64558,488.4445 210.48975,490.88722 212.90048,492.95767 216.76106,494.94992 219.63244,493.58847 225.60687,490.75573 225.56969,481.679 227.32062,475.30307 228.6539,470.44802 228.8492,465.34704 229.39851,460.3423 230.14906,453.504 230.348,446.61358 231.06082,439.77124 231.74091,433.24303 233.17308,426.79159 233.55428,420.23912 233.9284,413.80818 237.8219,405.54812 233.34649,400.91479 226.98811,394.33205 214.95035,398.18972 205.91841,399.66807 202.32612,400.25605 197.47848,400.41968 195.73677,403.61604 Z"
 style="fill:#000000;stroke:none;stroke-width:1px;stroke-linecap:butt;stroke-linejoin:miter;stroke-opacity:1;fill-opacity:1" />
<path
 id="path842"
 d="M 124.88089,477.38096 C 128.60499,476.95372 131.4312,481.04898 134.85474,482.57568 138.0976,484.0218 141.31039,485.83664 144.82859,486.31587 149.5135,486.95402 154.29285,485.8373 158.95821,485.06914 166.48366,483.83005 173.87948,481.83479 181.19158,479.66664 187.59718,477.76728 193.7329,475.04102 200.10033,473.0174 209.02236,470.18191 218.10059,467.86341 227.11283,465.32923 233.34097,463.57792 239.42562,461.15819 245.8138,460.13452 250.19559,459.43236 254.67465,459.48471 259.11226,459.51115 261.47123,459.5252 263.87945,459.39206 266.17707,459.92673 268.95853,460.574 271.58245,461.85404 274.07304,463.25134 275.93389,464.29533 278.01172,465.2667 279.26775,466.99153 280.59584,468.81531 281.42285,471.17821 281.34563,473.43299 281.2435,476.41517 279.94292,479.46195 278.02101,481.74453 277.34006,482.55328 276.26273,482.92871 275.31977,483.40683 271.71767,485.23325 267.96676,486.81505 264.09919,487.97818 260.7171,488.99531 257.19194,489.46656 253.70976,490.05606 248.7456,490.89645 243.7254,491.36946 238.74899,492.13395 232.15372,493.14713 225.55622,494.17052 219.00908,495.45856 214.06291,496.43164 209.16367,497.63113 204.2561,498.78318 198.28675,500.18448 192.31734,501.59129 186.38629,503.14674 180.68051,504.64312 175.01888,506.3035 169.34763,507.92587 164.35326,509.3546 159.37918,510.85354 154.38686,512.28943 149.75119,513.62274 145.10623,514.92351 140.46503,516.23741 137.27935,517.13926 134.21692,518.86966 130.90676,518.93866 129.41191,518.96982 127.70778,518.83744 126.5432,517.89972 124.92656,516.59799 124.49476,514.25967 123.84195,512.28943 123.15409,510.21343 122.86112,508.01875 122.59522,505.84798 122.27477,503.2319 122.3164,500.5841 122.17964,497.95202 122.0393,495.25086 121.80518,492.55276 121.76406,489.84827 121.71351,486.52332 120.55094,482.8809 121.97185,479.87442 122.51757,478.71974 123.61207,477.52652 124.88089,477.38096 Z"
 style="fill:#000000;stroke:none;stroke-width:1px;stroke-linecap:butt;stroke-linejoin:miter;stroke-opacity:1;fill-opacity:1" />
<path
 id="path844"
 d="M 101.45986,405.07056 C 98.504218,409.40064 105.43775,414.77556 107.63444,419.5358 109.72104,424.05747 112.64434,428.21189 114.28368,432.91422 116.47493,439.19965 117.75565,445.82511 118.43945,452.44634 118.89138,456.82231 118.42529,461.24487 118.38903,465.64397 118.31434,474.70593 118.03962,483.76634 118.04476,492.82861 118.05017,502.36402 117.60143,511.93361 118.43945,521.43213 119.11794,529.1225 120.15726,536.83822 122.17964,544.28886 124.58889,553.16476 127.78113,561.91545 132.10307,570.03375 135.52335,576.4584 139.12913,583.14783 144.6208,587.92445 150.60408,593.12867 158.45785,595.77098 165.81523,598.72945 172.93064,601.59062 180.31166,603.92017 187.84081,605.37868 198.49124,607.44183 209.41602,607.85501 220.25581,608.28772 234.51327,608.85686 248.80314,608.44998 263.06025,607.87214 282.4873,607.08476 301.83784,604.96002 321.24103,603.71637 352.94942,601.68402 384.78905,601.44184 416.40816,598.31387 431.27263,596.84338 446.21403,595.35747 460.77765,592.03845 467.86935,590.42227 475.18571,588.90901 481.57379,585.43098 484.44245,583.86913 487.74101,582.15161 489.13414,579.19733 490.19765,576.94205 489.55338,574.17491 489.13414,571.71694 488.22072,566.36167 485.82866,561.35215 483.73164,556.34059 481.05324,549.93963 478.00357,543.68003 474.58894,537.63963 473.2086,535.19784 472.00643,532.55273 470.01759,530.57482 468.38552,528.95172 466.37356,526.0994 464.19952,526.85551 460.19217,528.24922 461.47326,534.89164 460.04375,538.88636 458.69993,542.64164 458.25002,546.89311 455.88798,550.10694 453.60711,553.21033 450.17644,555.42232 446.74528,557.17175 439.6942,560.76685 431.71554,562.27199 423.95985,563.85051 405.34952,567.63829 386.22446,568.18908 367.37007,570.47021 350.7389,572.48236 334.16418,574.9784 317.50083,576.70387 297.31581,578.79401 277.07982,580.42183 256.82659,581.69079 237.59131,582.89597 218.18065,586.61375 199.06139,584.18425 187.28082,582.68728 175.61248,579.09195 164.98407,573.79483 159.92511,571.27348 155.04755,568.02581 151.27003,563.82098 146.99846,559.06621 144.03649,553.15187 141.71176,547.1979 138.97386,540.18576 137.7324,532.63228 136.72484,525.17232 134.70172,510.19315 133.39945,494.93803 134.64695,479.87442 135.62912,468.01471 138.89364,456.4185 142.12734,444.96596 143.48454,440.15928 146.28373,435.76142 147.11426,430.83634 147.65476,427.63112 148.61778,423.94001 147.06384,421.08505 144.69973,416.74162 139.03886,415.2393 134.64695,412.96653 128.63338,409.85456 122.38463,406.87396 115.75297,405.50703 111.08452,404.54476 104.14711,401.13368 101.45986,405.07056 Z"
 style="fill:#000000;stroke:none;stroke-width:1px;stroke-linecap:butt;stroke-linejoin:miter;stroke-opacity:1;fill-opacity:1" />
</g>
</svg>
