<?xml version="1.0" encoding="UTF-8" standalone="no"?>
<svg
 xmlns:dc="http://purl.org/dc/elements/1.1/"
 xmlns:cc="http://creativecommons.org/ns#"
 xmlns:rdf="http://www.w3.org/1999/02/22-rdf-syntax-ns#"
 xmlns:svg="http://www.w3.org/2000/svg"
 xmlns="http://www.w3.org/2000/svg"
 id="svg8"
 version="1.1"
 viewBox="0 0 512 512"
 height="512"
 width="512">
<defs
 id="defs2" />
<metadata
 id="metadata5">
<rdf:RDF>
<cc:Work
 rdf:about="">
<dc:format>image/svg+xml</dc:format>
<dc:type
 rdf:resource="http://purl.org/dc/dcmitype/StillImage" />
<dc:title></dc:title>
</cc:Work>
</rdf:RDF>
</metadata>
<g
 transform="translate(0,-161.53331)"
 id="layer1">
<path
 id="path1605"
 d="M 119.89379,296.80823 C 123.01349,295.5138 126.4039,298.6288 129.59108,299.7468 133.57312,301.14362 137.25761,303.40069 141.34537,304.44852 145.26447,305.45311 149.34834,305.84671 153.39352,305.9178 161.35601,306.05774 169.2433,304.28043 177.19596,303.8608 182.28335,303.59236 187.38296,303.4719 192.47654,303.56694 197.67543,303.66395 203.11889,302.80162 208.05098,304.44851 210.39592,305.23152 214.0035,306.09998 214.22199,308.56252 214.522,311.94382 209.69018,313.71745 206.87555,315.6151 201.71329,319.09554 195.56398,320.82536 189.83183,323.25538 184.004,325.72596 178.07066,327.93998 172.20039,330.30796 166.41437,332.64197 161.0077,336.28074 154.86281,337.36054 152.35262,337.80164 149.65248,337.83536 147.22252,337.06668 143.44047,335.87029 140.46718,332.89634 137.23137,330.60182 133.18779,327.73452 128.72271,325.23895 125.47708,321.49224 122.74852,318.34242 120.73812,314.53304 119.30607,310.61952 118.21017,307.62463 117.05909,304.36827 117.54293,301.21609 117.79557,299.57017 118.35574,297.4464 119.89379,296.80823 Z"
 style="fill:#000000;stroke:none;stroke-width:1px;stroke-linecap:butt;stroke-linejoin:miter;stroke-opacity:1;fill-opacity:1" />
<path
 id="path1607"
 d="M 163.09081,239.50605 C 158.92051,237.48816 164.783,248.65416 166.32324,253.02348 168.44999,259.05658 172.0299,264.48194 174.55125,270.36107 177.23995,276.63044 179.60991,283.03526 181.89768,289.46179 184.00651,295.38568 186.06135,301.33699 187.77483,307.38709 190.40976,316.69071 191.90611,326.29165 194.53355,335.59739 195.82133,340.1584 196.34066,345.15285 198.94141,349.11483 200.80732,351.95736 203.25009,355.19386 206.5817,355.87355 209.00971,356.36889 211.84814,355.24034 213.63427,353.52269 217.6338,349.67651 218.91519,343.46494 219.51142,337.94825 220.74539,326.53089 216.36893,315.19416 214.51584,303.8608 213.3594,296.78811 212.99875,289.48955 210.6957,282.70307 208.3587,275.81654 205.46784,268.80367 200.70455,263.30849 197.16188,259.22148 191.94922,256.95283 187.48097,253.90505 182.45347,250.47581 177.49711,246.91062 172.20039,243.91391 169.26439,242.25282 172.20039,243.91391 163.09081,239.50605 Z"
 style="fill:#000000;stroke:none;stroke-width:1px;stroke-linecap:butt;stroke-linejoin:miter;stroke-opacity:1;fill-opacity:1" />
<path
 id="path1609"
 d="M 264.47159,226.28247 C 265.5397,224.67267 267.54699,223.55668 269.46716,223.3439 272.3305,223.0266 274.98355,225.01571 277.69517,225.98861 284.44075,228.40885 291.13608,230.99521 297.67747,233.92276 302.87539,236.24905 308.06541,238.64893 312.95805,241.56305 316.03981,243.39859 319.19617,245.23957 321.77377,247.73405 324.58931,250.45879 327.85948,253.34056 328.82634,257.13749 329.99885,261.742 328.07088,266.67292 326.76934,271.24264 324.75056,278.33065 321.32595,284.96571 317.95362,291.51879 311.41986,304.21513 303.74991,316.31402 295.91432,328.25096 290.09696,337.11328 284.54579,346.27849 277.40131,354.1104 270.94271,361.19043 263.41783,367.29657 255.65587,372.91727 253.34285,374.59221 247.9616,379.39235 248.30943,377.32513 250.61297,363.63466 257.26179,356.9246 261.82687,346.76397 266.37178,336.64822 271.99451,326.97085 275.63817,316.49667 280.07955,303.72934 285.03763,290.6343 285.33546,277.11979 285.50052,269.62969 284.00435,261.91148 280.9276,255.08049 277.99905,248.57854 271.90433,244.00262 267.99788,238.03676 266.46038,235.68871 264.41109,233.44701 263.88387,230.69033 263.60543,229.23443 263.65207,227.51761 264.47159,226.28247 Z"
 style="fill:#000000;stroke:none;stroke-width:1px;stroke-linecap:butt;stroke-linejoin:miter;stroke-opacity:1;fill-opacity:1" />
<path
 id="path1611"
 d="M 259.76987,286.52322 C 259.76987,286.52322 267.91017,288.9493 272.11188,289.16794 281.26159,289.64405 290.37206,287.53522 299.44061,286.22936 308.70197,284.89573 318.10213,283.92649 327.0632,281.23379 334.92189,278.87235 341.70233,273.41512 349.69021,271.53649 356.37567,269.96418 363.54094,268.94023 370.26022,270.36106 374.46052,271.24923 378.75257,273.1363 381.72065,276.23821 383.5085,278.10666 384.99691,280.70514 384.95309,283.29079 384.89372,286.79474 382.78207,290.27002 380.25137,292.69422 377.3067,295.51495 372.91015,296.27762 369.0848,297.68979 359.98388,301.0495 350.58493,303.58493 341.16835,305.9178 330.11104,308.65715 318.96688,311.22146 307.66861,312.67652 300.85701,313.55376 293.79822,315.36274 287.0986,313.85195 281.32574,312.55015 276.16763,308.99871 271.52416,305.33009 267.27947,301.97653 262.91604,298.19472 260.65144,293.28194 259.70033,291.21861 258.0993,288.06307 259.76987,286.52322 Z"
 style="fill:#000000;stroke:none;stroke-width:1px;stroke-linecap:butt;stroke-linejoin:miter;stroke-opacity:1;fill-opacity:1" />
<path
 id="path1613"
 d="M 169.55568,379.38213 C 178.6716,379.87118 176.29803,379.57574 179.84068,377.91285 185.12902,375.43055 189.16015,370.80727 194.23969,367.9217 197.327,366.16787 200.63949,364.83065 203.93698,363.51384 206.43982,362.51436 208.88272,360.92006 211.57727,360.86912 216.2863,360.7801 220.67065,363.36738 225.09471,364.98312 230.70042,367.03042 236.32842,369.14726 241.55072,372.0357 244.26127,373.5349 247.19128,374.9596 249.19101,377.32513 251.42588,379.96882 252.60293,383.41317 253.59887,386.72857 254.76659,390.61579 255.87651,394.75063 255.36201,398.77671 254.7555,403.52277 252.70209,408.21258 249.77872,412.0003 246.83399,415.8157 243.0297,419.80046 238.31829,420.81601 236.64603,421.17647 234.77062,420.55161 233.32271,419.64059 230.02098,417.56315 229.119,412.84195 225.97628,410.53101 222.75237,408.16037 218.77171,406.68532 214.8097,406.12315 209.64688,405.39059 204.38509,408.41131 199.23526,407.59244 193.64623,406.70374 188.58308,403.62628 183.66082,400.83371 179.57051,398.51314 175.32064,396.1242 172.20039,392.60571 170.71694,390.93293 169.43733,388.91454 168.96796,386.72856 168.45223,384.32667 168.15523,379.307 169.55568,379.38213 Z"
 style="fill:#000000;stroke:none;stroke-width:1px;stroke-linecap:butt;stroke-linejoin:miter;stroke-opacity:1;fill-opacity:1" />
<path
 id="path1615"
 d="M 66.705612,417.28973 C 63.447054,422.35901 64.051497,429.19639 64.354753,435.21502 64.613007,440.34052 66.000765,445.42661 67.881041,450.20175 69.617074,454.61057 71.989946,458.83075 74.933617,462.54375 78.5074,467.05154 83.428987,470.30451 87.569481,474.29805 90.959478,477.56773 94.973741,480.35335 97.56063,484.2892 100.91743,489.39644 102.82319,495.40725 104.31935,501.33292 106.78211,511.08687 106.34119,521.35944 107.84564,531.30637 108.65011,536.62524 109.54505,541.93997 110.78421,547.17466 111.67683,550.94546 111.47444,555.41671 114.01664,558.34124 116.05891,560.69066 119.44326,562.49324 122.5385,562.16139 124.83709,561.91495 126.99768,560.06744 128.12179,558.04738 130.51089,553.75409 129.30326,548.26778 129.29722,543.35452 129.2855,533.82088 128.17995,524.30386 126.94636,514.85036 126.08367,508.23916 125.05595,501.62536 123.42008,495.16191 121.04124,485.76297 118.55623,476.25557 114.3105,467.53933 112.14526,463.09422 109.60408,458.668 106.08249,455.19732 102.09609,451.26855 96.395821,449.52339 91.977341,446.08774 89.02268,443.7903 86.038698,441.40837 83.749336,438.44745 80.210778,433.8709 78.116929,428.33689 75.521331,423.16687 74.066361,420.2688 75.521331,423.16687 71.407329,414.35116 70.625766,412.67638 67.704962,415.73506 66.705612,417.28973 Z"
 style="fill:#000000;stroke:none;stroke-width:1px;stroke-linecap:butt;stroke-linejoin:miter;stroke-opacity:1;fill-opacity:1" />
<path
 id="path1617"
 d="M 75.521332,568.92011 C 76.401106,564.85853 80.921316,562.47149 84.337051,560.10438 89.201057,556.73362 94.946869,554.80543 100.4992,552.75796 108.14926,549.93692 116.16338,548.22336 124.00779,545.99923 133.10796,543.41905 142.20293,540.8182 151.33652,538.35894 164.91746,534.70221 178.37221,530.4417 192.18269,527.78008 208.08541,524.71524 224.30466,523.61524 240.37529,521.60908 254.8666,519.80007 269.26866,516.74753 283.86617,516.31964 288.57504,516.18161 293.30271,516.57146 297.97132,517.20121 309.37526,518.73949 321.14339,519.82665 331.76491,524.25379 338.15936,526.91905 344.27166,530.74878 349.10249,535.71423 352.72264,539.43525 356.75578,543.77824 357.3305,548.9378 357.59456,551.30844 356.9321,554.32629 354.97964,555.69653 348.40456,560.31091 338.86957,556.26548 330.88334,555.40267 324.12222,554.67221 317.59757,552.47309 310.90104,551.28866 297.73745,548.96039 284.57056,546.27099 271.23031,545.41152 255.2944,544.38482 239.24035,544.90821 223.33156,546.29309 211.97284,547.28188 200.70903,549.30091 189.53797,551.58252 180.92566,553.34152 172.33472,555.33864 163.97239,558.04739 153.64181,561.39369 143.00291,564.48581 133.70508,570.09553 128.41065,573.28986 124.07636,577.87796 119.59993,582.14368 116.28903,585.29873 114.67451,591.20545 110.19649,592.13483 101.94779,593.84678 94.340048,586.24582 86.981767,582.14368 83.848748,580.39707 80.363646,578.80764 78.166047,575.97268 76.627833,573.98834 74.989814,571.37392 75.521332,568.92011 Z"
 style="fill:#000000;stroke:none;stroke-width:1px;stroke-linecap:butt;stroke-linejoin:miter;stroke-opacity:1;fill-opacity:1" />
<path
 id="path1619"
 d="M 139.58223,434.33345 C 135.67612,436.00662 134.65799,441.59593 133.99894,445.79389 133.35441,449.89937 133.95395,454.39409 135.76208,458.13589 137.99292,462.75247 143.02721,465.38986 146.34095,469.30248 149.91141,473.51822 150.80804,482.60007 156.3321,482.52605 159.70227,482.48089 159.66978,476.51417 162.20925,474.29805 163.79383,472.91522 165.8598,472.18876 167.79253,471.35948 174.25428,468.5869 181.02812,466.58152 187.77482,464.60075 197.46263,461.75649 207.27441,459.30557 217.16056,457.25433 233.59026,453.84539 250.25553,451.68959 266.82245,449.02632 274.35906,447.81474 281.934,446.83657 289.44946,445.50003 295.35041,444.45062 301.55304,444.29005 307.0809,441.97374 310.13788,440.6928 313.30784,439.03273 315.30891,436.39045 316.43095,434.90886 317.90945,432.76019 317.07205,431.10102 315.21577,427.42309 309.35582,428.09761 305.31776,427.28088 300.78906,426.36491 296.11133,425.72686 291.50646,426.10545 285.56347,426.59405 279.98318,429.18975 274.16888,430.51331 259.65244,433.81781 245.01373,436.56827 230.38414,439.32903 213.18274,442.57511 196.17025,448.42558 178.66525,448.4386 172.40089,448.44326 166.0023,447.44651 160.15224,445.20618 154.97444,443.2233 151.07912,438.71854 146.04709,436.39045 143.99469,435.4409 141.66096,433.44303 139.58223,434.33345 Z"
 style="fill:#000000;stroke:none;stroke-width:1px;stroke-linecap:butt;stroke-linejoin:miter;stroke-opacity:1;fill-opacity:1" />
</g>
</svg>
