<?xml version="1.0" encoding="UTF-8" standalone="no"?>
<svg
 xmlns:dc="http://purl.org/dc/elements/1.1/"
 xmlns:cc="http://creativecommons.org/ns#"
 xmlns:rdf="http://www.w3.org/1999/02/22-rdf-syntax-ns#"
 xmlns:svg="http://www.w3.org/2000/svg"
 xmlns="http://www.w3.org/2000/svg"
 id="svg8"
 version="1.1"
 viewBox="0 0 512 512"
 height="512"
 width="512">
<defs
 id="defs2" />
<metadata
 id="metadata5">
<rdf:RDF>
<cc:Work
 rdf:about="">
<dc:format>image/svg+xml</dc:format>
<dc:type
 rdf:resource="http://purl.org/dc/dcmitype/StillImage" />
<dc:title></dc:title>
</cc:Work>
</rdf:RDF>
</metadata>
<g
 transform="translate(0,-161.53331)"
 id="layer1">
<path
 id="path1676"
 d="M 103.16911,276.00985 C 111.66318,277.01462 116.29813,284.65029 123.80293,286.32676 132.51073,288.27196 141.66637,286.36738 150.56242,285.68195 165.4744,284.533 180.25422,282.03534 195.05409,279.87869 211.10368,277.53993 227.11277,274.91891 243.09221,272.141 259.24851,269.33235 275.43083,266.60848 291.45273,263.11371 301.84286,260.84737 312.01265,257.63925 322.40346,255.37602 331.58892,253.37533 340.72946,250.16917 350.13016,250.21757 356.81125,250.25197 363.57027,251.66384 369.79677,254.08641 376.71901,256.77967 385.25154,258.38167 388.81857,265.69293 389.95929,268.03103 386.28546,270.60848 383.98252,271.8186 379.59709,274.12302 374.10231,272.59505 369.15196,272.78581 360.13072,273.13343 351.08106,272.55532 342.07007,273.10821 323.61469,274.24059 305.21975,276.4589 286.93908,279.23388 274.60302,281.10647 262.44954,284.03153 250.18508,286.32676 230.64623,289.98335 210.94827,292.81882 191.50765,296.96607 178.73647,299.69053 166.37105,304.33204 153.46405,306.31577 145.16184,307.59177 136.56841,309.49694 128.31658,307.92779 120.38221,306.41901 112.76138,302.5784 106.39314,297.61088 103.98447,295.73201 101.97255,293.24198 100.58988,290.518 99.233121,287.84506 97.677341,284.73807 98.333055,281.81311 98.883877,279.35604 100.66849,275.71405 103.16911,276.00985 Z"
 style="fill:#000000;stroke:none;stroke-width:1px;stroke-linecap:butt;stroke-linejoin:miter;stroke-opacity:1;fill-opacity:1" />
<path
 id="path1678"
 d="M 213.10869,314.69826 C 211.17576,319.36476 214.02724,324.88446 213.10869,329.85122 212.12508,335.16977 209.54046,340.07884 207.30542,345.00419 203.78928,352.75271 199.46984,360.11272 195.3765,367.57243 191.5098,374.6191 188.04806,381.93756 183.44757,388.52865 179.82476,393.71902 175.92921,398.834 171.19624,403.03681 166.96157,406.79714 162.05287,409.80837 157.01048,412.38651 154.04267,413.90393 150.32453,413.92923 147.66078,415.93295 146.37254,416.90199 144.98787,418.20608 144.75915,419.80179 144.10775,424.34637 147.46179,428.6327 149.5952,432.69793 150.9944,435.3641 152.10941,438.673 154.75366,440.11321 157.49222,441.60479 161.04594,441.04937 164.10336,440.43561 168.3937,439.57435 172.42155,437.42687 176.03229,434.95475 180.10847,432.16397 183.42898,428.36465 186.6716,424.63784 197.07023,412.68646 205.0438,398.81474 214.7207,386.27183 219.71366,379.8001 225.72749,374.09434 230.19607,367.25002 235.34612,359.36192 242.68267,351.5141 243.09221,342.10255 243.22842,338.97231 241.05769,336.14193 239.54577,333.39766 236.86915,328.53936 232.41377,324.78777 229.87367,319.85672 228.20839,316.62394 229.24258,311.71345 226.32723,309.5398 224.25768,307.99678 220.99456,308.27939 218.58955,309.2174 216.18245,310.15623 214.09743,312.31123 213.10869,314.69826 Z"
 style="fill:#000000;stroke:none;stroke-width:1px;stroke-linecap:butt;stroke-linejoin:miter;stroke-opacity:1;fill-opacity:1" />
<path
 id="path1680"
 d="M 87.048934,399.81277 C 83.977202,405.06334 94.137311,409.78101 96.721038,415.28814 101.52773,425.53344 103.84294,436.77217 107.36035,447.52849 113.6454,466.74833 120.26629,485.86502 126.05975,505.23871 131.2959,522.74873 134.24841,540.96405 140.56791,558.11287 143.19447,565.2404 145.57252,572.75378 150.24001,578.74669 152.11707,581.15678 154.32133,584.03772 157.33289,584.54996 159.81302,584.97181 163.19584,584.16534 164.42576,581.97073 167.85696,575.84825 161.91186,568.15192 160.23452,561.33691 157.5603,550.4716 153.9475,539.85882 150.88482,529.09656 143.55533,503.34069 136.74588,477.4375 129.28379,451.71973 126.68788,442.77306 125.19399,433.38749 121.2237,424.96025 118.086,418.30023 114.01468,411.94759 108.97237,406.58325 106.66114,404.12442 104.08436,401.60892 100.91228,400.45758 96.563749,398.87923 89.384943,395.81978 87.048934,399.81277 Z"
 style="fill:#000000;stroke:none;stroke-width:1px;stroke-linecap:butt;stroke-linejoin:miter;stroke-opacity:1;fill-opacity:1" />
<path
 id="path1682"
 d="M 205.69341,391.75269 C 208.28623,395.93554 214.58495,396.22534 218.26714,399.49037 222.27312,403.0425 224.23578,408.53454 228.26165,412.06411 231.0888,414.54274 234.22103,417.27403 237.93375,417.86737 242.72216,418.63261 247.45359,415.96383 252.1195,414.64333 262.3875,411.73737 272.20929,407.40974 282.42543,404.32642 295.72656,400.31202 309.31028,397.30067 322.72586,393.68711 332.51874,391.04934 342.04875,387.22125 352.06458,385.62702 360.98975,384.20639 370.12166,383.85808 379.14647,384.33741 386.85685,384.74693 395.04795,384.6022 402.03711,387.88385 405.41395,389.46939 408.45454,392.12809 410.4196,395.29913 411.94383,397.7588 412.66087,400.788 412.67643,403.68161 412.7343,414.44649 407.26516,424.52068 404.61634,434.95475 401.7816,446.12118 399.20785,457.35456 396.23385,468.48471 392.68608,481.76218 388.66433,494.90857 384.94973,508.14033 382.99062,515.11886 382.10028,522.47743 379.14647,529.09657 377.84656,532.0095 377.17172,536.9594 373.98801,537.15665 365.76163,537.66632 364.36136,521.23926 358.19024,518.13485 353.83181,515.94231 356.53169,529.71218 356.25582,535.54463 355.94097,542.20106 356.24429,548.87814 356.57823,555.53364 357.02681,564.47389 356.28359,573.71296 358.83505,582.29313 359.7396,585.33497 360.73796,588.87144 363.3487,590.67562 366.02449,592.52476 370.10946,593.4155 373.0208,591.96524 379.86947,588.55361 381.27067,579.00025 384.30492,571.97623 388.32186,562.67738 390.39165,552.65307 393.33222,542.95991 397.07351,530.62728 400.67855,518.25364 404.29394,505.88351 408.53036,491.38848 412.19996,476.72099 416.86767,462.35904 420.57687,450.94631 424.24108,439.47092 429.119,428.50668 431.34687,423.49904 434.04358,418.70238 436.85669,413.99853 438.24884,411.67069 440.18782,409.66907 441.37034,407.22805 443.34094,403.16019 445.9708,398.83339 445.56158,394.33192 445.15235,389.83044 441.92411,385.94295 439.11351,382.40299 436.79383,379.48134 433.89575,376.96291 430.73102,374.98771 426.19364,372.15577 421.09265,370.14611 415.90046,368.86204 404.68906,366.08937 392.95133,365.79888 381.40329,365.63801 369.88077,365.47749 358.36392,366.66481 346.90612,367.89483 331.02367,369.59984 315.26689,372.34794 299.51281,374.98771 289.05625,376.73982 278.68873,378.99458 268.23968,380.79097 255.37167,383.00323 242.53593,385.54617 229.55126,386.91664 221.5243,387.76385 210.65324,382.10316 205.371,388.20625 204.59418,389.10379 205.06802,390.74378 205.69341,391.75269 Z"
 style="fill:#000000;stroke:none;stroke-width:1px;stroke-linecap:butt;stroke-linejoin:miter;stroke-opacity:1;fill-opacity:1" />
<path
 id="path1684"
 d="M 176.03229,434.95475 C 182.67354,440.31206 190.79891,444.51885 195.3765,451.71973 201.72786,461.71088 203.17039,474.2054 205.0486,485.8945 207.43769,500.76309 206.90333,515.97189 206.98302,531.03098 207.0183,537.69736 203.3078,545.08212 206.33821,551.02 208.34353,554.94929 212.90326,558.79577 217.29993,558.43528 220.10323,558.20543 222.14181,555.13465 223.4256,552.63201 225.60382,548.38576 224.9576,543.20161 225.36002,538.44626 226.17606,528.80325 226.4735,519.10632 226.32723,509.42995 226.1482,497.58593 226.11006,485.63402 224.0704,473.96557 222.27839,463.71383 221.21486,452.58988 215.36551,443.98205 211.62009,438.47034 205.54657,434.67363 199.56774,431.73072 192.69209,428.34637 184.81734,424.33158 177.3219,425.92745 174.62972,426.50065 170.83084,428.33373 170.87383,431.08591 170.9074,433.23501 174.35938,433.60526 176.03229,434.95475 Z"
 style="fill:#000000;stroke:none;stroke-width:1px;stroke-linecap:butt;stroke-linejoin:miter;stroke-opacity:1;fill-opacity:1" />
<path
 id="path1686"
 d="M 229.87367,446.56128 C 227.87025,450.34175 232.34474,455.12693 235.35452,458.1678 238.12709,460.969 242.07166,462.9385 245.99384,463.32626 251.51895,463.87249 256.84739,460.89224 262.11401,459.13501 268.28557,457.07585 275.7271,456.47382 280.16861,451.71973 282.95264,448.73977 284.46481,444.16887 284.03745,440.11321 283.81533,438.00528 282.69662,435.60508 280.81341,434.63235 274.10512,431.16733 265.54156,434.62509 258.24517,436.56677 251.83312,438.27312 246.53949,443.0212 240.19058,444.94926 236.86007,445.96068 231.50351,443.48575 229.87367,446.56128 Z"
 style="fill:#000000;stroke:none;stroke-width:1px;stroke-linecap:butt;stroke-linejoin:miter;stroke-opacity:1;fill-opacity:1" />
<path
 id="path1688"
 d="M 217.94474,504.27149 C 217.98273,507.84368 222.39105,510.29793 225.68242,511.68677 231.42864,514.11147 238.20232,513.17535 244.38182,512.33158 250.74661,511.46251 256.89116,509.14296 262.75881,506.52832 269.13942,503.6851 277.43722,502.00433 280.81342,495.889 282.58019,492.68883 282.99267,487.59267 280.49101,484.92729 277.31486,481.54327 271.20091,482.84716 266.62766,483.63767 258.33649,485.07085 251.61589,491.32391 243.73701,494.27699 236.50763,496.98663 228.13776,496.79707 221.49118,500.72506 220.05192,501.57563 217.92696,502.59978 217.94474,504.27149 Z"
 style="fill:#000000;stroke:none;stroke-width:1px;stroke-linecap:butt;stroke-linejoin:miter;stroke-opacity:1;fill-opacity:1" />
<path
 id="path1690"
 d="M 299.83521,392.7199 C 296.05717,403.23205 294.64149,414.50525 293.38714,425.60505 291.46742,442.59275 291.9819,459.77262 291.77513,476.8672 291.59576,491.69706 292.16738,506.5281 292.09753,521.35888 292.06716,527.80777 289.10002,534.83513 291.77513,540.70309 293.23062,543.89576 296.45234,548.40507 299.83522,547.47356 304.88143,546.08404 303.83506,537.74718 304.99367,532.643 307.55506,521.35891 307.72604,509.66103 308.86251,498.14583 310.22905,484.29944 309.9288,470.24661 312.40895,456.55578 314.53773,444.80457 319.69056,433.75939 322.08106,422.05861 323.57793,414.73186 325.89284,407.23527 324.98269,399.81278 324.26615,393.96931 323.57442,386.41321 318.53462,383.3702 314.36922,380.85514 308.06285,382.2649 304.02647,384.98221 301.59318,386.62031 300.82731,389.95946 299.83521,392.7199 Z"
 style="fill:#000000;stroke:none;stroke-width:1px;stroke-linecap:butt;stroke-linejoin:miter;stroke-opacity:1;fill-opacity:1" />
<path
 id="path1692"
 d="M 162.16894,559.40249 C 171.18963,551.84885 184.52017,551.88877 196.0213,549.40798 210.55114,546.2739 225.48151,545.42287 240.19058,543.28231 251.48598,541.63853 262.71748,539.5458 274.04294,538.12386 283.79367,536.89963 293.57405,535.84393 303.38165,535.22222 314.86218,534.49447 326.38391,533.80859 337.87882,534.25502 345.00611,534.53182 352.50242,533.94564 359.15745,536.51184 363.75028,538.28284 370.35834,540.34842 371.08638,545.21673 371.56322,548.40531 368.15446,551.4882 365.28312,552.95442 359.63533,555.83839 352.60278,553.25328 346.26132,553.27682 334.97676,553.3187 323.67162,552.25073 312.40895,552.95442 300.39502,553.70505 288.55151,556.18149 276.62217,557.79046 265.4459,559.29787 254.21207,560.42527 243.09221,562.30412 231.41287,564.2775 219.92523,567.27136 208.27264,569.397 198.31331,571.21375 188.3992,573.7087 178.28911,574.23304 170.65706,574.62887 159.23177,579.55484 155.39847,572.94343 152.86724,568.57775 158.29987,562.64233 162.16894,559.40249 Z"
 style="fill:#000000;stroke:none;stroke-width:1px;stroke-linecap:butt;stroke-linejoin:miter;stroke-opacity:1;fill-opacity:1" />
</g>
</svg>
