<?xml version="1.0" standalone="no"?>
<!DOCTYPE svg PUBLIC "-//W3C//DTD SVG 1.1//EN" "http://www.w3.org/Graphics/SVG/1.1/DTD/svg11.dtd" >
<svg xmlns="http://www.w3.org/2000/svg" xmlns:xlink="http://www.w3.org/1999/xlink" version="1.1" viewBox="0 0 256 256">
  <g transform="matrix(1 0 0 -1 0 204)">
   <path fill="currentColor"
d="M111 196q20 -7 17 -21l-2 -26q4 1 13 2q6 1 8 2q2 7 13 9q6 0 25 -9q3 -3 -1 -6q-3 -2 -8 0q-10 7 -50 -3q-3 -25 -7 -44q1 0 5 1q6 2 8 5q1 3 9 3q16 -2 21 -4q2 -3 1 -4t-4 -1q-11 1 -24 -2q-11 -2 -52 -14q-12 -4 -18 0q-2 1 -2 2q1 1 4 2q22 2 42 10q-1 3 1 7
q2 3 3 11q1 7 2 26q-7 -1 -16 -5q-12 -3 -26 -6q-13 -3 -23 1q-3 1 -3 2q1 1 5 1q9 0 18 1q1 0 3 1q10 1 22 4q13 3 20 5q0 25 -1 32q-1 8 -6 16q-3 2 -2 2q1 1 5 0zM189 92q24 -4 37 -10q7 -4 5 -10q-3 -8 -11 -2q-17 15 -32 20q-5 2 1 2zM109 78q3 -10 13 -10q5 -1 13 -7
q2 -6 -7 -8q-19 8 -23 24q0 2 1 3q2 0 3 -2zM157 57q-7 3 1 2q28 -11 46 -30q14 -15 23 -21q3 -2 2 -4q0 -2 -3 -3q-45 -13 -91 -1q-44 13 -58 45q-2 2 -1 3t4 -1q44 -57 124 -46q4 0 4 1q1 2 -1 5q-22 35 -50 50zM59 53q-5 -11 -6 -21q-1 -11 4 -17q3 -5 -6 -6q-9 -2 -8 20
q-1 5 4 10q4 2 5 7q1 3 5 8q4 3 2 -1z" />
  </g>

</svg>
