<?xml version="1.0" standalone="no"?>
<!DOCTYPE svg PUBLIC "-//W3C//DTD SVG 1.1//EN" "http://www.w3.org/Graphics/SVG/1.1/DTD/svg11.dtd" >
<svg xmlns="http://www.w3.org/2000/svg" xmlns:xlink="http://www.w3.org/1999/xlink" version="1.1" viewBox="0 0 256 256">
  <g transform="matrix(1 0 0 -1 0 204)">
   <path fill="currentColor"
d="M150 136q4 3 11 0q-1 0 1 0q2 -2 6 -4q3 -2 4 -2q3 -5 -2 -6q-16 4 -33 1l-50 -10q-1 -1 -2 -1q-10 -3 -21 1q-4 1 1 2h4q26 3 66 12q8 0 15 7zM78 108q4 -10 -1 -20q-17 -83 -46 -99q-7 -3 -8 -2q0 1 5 5q22 16 38 66q11 37 7 52q0 4 5 -2zM92 -5q0 -2 1 -3q1 0 4 1
q17 14 29 26q3 3 5 3q1 0 -2 -4q-5 -5 -14 -16q-11 -11 -14 -15q-5 -5 -7 -5t-3 5q-8 15 -1 61q0 2 1 5q2 10 1 13q-2 4 2 2q7 -11 5 -15q-14 -34 -7 -58zM141 111q2 6 10 4l9 -3q2 -1 2 -3q-1 -2 -4 -2q-13 -1 -50 -11q-2 -1 -4 -1q-8 -2 -15 0q-4 0 -4 1t4 2q8 0 32 5
q5 1 9 2q7 1 11 6zM151 87q5 1 9 5q2 4 12 1q6 -3 16 -7q2 -5 -5 -5q-12 7 -30 2q-40 -7 -60 -13q-1 -1 -2 -1q-8 -3 -15 2h-2q-2 1 2 1q24 4 75 15zM138 40q-3 -2 -10 -6t-10 -5q-4 -2 -4 -1q-1 1 1 3q12 6 19 14q-8 9 -20 6q-4 -1 -4 0t4 4t12 4q1 1 12 -11q9 8 18 18
q2 2 2 4q0 1 -2 2q-3 0 2 4q9 3 14 0q1 -1 0 -3l-1 -1q-1 -2 -2 -2q-4 -6 -12 -12q-7 -8 -14 -13l-2 -1q22 -31 44 -46q3 -2 16 -3q2 0 5 -1q19 -2 38 -8q2 -1 1 -2t-4 -1q-3 1 -7 1q-15 2 -30 1q-12 0 -20 8q-23 16 -46 47zM174 177q4 -8 -2 -9q-3 0 -6 -5q0 1 -1 -1
q-21 -31 -45 -21q-2 0 0 1q25 -4 37 22q6 13 2 20q-4 9 -12 10q-16 1 -33 -5q-10 -4 -22 -5q-6 -2 -1 2q30 13 56 11q11 -2 27 -20zM75 185q2 -7 5 -9v-2q3 -3 4 -6q1 -9 7 -15q6 -7 7 -9q25 11 34 10q2 -1 2 -2q1 -2 -1 -2l-6 -2q-8 -3 -11 -5q-6 -3 -4 0q0 2 -4 1
q-5 -3 -10 -2q-12 -6 -11 1q1 2 -7 7q-6 3 -2 7q1 2 0 9q-2 1 -3 7t-2 11q0 3 2 1zM121 176q3 2 13 1q1 -1 1 -2t-1 -1q-7 -2 -11 -5l-6 -2q-4 -2 -2 0q0 1 -3 0q-6 -3 -16 -3q-5 0 -1 2q14 3 26 10z" />
  </g>

</svg>
